<?xml version="1.0" encoding="utf-8"?>
<!-- Generator: Adobe Illustrator 18.0.0, SVG Export Plug-In . SVG Version: 6.00 Build 0)  -->
<!DOCTYPE svg PUBLIC "-//W3C//DTD SVG 1.0//EN" "http://www.w3.org/TR/2001/REC-SVG-20010904/DTD/svg10.dtd">
<svg version="1.0" xmlns="http://www.w3.org/2000/svg" xmlns:xlink="http://www.w3.org/1999/xlink" x="0px" y="0px"
	 viewBox="0 0 1119.7 807.9" enable-background="new 0 0 1119.7 807.9" xml:space="preserve">
<g id="Layer_1">
	<rect x="0" y="0" fill="#FFFFFF" width="1119.7" height="807.9"/>
</g>
<g id="Layer_2">
	<g id="Flecha_33">
		<g>
			<polygon fill="#ED1C24" points="486.7,433.9 585.2,416.2 585.2,444 648.6,407.4 585.2,370.7 585.2,398.5 486.7,380.8 			"/>
		</g>
	</g>
	<g>
		
			<radialGradient id="SVGID_1_" cx="1160.9535" cy="1088.3082" r="24.9181" gradientTransform="matrix(0.6018 -1.500000e-003 2.917328e-002 11.6009 -692.7344 -12217.5479)" gradientUnits="userSpaceOnUse">
			<stop  offset="5.376340e-003" style="stop-color:#231F20;stop-opacity:0.4"/>
			<stop  offset="1" style="stop-color:#231F20;stop-opacity:0"/>
		</radialGradient>
		<path fill="url(#SVGID_1_)" d="M53.4,406.1c0.4,163.7-6.3,296.5-15,296.5c-8.7,0-16-132.7-16.4-296.4
			c-0.4-163.7,6.3-296.5,15-296.5C45.6,109.6,53,242.3,53.4,406.1z"/>
		
			<radialGradient id="SVGID_2_" cx="1832.3286" cy="1089.0996" r="24.9181" gradientTransform="matrix(0.6018 -1.500000e-003 2.917328e-002 11.6009 -692.7549 -12225.7227)" gradientUnits="userSpaceOnUse">
			<stop  offset="5.376340e-003" style="stop-color:#231F20;stop-opacity:0.4"/>
			<stop  offset="1" style="stop-color:#231F20;stop-opacity:0"/>
		</radialGradient>
		<path fill="url(#SVGID_2_)" d="M457.4,406.1c0.4,163.7-6.3,296.5-14.9,296.5c-8.7,0-16-132.7-16.4-296.4
			c-0.4-163.7,6.3-296.5,15-296.5C449.6,109.6,457,242.3,457.4,406.1z"/>
		
			<radialGradient id="SVGID_3_" cx="-2460.7847" cy="3135.3386" r="24.9188" gradientTransform="matrix(-1.500000e-003 -0.6018 7.8595 -2.005663e-002 -24413.3809 -710.6499)" gradientUnits="userSpaceOnUse">
			<stop  offset="5.376340e-003" style="stop-color:#231F20;stop-opacity:0.4"/>
			<stop  offset="1" style="stop-color:#231F20;stop-opacity:0"/>
		</radialGradient>
		<path fill="url(#SVGID_3_)" d="M232.4,691.7c110.9-0.3,200.9,6.5,200.9,15.2c0,8.7-89.9,15.9-200.8,16.2
			c-110.9,0.3-200.9-6.5-200.9-15.2C31.5,699.2,121.4,692,232.4,691.7z"/>
		<g>
			<rect x="39.7" y="102" fill="#E6E7E8" width="399" height="606.3"/>
			<rect x="39.7" y="102" fill="#D1D3D4" width="399" height="606.3"/>
		</g>
		<rect x="68.6" y="145" fill="#00AEEF" stroke="#9D9D9C" stroke-miterlimit="10" width="340" height="516.3"/>
		<rect x="91.3" y="388.5" fill="none" width="288.5" height="33.3"/>
		<text transform="matrix(1 0 0 1 107.2785 416.4438)" font-family="'Candara-BoldItalic'" font-size="40.5">Antes del Corte</text>
		<g>
			<rect x="91.3" y="169.9" fill="none" stroke="#231F20" stroke-width="2" stroke-miterlimit="10" width="135.6" height="0.3"/>
			<rect x="91.3" y="176.6" fill="none" stroke="#231F20" stroke-width="2" stroke-miterlimit="10" width="135.6" height="0.3"/>
			<rect x="91.3" y="183.3" fill="none" stroke="#231F20" stroke-width="2" stroke-miterlimit="10" width="135.6" height="0.3"/>
			<rect x="91.3" y="190" fill="none" stroke="#231F20" stroke-width="2" stroke-miterlimit="10" width="135.6" height="0.3"/>
			<rect x="91.3" y="196.7" fill="none" stroke="#231F20" stroke-width="2" stroke-miterlimit="10" width="135.6" height="0.3"/>
			<rect x="91.3" y="203.5" fill="none" stroke="#231F20" stroke-width="2" stroke-miterlimit="10" width="135.6" height="0.3"/>
			<rect x="91.3" y="210.2" fill="none" stroke="#231F20" stroke-width="2" stroke-miterlimit="10" width="135.6" height="0.3"/>
			<rect x="91.3" y="216.9" fill="none" stroke="#231F20" stroke-width="2" stroke-miterlimit="10" width="135.6" height="0.3"/>
			<rect x="91.3" y="223.6" fill="none" stroke="#231F20" stroke-width="2" stroke-miterlimit="10" width="135.6" height="0.3"/>
			<rect x="91.3" y="230.3" fill="none" stroke="#231F20" stroke-width="2" stroke-miterlimit="10" width="135.6" height="0.3"/>
			<rect x="91.3" y="237" fill="none" stroke="#231F20" stroke-width="2" stroke-miterlimit="10" width="135.6" height="0.3"/>
			<rect x="91.3" y="243.8" fill="none" stroke="#231F20" stroke-width="2" stroke-miterlimit="10" width="135.6" height="0.3"/>
			<rect x="91.3" y="250.5" fill="none" stroke="#231F20" stroke-width="2" stroke-miterlimit="10" width="135.6" height="0.3"/>
			<rect x="91.3" y="257.2" fill="none" stroke="#231F20" stroke-width="2" stroke-miterlimit="10" width="135.6" height="0.3"/>
			<rect x="91.3" y="263.9" fill="none" stroke="#231F20" stroke-width="2" stroke-miterlimit="10" width="135.6" height="0.3"/>
			<rect x="91.3" y="270.6" fill="none" stroke="#231F20" stroke-width="2" stroke-miterlimit="10" width="135.6" height="0.3"/>
			<rect x="91.3" y="277.4" fill="none" stroke="#231F20" stroke-width="2" stroke-miterlimit="10" width="135.6" height="0.3"/>
			<rect x="91.3" y="284.1" fill="none" stroke="#231F20" stroke-width="2" stroke-miterlimit="10" width="135.6" height="0.3"/>
			<rect x="91.3" y="290.8" fill="none" stroke="#231F20" stroke-width="2" stroke-miterlimit="10" width="135.6" height="0.3"/>
			<rect x="91.3" y="297.5" fill="none" stroke="#231F20" stroke-width="2" stroke-miterlimit="10" width="135.6" height="0.3"/>
			<rect x="91.3" y="304.2" fill="none" stroke="#231F20" stroke-width="2" stroke-miterlimit="10" width="135.6" height="0.3"/>
			<rect x="91.3" y="310.9" fill="none" stroke="#231F20" stroke-width="2" stroke-miterlimit="10" width="135.6" height="0.3"/>
			<rect x="91.3" y="317.7" fill="none" stroke="#231F20" stroke-width="2" stroke-miterlimit="10" width="135.6" height="0.3"/>
			<rect x="91.3" y="324.4" fill="none" stroke="#231F20" stroke-width="2" stroke-miterlimit="10" width="135.6" height="0.3"/>
			<rect x="91.3" y="331.1" fill="none" stroke="#231F20" stroke-width="2" stroke-miterlimit="10" width="135.6" height="0.3"/>
			<rect x="91.3" y="337.8" fill="none" stroke="#231F20" stroke-width="2" stroke-miterlimit="10" width="135.6" height="0.3"/>
			<rect x="91.3" y="344.5" fill="none" stroke="#231F20" stroke-width="2" stroke-miterlimit="10" width="135.6" height="0.3"/>
			<rect x="91.3" y="351.3" fill="none" stroke="#231F20" stroke-width="2" stroke-miterlimit="10" width="135.6" height="0.3"/>
			<rect x="91.3" y="358" fill="none" stroke="#231F20" stroke-width="2" stroke-miterlimit="10" width="135.6" height="0.3"/>
			<rect x="91.3" y="364.7" fill="none" stroke="#231F20" stroke-width="2" stroke-miterlimit="10" width="135.6" height="0.3"/>
			<rect x="91.3" y="371.4" fill="none" stroke="#231F20" stroke-width="2" stroke-miterlimit="10" width="135.6" height="0.3"/>
			<rect x="91.3" y="378.1" fill="none" stroke="#231F20" stroke-width="2" stroke-miterlimit="10" width="135.6" height="0.3"/>
		</g>
		<g>
			<rect x="251.5" y="431.9" fill="none" stroke="#231F20" stroke-width="2" stroke-miterlimit="10" width="135.6" height="0.3"/>
			<rect x="251.5" y="438.6" fill="none" stroke="#231F20" stroke-width="2" stroke-miterlimit="10" width="135.6" height="0.3"/>
			<rect x="251.5" y="445.3" fill="none" stroke="#231F20" stroke-width="2" stroke-miterlimit="10" width="135.6" height="0.3"/>
			<rect x="251.5" y="452.1" fill="none" stroke="#231F20" stroke-width="2" stroke-miterlimit="10" width="135.6" height="0.3"/>
			<rect x="251.5" y="458.8" fill="none" stroke="#231F20" stroke-width="2" stroke-miterlimit="10" width="135.6" height="0.3"/>
			<rect x="251.5" y="465.5" fill="none" stroke="#231F20" stroke-width="2" stroke-miterlimit="10" width="135.6" height="0.3"/>
			<rect x="251.5" y="472.2" fill="none" stroke="#231F20" stroke-width="2" stroke-miterlimit="10" width="135.6" height="0.3"/>
			<rect x="251.5" y="478.9" fill="none" stroke="#231F20" stroke-width="2" stroke-miterlimit="10" width="135.6" height="0.3"/>
			<rect x="251.5" y="485.7" fill="none" stroke="#231F20" stroke-width="2" stroke-miterlimit="10" width="135.6" height="0.3"/>
			<rect x="251.5" y="492.4" fill="none" stroke="#231F20" stroke-width="2" stroke-miterlimit="10" width="135.6" height="0.3"/>
			<rect x="251.5" y="499.1" fill="none" stroke="#231F20" stroke-width="2" stroke-miterlimit="10" width="135.6" height="0.3"/>
			<rect x="251.5" y="505.8" fill="none" stroke="#231F20" stroke-width="2" stroke-miterlimit="10" width="135.6" height="0.3"/>
			<rect x="251.5" y="512.5" fill="none" stroke="#231F20" stroke-width="2" stroke-miterlimit="10" width="135.6" height="0.3"/>
			<rect x="251.5" y="519.2" fill="none" stroke="#231F20" stroke-width="2" stroke-miterlimit="10" width="135.6" height="0.3"/>
			<rect x="251.5" y="526" fill="none" stroke="#231F20" stroke-width="2" stroke-miterlimit="10" width="135.6" height="0.3"/>
			<rect x="251.5" y="532.7" fill="none" stroke="#231F20" stroke-width="2" stroke-miterlimit="10" width="135.6" height="0.3"/>
			<rect x="251.5" y="539.4" fill="none" stroke="#231F20" stroke-width="2" stroke-miterlimit="10" width="135.6" height="0.3"/>
			<rect x="251.5" y="546.1" fill="none" stroke="#231F20" stroke-width="2" stroke-miterlimit="10" width="135.6" height="0.3"/>
			<rect x="251.5" y="552.8" fill="none" stroke="#231F20" stroke-width="2" stroke-miterlimit="10" width="135.6" height="0.3"/>
			<rect x="251.5" y="559.6" fill="none" stroke="#231F20" stroke-width="2" stroke-miterlimit="10" width="135.6" height="0.3"/>
			<rect x="251.5" y="566.3" fill="none" stroke="#231F20" stroke-width="2" stroke-miterlimit="10" width="135.6" height="0.3"/>
			<rect x="251.5" y="573" fill="none" stroke="#231F20" stroke-width="2" stroke-miterlimit="10" width="135.6" height="0.3"/>
			<rect x="251.5" y="579.7" fill="none" stroke="#231F20" stroke-width="2" stroke-miterlimit="10" width="135.6" height="0.3"/>
			<rect x="251.5" y="586.4" fill="none" stroke="#231F20" stroke-width="2" stroke-miterlimit="10" width="135.6" height="0.3"/>
			<rect x="251.5" y="593.2" fill="none" stroke="#231F20" stroke-width="2" stroke-miterlimit="10" width="135.6" height="0.3"/>
			<rect x="251.5" y="599.9" fill="none" stroke="#231F20" stroke-width="2" stroke-miterlimit="10" width="135.6" height="0.3"/>
			<rect x="251.5" y="606.6" fill="none" stroke="#231F20" stroke-width="2" stroke-miterlimit="10" width="135.6" height="0.3"/>
			<rect x="251.5" y="613.3" fill="none" stroke="#231F20" stroke-width="2" stroke-miterlimit="10" width="135.6" height="0.3"/>
			<rect x="251.5" y="620" fill="none" stroke="#231F20" stroke-width="2" stroke-miterlimit="10" width="135.6" height="0.3"/>
			<rect x="251.5" y="626.7" fill="none" stroke="#231F20" stroke-width="2" stroke-miterlimit="10" width="135.6" height="0.3"/>
			<rect x="251.5" y="633.5" fill="none" stroke="#231F20" stroke-width="2" stroke-miterlimit="10" width="135.6" height="0.3"/>
			<rect x="251.5" y="640.2" fill="none" stroke="#231F20" stroke-width="2" stroke-miterlimit="10" width="135.6" height="0.3"/>
		</g>
		<g>
			<rect x="251.5" y="170.3" fill="none" stroke="#231F20" stroke-width="2" stroke-miterlimit="10" width="135.6" height="0.3"/>
			<rect x="251.5" y="177" fill="none" stroke="#231F20" stroke-width="2" stroke-miterlimit="10" width="135.6" height="0.3"/>
			<rect x="251.5" y="183.7" fill="none" stroke="#231F20" stroke-width="2" stroke-miterlimit="10" width="135.6" height="0.3"/>
			<rect x="251.5" y="190.4" fill="none" stroke="#231F20" stroke-width="2" stroke-miterlimit="10" width="135.6" height="0.3"/>
			<rect x="251.5" y="197.1" fill="none" stroke="#231F20" stroke-width="2" stroke-miterlimit="10" width="135.6" height="0.3"/>
			<rect x="251.5" y="203.8" fill="none" stroke="#231F20" stroke-width="2" stroke-miterlimit="10" width="135.6" height="0.3"/>
			<rect x="251.5" y="210.6" fill="none" stroke="#231F20" stroke-width="2" stroke-miterlimit="10" width="135.6" height="0.3"/>
			<rect x="251.5" y="217.3" fill="none" stroke="#231F20" stroke-width="2" stroke-miterlimit="10" width="135.6" height="0.3"/>
			<rect x="251.5" y="224" fill="none" stroke="#231F20" stroke-width="2" stroke-miterlimit="10" width="135.6" height="0.3"/>
			<rect x="251.5" y="230.7" fill="none" stroke="#231F20" stroke-width="2" stroke-miterlimit="10" width="135.6" height="0.3"/>
			<rect x="251.5" y="237.4" fill="none" stroke="#231F20" stroke-width="2" stroke-miterlimit="10" width="135.6" height="0.3"/>
			<rect x="251.5" y="244.2" fill="none" stroke="#231F20" stroke-width="2" stroke-miterlimit="10" width="135.6" height="0.3"/>
			<rect x="251.5" y="250.9" fill="none" stroke="#231F20" stroke-width="2" stroke-miterlimit="10" width="135.6" height="0.3"/>
			<rect x="251.5" y="257.6" fill="none" stroke="#231F20" stroke-width="2" stroke-miterlimit="10" width="135.6" height="0.3"/>
			<rect x="251.5" y="264.3" fill="none" stroke="#231F20" stroke-width="2" stroke-miterlimit="10" width="135.6" height="0.3"/>
			<rect x="251.5" y="271" fill="none" stroke="#231F20" stroke-width="2" stroke-miterlimit="10" width="135.6" height="0.3"/>
			<rect x="251.5" y="277.7" fill="none" stroke="#231F20" stroke-width="2" stroke-miterlimit="10" width="135.6" height="0.3"/>
			<rect x="251.5" y="284.5" fill="none" stroke="#231F20" stroke-width="2" stroke-miterlimit="10" width="135.6" height="0.3"/>
			<rect x="251.5" y="291.2" fill="none" stroke="#231F20" stroke-width="2" stroke-miterlimit="10" width="135.6" height="0.3"/>
			<rect x="251.5" y="297.9" fill="none" stroke="#231F20" stroke-width="2" stroke-miterlimit="10" width="135.6" height="0.3"/>
			<rect x="251.5" y="304.6" fill="none" stroke="#231F20" stroke-width="2" stroke-miterlimit="10" width="135.6" height="0.3"/>
			<rect x="251.5" y="311.3" fill="none" stroke="#231F20" stroke-width="2" stroke-miterlimit="10" width="135.6" height="0.3"/>
			<rect x="251.5" y="318.1" fill="none" stroke="#231F20" stroke-width="2" stroke-miterlimit="10" width="135.6" height="0.3"/>
			<rect x="251.5" y="324.8" fill="none" stroke="#231F20" stroke-width="2" stroke-miterlimit="10" width="135.6" height="0.3"/>
			<rect x="251.5" y="331.5" fill="none" stroke="#231F20" stroke-width="2" stroke-miterlimit="10" width="135.6" height="0.3"/>
			<rect x="251.5" y="338.2" fill="none" stroke="#231F20" stroke-width="2" stroke-miterlimit="10" width="135.6" height="0.3"/>
			<rect x="251.5" y="344.9" fill="none" stroke="#231F20" stroke-width="2" stroke-miterlimit="10" width="135.6" height="0.3"/>
			<rect x="251.5" y="351.7" fill="none" stroke="#231F20" stroke-width="2" stroke-miterlimit="10" width="135.6" height="0.3"/>
			<rect x="251.5" y="358.4" fill="none" stroke="#231F20" stroke-width="2" stroke-miterlimit="10" width="135.6" height="0.3"/>
			<rect x="251.5" y="365.1" fill="none" stroke="#231F20" stroke-width="2" stroke-miterlimit="10" width="135.6" height="0.3"/>
			<rect x="251.5" y="371.8" fill="none" stroke="#231F20" stroke-width="2" stroke-miterlimit="10" width="135.6" height="0.3"/>
			<rect x="251.5" y="378.5" fill="none" stroke="#231F20" stroke-width="2" stroke-miterlimit="10" width="135.6" height="0.3"/>
		</g>
		<g>
			<rect x="91.3" y="435.4" fill="none" stroke="#231F20" stroke-width="2" stroke-miterlimit="10" width="135.6" height="0.3"/>
			<rect x="91.3" y="442.1" fill="none" stroke="#231F20" stroke-width="2" stroke-miterlimit="10" width="135.6" height="0.3"/>
			<rect x="91.3" y="448.9" fill="none" stroke="#231F20" stroke-width="2" stroke-miterlimit="10" width="135.6" height="0.3"/>
			<rect x="91.3" y="455.6" fill="none" stroke="#231F20" stroke-width="2" stroke-miterlimit="10" width="135.6" height="0.3"/>
			<rect x="91.3" y="462.3" fill="none" stroke="#231F20" stroke-width="2" stroke-miterlimit="10" width="135.6" height="0.3"/>
			<rect x="91.3" y="469" fill="none" stroke="#231F20" stroke-width="2" stroke-miterlimit="10" width="135.6" height="0.3"/>
			<rect x="91.3" y="475.7" fill="none" stroke="#231F20" stroke-width="2" stroke-miterlimit="10" width="135.6" height="0.3"/>
			<rect x="91.3" y="482.5" fill="none" stroke="#231F20" stroke-width="2" stroke-miterlimit="10" width="135.6" height="0.3"/>
			<rect x="91.3" y="489.2" fill="none" stroke="#231F20" stroke-width="2" stroke-miterlimit="10" width="135.6" height="0.3"/>
			<rect x="91.3" y="495.9" fill="none" stroke="#231F20" stroke-width="2" stroke-miterlimit="10" width="135.6" height="0.3"/>
			<rect x="91.3" y="502.6" fill="none" stroke="#231F20" stroke-width="2" stroke-miterlimit="10" width="135.6" height="0.3"/>
			<rect x="91.3" y="509.3" fill="none" stroke="#231F20" stroke-width="2" stroke-miterlimit="10" width="135.6" height="0.3"/>
			<rect x="91.3" y="516" fill="none" stroke="#231F20" stroke-width="2" stroke-miterlimit="10" width="135.6" height="0.3"/>
			<rect x="91.3" y="522.8" fill="none" stroke="#231F20" stroke-width="2" stroke-miterlimit="10" width="135.6" height="0.3"/>
			<rect x="91.3" y="529.5" fill="none" stroke="#231F20" stroke-width="2" stroke-miterlimit="10" width="135.6" height="0.3"/>
			<rect x="91.3" y="536.2" fill="none" stroke="#231F20" stroke-width="2" stroke-miterlimit="10" width="135.6" height="0.3"/>
			<rect x="91.3" y="542.9" fill="none" stroke="#231F20" stroke-width="2" stroke-miterlimit="10" width="135.6" height="0.3"/>
			<rect x="91.3" y="549.6" fill="none" stroke="#231F20" stroke-width="2" stroke-miterlimit="10" width="135.6" height="0.3"/>
			<rect x="91.3" y="556.4" fill="none" stroke="#231F20" stroke-width="2" stroke-miterlimit="10" width="135.6" height="0.3"/>
			<rect x="91.3" y="563.1" fill="none" stroke="#231F20" stroke-width="2" stroke-miterlimit="10" width="135.6" height="0.3"/>
			<rect x="91.3" y="569.8" fill="none" stroke="#231F20" stroke-width="2" stroke-miterlimit="10" width="135.6" height="0.3"/>
			<rect x="91.3" y="576.5" fill="none" stroke="#231F20" stroke-width="2" stroke-miterlimit="10" width="135.6" height="0.3"/>
			<rect x="91.3" y="583.2" fill="none" stroke="#231F20" stroke-width="2" stroke-miterlimit="10" width="135.6" height="0.3"/>
			<rect x="91.3" y="589.9" fill="none" stroke="#231F20" stroke-width="2" stroke-miterlimit="10" width="135.6" height="0.3"/>
			<rect x="91.3" y="596.7" fill="none" stroke="#231F20" stroke-width="2" stroke-miterlimit="10" width="135.6" height="0.3"/>
			<rect x="91.3" y="603.4" fill="none" stroke="#231F20" stroke-width="2" stroke-miterlimit="10" width="135.6" height="0.3"/>
			<rect x="91.3" y="610.1" fill="none" stroke="#231F20" stroke-width="2" stroke-miterlimit="10" width="135.6" height="0.3"/>
			<rect x="91.3" y="616.8" fill="none" stroke="#231F20" stroke-width="2" stroke-miterlimit="10" width="135.6" height="0.3"/>
			<rect x="91.3" y="623.5" fill="none" stroke="#231F20" stroke-width="2" stroke-miterlimit="10" width="135.6" height="0.3"/>
			<rect x="91.3" y="630.3" fill="none" stroke="#231F20" stroke-width="2" stroke-miterlimit="10" width="135.6" height="0.3"/>
			<rect x="91.3" y="637" fill="none" stroke="#231F20" stroke-width="2" stroke-miterlimit="10" width="135.6" height="0.3"/>
			<rect x="91.3" y="643.7" fill="none" stroke="#231F20" stroke-width="2" stroke-miterlimit="10" width="135.6" height="0.3"/>
		</g>
	</g>
	<g>
		
			<radialGradient id="SVGID_4_" cx="2283.052" cy="1080.9114" r="24.9181" gradientTransform="matrix(0.6018 -1.500399e-003 2.801518e-002 11.1394 -691.2595 -11629.9248)" gradientUnits="userSpaceOnUse">
			<stop  offset="5.376340e-003" style="stop-color:#231F20;stop-opacity:0.4"/>
			<stop  offset="1" style="stop-color:#231F20;stop-opacity:0"/>
		</radialGradient>
		<path fill="url(#SVGID_4_)" d="M728.7,407.3c0.4,157.2-6.3,284.7-15,284.7c-8.7,0-16-127.4-16.4-284.6
			c-0.4-157.2,6.3-284.7,15-284.7C720.9,122.6,728.3,250.1,728.7,407.3z"/>
		
			<radialGradient id="SVGID_5_" cx="2877.9905" cy="1081.7277" r="24.9181" gradientTransform="matrix(0.6018 -1.500287e-003 2.834602e-002 11.2712 -691.6465 -11784.1357)" gradientUnits="userSpaceOnUse">
			<stop  offset="5.376340e-003" style="stop-color:#231F20;stop-opacity:0.4"/>
			<stop  offset="1" style="stop-color:#231F20;stop-opacity:0"/>
		</radialGradient>
		<path fill="url(#SVGID_5_)" d="M1086.7,403.9c0.4,159.1-6.3,288-15,288.1c-8.7,0-16-128.9-16.4-288c-0.4-159.1,6.3-288,15-288.1
			C1078.9,115.9,1086.3,244.8,1086.7,403.9z"/>
		
			<radialGradient id="SVGID_6_" cx="-2394.4395" cy="3893.2803" r="24.9188" gradientTransform="matrix(-1.500703e-003 -0.6018 7.2909 -1.863021e-002 -27496.0254 -702.6876)" gradientUnits="userSpaceOnUse">
			<stop  offset="5.376340e-003" style="stop-color:#231F20;stop-opacity:0.4"/>
			<stop  offset="1" style="stop-color:#231F20;stop-opacity:0"/>
		</radialGradient>
		<path fill="url(#SVGID_6_)" d="M892.9,650.1c102.9-0.3,186.3,6.6,186.4,15.2c0,8.7-83.4,15.9-186.3,16.2
			c-102.9,0.3-186.3-6.6-186.4-15.2C706.6,657.6,790,650.3,892.9,650.1z"/>
		<g>
			<rect x="712.9" y="119.1" fill="#E6E7E8" width="357.5" height="547.5"/>
			<rect x="712.9" y="119.1" fill="#E6E7E8" width="357.5" height="547.5"/>
		</g>
		<rect x="721.8" y="134.4" fill="#00AEEF" stroke="#9D9D9C" stroke-miterlimit="10" width="340" height="516.3"/>
		<g>
			<rect x="744.5" y="159.3" fill="none" stroke="#231F20" stroke-width="2" stroke-miterlimit="10" width="135.6" height="0.3"/>
			<rect x="744.5" y="166" fill="none" stroke="#231F20" stroke-width="2" stroke-miterlimit="10" width="135.6" height="0.3"/>
			<rect x="744.5" y="172.7" fill="none" stroke="#231F20" stroke-width="2" stroke-miterlimit="10" width="135.6" height="0.3"/>
			<rect x="744.5" y="179.4" fill="none" stroke="#231F20" stroke-width="2" stroke-miterlimit="10" width="135.6" height="0.3"/>
			<rect x="744.5" y="186.1" fill="none" stroke="#231F20" stroke-width="2" stroke-miterlimit="10" width="135.6" height="0.3"/>
			<rect x="744.5" y="192.9" fill="none" stroke="#231F20" stroke-width="2" stroke-miterlimit="10" width="135.6" height="0.3"/>
			<rect x="744.5" y="199.6" fill="none" stroke="#231F20" stroke-width="2" stroke-miterlimit="10" width="135.6" height="0.3"/>
			<rect x="744.5" y="206.3" fill="none" stroke="#231F20" stroke-width="2" stroke-miterlimit="10" width="135.6" height="0.3"/>
			<rect x="744.5" y="213" fill="none" stroke="#231F20" stroke-width="2" stroke-miterlimit="10" width="135.6" height="0.3"/>
			<rect x="744.5" y="219.7" fill="none" stroke="#231F20" stroke-width="2" stroke-miterlimit="10" width="135.6" height="0.3"/>
			<rect x="744.5" y="226.5" fill="none" stroke="#231F20" stroke-width="2" stroke-miterlimit="10" width="135.6" height="0.3"/>
			<rect x="744.5" y="233.2" fill="none" stroke="#231F20" stroke-width="2" stroke-miterlimit="10" width="135.6" height="0.3"/>
			<rect x="744.5" y="239.9" fill="none" stroke="#231F20" stroke-width="2" stroke-miterlimit="10" width="135.6" height="0.3"/>
			<rect x="744.5" y="246.6" fill="none" stroke="#231F20" stroke-width="2" stroke-miterlimit="10" width="135.6" height="0.3"/>
			<rect x="744.5" y="253.3" fill="none" stroke="#231F20" stroke-width="2" stroke-miterlimit="10" width="135.6" height="0.3"/>
			<rect x="744.5" y="260" fill="none" stroke="#231F20" stroke-width="2" stroke-miterlimit="10" width="135.6" height="0.3"/>
			<rect x="744.5" y="266.8" fill="none" stroke="#231F20" stroke-width="2" stroke-miterlimit="10" width="135.6" height="0.3"/>
			<rect x="744.5" y="273.5" fill="none" stroke="#231F20" stroke-width="2" stroke-miterlimit="10" width="135.6" height="0.3"/>
			<rect x="744.5" y="280.2" fill="none" stroke="#231F20" stroke-width="2" stroke-miterlimit="10" width="135.6" height="0.3"/>
			<rect x="744.5" y="286.9" fill="none" stroke="#231F20" stroke-width="2" stroke-miterlimit="10" width="135.6" height="0.3"/>
			<rect x="744.5" y="293.6" fill="none" stroke="#231F20" stroke-width="2" stroke-miterlimit="10" width="135.6" height="0.3"/>
			<rect x="744.5" y="300.4" fill="none" stroke="#231F20" stroke-width="2" stroke-miterlimit="10" width="135.6" height="0.3"/>
			<rect x="744.5" y="307.1" fill="none" stroke="#231F20" stroke-width="2" stroke-miterlimit="10" width="135.6" height="0.3"/>
			<rect x="744.5" y="313.8" fill="none" stroke="#231F20" stroke-width="2" stroke-miterlimit="10" width="135.6" height="0.3"/>
			<rect x="744.5" y="320.5" fill="none" stroke="#231F20" stroke-width="2" stroke-miterlimit="10" width="135.6" height="0.3"/>
			<rect x="744.5" y="327.2" fill="none" stroke="#231F20" stroke-width="2" stroke-miterlimit="10" width="135.6" height="0.3"/>
			<rect x="744.5" y="333.9" fill="none" stroke="#231F20" stroke-width="2" stroke-miterlimit="10" width="135.6" height="0.3"/>
			<rect x="744.5" y="340.7" fill="none" stroke="#231F20" stroke-width="2" stroke-miterlimit="10" width="135.6" height="0.3"/>
			<rect x="744.5" y="347.4" fill="none" stroke="#231F20" stroke-width="2" stroke-miterlimit="10" width="135.6" height="0.3"/>
			<rect x="744.5" y="354.1" fill="none" stroke="#231F20" stroke-width="2" stroke-miterlimit="10" width="135.6" height="0.3"/>
			<rect x="744.5" y="360.8" fill="none" stroke="#231F20" stroke-width="2" stroke-miterlimit="10" width="135.6" height="0.3"/>
			<rect x="744.5" y="367.5" fill="none" stroke="#231F20" stroke-width="2" stroke-miterlimit="10" width="135.6" height="0.3"/>
		</g>
		<g>
			<rect x="904.7" y="421.3" fill="none" stroke="#231F20" stroke-width="2" stroke-miterlimit="10" width="135.6" height="0.3"/>
			<rect x="904.7" y="428" fill="none" stroke="#231F20" stroke-width="2" stroke-miterlimit="10" width="135.6" height="0.3"/>
			<rect x="904.7" y="434.8" fill="none" stroke="#231F20" stroke-width="2" stroke-miterlimit="10" width="135.6" height="0.3"/>
			<rect x="904.7" y="441.5" fill="none" stroke="#231F20" stroke-width="2" stroke-miterlimit="10" width="135.6" height="0.3"/>
			<rect x="904.7" y="448.2" fill="none" stroke="#231F20" stroke-width="2" stroke-miterlimit="10" width="135.6" height="0.3"/>
			<rect x="904.7" y="454.9" fill="none" stroke="#231F20" stroke-width="2" stroke-miterlimit="10" width="135.6" height="0.3"/>
			<rect x="904.7" y="461.6" fill="none" stroke="#231F20" stroke-width="2" stroke-miterlimit="10" width="135.6" height="0.3"/>
			<rect x="904.7" y="468.3" fill="none" stroke="#231F20" stroke-width="2" stroke-miterlimit="10" width="135.6" height="0.3"/>
			<rect x="904.7" y="475.1" fill="none" stroke="#231F20" stroke-width="2" stroke-miterlimit="10" width="135.6" height="0.3"/>
			<rect x="904.7" y="481.8" fill="none" stroke="#231F20" stroke-width="2" stroke-miterlimit="10" width="135.6" height="0.3"/>
			<rect x="904.7" y="488.5" fill="none" stroke="#231F20" stroke-width="2" stroke-miterlimit="10" width="135.6" height="0.3"/>
			<rect x="904.7" y="495.2" fill="none" stroke="#231F20" stroke-width="2" stroke-miterlimit="10" width="135.6" height="0.3"/>
			<rect x="904.7" y="501.9" fill="none" stroke="#231F20" stroke-width="2" stroke-miterlimit="10" width="135.6" height="0.3"/>
			<rect x="904.7" y="508.7" fill="none" stroke="#231F20" stroke-width="2" stroke-miterlimit="10" width="135.6" height="0.3"/>
			<rect x="904.7" y="515.4" fill="none" stroke="#231F20" stroke-width="2" stroke-miterlimit="10" width="135.6" height="0.3"/>
			<rect x="904.7" y="522.1" fill="none" stroke="#231F20" stroke-width="2" stroke-miterlimit="10" width="135.6" height="0.3"/>
			<rect x="904.7" y="528.8" fill="none" stroke="#231F20" stroke-width="2" stroke-miterlimit="10" width="135.6" height="0.3"/>
			<rect x="904.7" y="535.5" fill="none" stroke="#231F20" stroke-width="2" stroke-miterlimit="10" width="135.6" height="0.3"/>
			<rect x="904.7" y="542.2" fill="none" stroke="#231F20" stroke-width="2" stroke-miterlimit="10" width="135.6" height="0.3"/>
			<rect x="904.7" y="549" fill="none" stroke="#231F20" stroke-width="2" stroke-miterlimit="10" width="135.6" height="0.3"/>
			<rect x="904.7" y="555.7" fill="none" stroke="#231F20" stroke-width="2" stroke-miterlimit="10" width="135.6" height="0.3"/>
			<rect x="904.7" y="562.4" fill="none" stroke="#231F20" stroke-width="2" stroke-miterlimit="10" width="135.6" height="0.3"/>
			<rect x="904.7" y="569.1" fill="none" stroke="#231F20" stroke-width="2" stroke-miterlimit="10" width="135.6" height="0.3"/>
			<rect x="904.7" y="575.8" fill="none" stroke="#231F20" stroke-width="2" stroke-miterlimit="10" width="135.6" height="0.3"/>
			<rect x="904.7" y="582.6" fill="none" stroke="#231F20" stroke-width="2" stroke-miterlimit="10" width="135.6" height="0.3"/>
			<rect x="904.7" y="589.3" fill="none" stroke="#231F20" stroke-width="2" stroke-miterlimit="10" width="135.6" height="0.3"/>
			<rect x="904.7" y="596" fill="none" stroke="#231F20" stroke-width="2" stroke-miterlimit="10" width="135.6" height="0.3"/>
			<rect x="904.7" y="602.7" fill="none" stroke="#231F20" stroke-width="2" stroke-miterlimit="10" width="135.6" height="0.3"/>
			<rect x="904.7" y="609.4" fill="none" stroke="#231F20" stroke-width="2" stroke-miterlimit="10" width="135.6" height="0.3"/>
			<rect x="904.7" y="616.2" fill="none" stroke="#231F20" stroke-width="2" stroke-miterlimit="10" width="135.6" height="0.3"/>
			<rect x="904.7" y="622.9" fill="none" stroke="#231F20" stroke-width="2" stroke-miterlimit="10" width="135.6" height="0.3"/>
			<rect x="904.7" y="629.6" fill="none" stroke="#231F20" stroke-width="2" stroke-miterlimit="10" width="135.6" height="0.3"/>
		</g>
		<g>
			<rect x="904.7" y="159.7" fill="none" stroke="#231F20" stroke-width="2" stroke-miterlimit="10" width="135.6" height="0.3"/>
			<rect x="904.7" y="166.4" fill="none" stroke="#231F20" stroke-width="2" stroke-miterlimit="10" width="135.6" height="0.3"/>
			<rect x="904.7" y="173.1" fill="none" stroke="#231F20" stroke-width="2" stroke-miterlimit="10" width="135.6" height="0.3"/>
			<rect x="904.7" y="179.8" fill="none" stroke="#231F20" stroke-width="2" stroke-miterlimit="10" width="135.6" height="0.3"/>
			<rect x="904.7" y="186.5" fill="none" stroke="#231F20" stroke-width="2" stroke-miterlimit="10" width="135.6" height="0.3"/>
			<rect x="904.7" y="193.3" fill="none" stroke="#231F20" stroke-width="2" stroke-miterlimit="10" width="135.6" height="0.3"/>
			<rect x="904.7" y="200" fill="none" stroke="#231F20" stroke-width="2" stroke-miterlimit="10" width="135.6" height="0.3"/>
			<rect x="904.7" y="206.7" fill="none" stroke="#231F20" stroke-width="2" stroke-miterlimit="10" width="135.6" height="0.3"/>
			<rect x="904.7" y="213.4" fill="none" stroke="#231F20" stroke-width="2" stroke-miterlimit="10" width="135.6" height="0.3"/>
			<rect x="904.7" y="220.1" fill="none" stroke="#231F20" stroke-width="2" stroke-miterlimit="10" width="135.6" height="0.3"/>
			<rect x="904.7" y="226.8" fill="none" stroke="#231F20" stroke-width="2" stroke-miterlimit="10" width="135.6" height="0.3"/>
			<rect x="904.7" y="233.6" fill="none" stroke="#231F20" stroke-width="2" stroke-miterlimit="10" width="135.6" height="0.3"/>
			<rect x="904.7" y="240.3" fill="none" stroke="#231F20" stroke-width="2" stroke-miterlimit="10" width="135.6" height="0.3"/>
			<rect x="904.7" y="247" fill="none" stroke="#231F20" stroke-width="2" stroke-miterlimit="10" width="135.6" height="0.3"/>
			<rect x="904.7" y="253.7" fill="none" stroke="#231F20" stroke-width="2" stroke-miterlimit="10" width="135.6" height="0.3"/>
			<rect x="904.7" y="260.4" fill="none" stroke="#231F20" stroke-width="2" stroke-miterlimit="10" width="135.6" height="0.3"/>
			<rect x="904.7" y="267.2" fill="none" stroke="#231F20" stroke-width="2" stroke-miterlimit="10" width="135.6" height="0.3"/>
			<rect x="904.7" y="273.9" fill="none" stroke="#231F20" stroke-width="2" stroke-miterlimit="10" width="135.6" height="0.3"/>
			<rect x="904.7" y="280.6" fill="none" stroke="#231F20" stroke-width="2" stroke-miterlimit="10" width="135.6" height="0.3"/>
			<rect x="904.7" y="287.3" fill="none" stroke="#231F20" stroke-width="2" stroke-miterlimit="10" width="135.6" height="0.3"/>
			<rect x="904.7" y="294" fill="none" stroke="#231F20" stroke-width="2" stroke-miterlimit="10" width="135.6" height="0.3"/>
			<rect x="904.7" y="300.7" fill="none" stroke="#231F20" stroke-width="2" stroke-miterlimit="10" width="135.6" height="0.3"/>
			<rect x="904.7" y="307.5" fill="none" stroke="#231F20" stroke-width="2" stroke-miterlimit="10" width="135.6" height="0.3"/>
			<rect x="904.7" y="314.2" fill="none" stroke="#231F20" stroke-width="2" stroke-miterlimit="10" width="135.6" height="0.3"/>
			<rect x="904.7" y="320.9" fill="none" stroke="#231F20" stroke-width="2" stroke-miterlimit="10" width="135.6" height="0.3"/>
			<rect x="904.7" y="327.6" fill="none" stroke="#231F20" stroke-width="2" stroke-miterlimit="10" width="135.6" height="0.3"/>
			<rect x="904.7" y="334.3" fill="none" stroke="#231F20" stroke-width="2" stroke-miterlimit="10" width="135.6" height="0.3"/>
			<rect x="904.7" y="341.1" fill="none" stroke="#231F20" stroke-width="2" stroke-miterlimit="10" width="135.6" height="0.3"/>
			<rect x="904.7" y="347.8" fill="none" stroke="#231F20" stroke-width="2" stroke-miterlimit="10" width="135.6" height="0.3"/>
			<rect x="904.7" y="354.5" fill="none" stroke="#231F20" stroke-width="2" stroke-miterlimit="10" width="135.6" height="0.3"/>
			<rect x="904.7" y="361.2" fill="none" stroke="#231F20" stroke-width="2" stroke-miterlimit="10" width="135.6" height="0.3"/>
			<rect x="904.7" y="367.9" fill="none" stroke="#231F20" stroke-width="2" stroke-miterlimit="10" width="135.6" height="0.3"/>
		</g>
		<g>
			<rect x="744.5" y="424.8" fill="none" stroke="#231F20" stroke-width="2" stroke-miterlimit="10" width="135.6" height="0.3"/>
			<rect x="744.5" y="431.5" fill="none" stroke="#231F20" stroke-width="2" stroke-miterlimit="10" width="135.6" height="0.3"/>
			<rect x="744.5" y="438.3" fill="none" stroke="#231F20" stroke-width="2" stroke-miterlimit="10" width="135.6" height="0.3"/>
			<rect x="744.5" y="445" fill="none" stroke="#231F20" stroke-width="2" stroke-miterlimit="10" width="135.6" height="0.3"/>
			<rect x="744.5" y="451.7" fill="none" stroke="#231F20" stroke-width="2" stroke-miterlimit="10" width="135.6" height="0.3"/>
			<rect x="744.5" y="458.4" fill="none" stroke="#231F20" stroke-width="2" stroke-miterlimit="10" width="135.6" height="0.3"/>
			<rect x="744.5" y="465.1" fill="none" stroke="#231F20" stroke-width="2" stroke-miterlimit="10" width="135.6" height="0.3"/>
			<rect x="744.5" y="471.9" fill="none" stroke="#231F20" stroke-width="2" stroke-miterlimit="10" width="135.6" height="0.3"/>
			<rect x="744.5" y="478.6" fill="none" stroke="#231F20" stroke-width="2" stroke-miterlimit="10" width="135.6" height="0.3"/>
			<rect x="744.5" y="485.3" fill="none" stroke="#231F20" stroke-width="2" stroke-miterlimit="10" width="135.6" height="0.3"/>
			<rect x="744.5" y="492" fill="none" stroke="#231F20" stroke-width="2" stroke-miterlimit="10" width="135.6" height="0.3"/>
			<rect x="744.5" y="498.7" fill="none" stroke="#231F20" stroke-width="2" stroke-miterlimit="10" width="135.6" height="0.3"/>
			<rect x="744.5" y="505.5" fill="none" stroke="#231F20" stroke-width="2" stroke-miterlimit="10" width="135.6" height="0.3"/>
			<rect x="744.5" y="512.2" fill="none" stroke="#231F20" stroke-width="2" stroke-miterlimit="10" width="135.6" height="0.3"/>
			<rect x="744.5" y="518.9" fill="none" stroke="#231F20" stroke-width="2" stroke-miterlimit="10" width="135.6" height="0.3"/>
			<rect x="744.5" y="525.6" fill="none" stroke="#231F20" stroke-width="2" stroke-miterlimit="10" width="135.6" height="0.3"/>
			<rect x="744.5" y="532.3" fill="none" stroke="#231F20" stroke-width="2" stroke-miterlimit="10" width="135.6" height="0.3"/>
			<rect x="744.5" y="539" fill="none" stroke="#231F20" stroke-width="2" stroke-miterlimit="10" width="135.6" height="0.3"/>
			<rect x="744.5" y="545.8" fill="none" stroke="#231F20" stroke-width="2" stroke-miterlimit="10" width="135.6" height="0.3"/>
			<rect x="744.5" y="552.5" fill="none" stroke="#231F20" stroke-width="2" stroke-miterlimit="10" width="135.6" height="0.3"/>
			<rect x="744.5" y="559.2" fill="none" stroke="#231F20" stroke-width="2" stroke-miterlimit="10" width="135.6" height="0.3"/>
			<rect x="744.5" y="565.9" fill="none" stroke="#231F20" stroke-width="2" stroke-miterlimit="10" width="135.6" height="0.3"/>
			<rect x="744.5" y="572.6" fill="none" stroke="#231F20" stroke-width="2" stroke-miterlimit="10" width="135.6" height="0.3"/>
			<rect x="744.5" y="579.4" fill="none" stroke="#231F20" stroke-width="2" stroke-miterlimit="10" width="135.6" height="0.3"/>
			<rect x="744.5" y="586.1" fill="none" stroke="#231F20" stroke-width="2" stroke-miterlimit="10" width="135.6" height="0.3"/>
			<rect x="744.5" y="592.8" fill="none" stroke="#231F20" stroke-width="2" stroke-miterlimit="10" width="135.6" height="0.3"/>
			<rect x="744.5" y="599.5" fill="none" stroke="#231F20" stroke-width="2" stroke-miterlimit="10" width="135.6" height="0.3"/>
			<rect x="744.5" y="606.2" fill="none" stroke="#231F20" stroke-width="2" stroke-miterlimit="10" width="135.6" height="0.3"/>
			<rect x="744.5" y="612.9" fill="none" stroke="#231F20" stroke-width="2" stroke-miterlimit="10" width="135.6" height="0.3"/>
			<rect x="744.5" y="619.7" fill="none" stroke="#231F20" stroke-width="2" stroke-miterlimit="10" width="135.6" height="0.3"/>
			<rect x="744.5" y="626.4" fill="none" stroke="#231F20" stroke-width="2" stroke-miterlimit="10" width="135.6" height="0.3"/>
			<rect x="744.5" y="633.1" fill="none" stroke="#231F20" stroke-width="2" stroke-miterlimit="10" width="135.6" height="0.3"/>
		</g>
	</g>
	<rect x="723.6" y="385.4" fill="none" width="338.8" height="37"/>
	<text transform="matrix(1 0 0 1 743.0206 413.3994)" font-family="'Candara-BoldItalic'" font-size="40.5">Despues del Corte</text>
	<g>
		<g>
			<line fill="none" stroke="#231F20" stroke-miterlimit="10" x1="440" y1="101.6" x2="441" y2="101.6"/>
			
				<line fill="none" stroke="#231F20" stroke-miterlimit="10" stroke-dasharray="1.9869,1.9869,1.9869,1.9869" x1="443" y1="101.6" x2="449.9" y2="101.6"/>
			
				<line fill="none" stroke="#231F20" stroke-miterlimit="10" stroke-dasharray="1.9869,1.9869,1.9869,1.9869,1.9869,1.9869" x1="450.9" y1="101.6" x2="700.3" y2="101.6"/>
			<line fill="none" stroke="#231F20" stroke-miterlimit="10" x1="701.3" y1="101.6" x2="702.3" y2="101.6"/>
		</g>
	</g>
	<g>
		<g>
			<line fill="none" stroke="#231F20" stroke-miterlimit="10" x1="438" y1="707.8" x2="439" y2="707.8"/>
			
				<line fill="none" stroke="#231F20" stroke-miterlimit="10" stroke-dasharray="2.0425,2.0425,2.0425,2.0425" x1="441" y1="707.8" x2="448.2" y2="707.8"/>
			
				<line fill="none" stroke="#231F20" stroke-miterlimit="10" stroke-dasharray="2.0425,2.0425,2.0425,2.0425,2.0425,2.0425" x1="449.2" y1="707.8" x2="693.3" y2="707.8"/>
			<line fill="none" stroke="#231F20" stroke-miterlimit="10" x1="694.3" y1="707.8" x2="695.3" y2="707.8"/>
		</g>
	</g>
	<rect x="252.9" y="33.8" fill="none" width="588" height="50"/>
	<text transform="matrix(1 0 0 1 257.3135 75.2751)" fill="#231F20" font-family="'Candara-BoldItalic'" font-size="60">Corte con borde blanco</text>
	<g>
		<g>
			<g>
				<polyline fill="none" stroke="#231F20" stroke-miterlimit="10" points="1092.5,707.1 1092.5,708.1 1091.5,708.1 				"/>
				
					<line fill="none" stroke="#231F20" stroke-miterlimit="10" stroke-dasharray="2.0155,2.0155,2.0155,2.0155" x1="1089.5" y1="708.1" x2="1082.4" y2="708.1"/>
				
					<line fill="none" stroke="#231F20" stroke-miterlimit="10" stroke-dasharray="2.0155,2.0155,2.0155,2.0155,2.0155,2.0155" x1="1081.4" y1="708.1" x2="695.5" y2="708.1"/>
				<polyline fill="none" stroke="#231F20" stroke-miterlimit="10" points="694.5,708.1 693.5,708.1 693.5,707.1 				"/>
				
					<line fill="none" stroke="#231F20" stroke-miterlimit="10" stroke-dasharray="1.9813,1.9813,1.9813,1.9813" x1="693.5" y1="705.1" x2="693.5" y2="698.2"/>
				
					<line fill="none" stroke="#231F20" stroke-miterlimit="10" stroke-dasharray="1.9813,1.9813,1.9813,1.9813,1.9813,1.9813" x1="693.5" y1="697.2" x2="693.5" y2="103.8"/>
				<polyline fill="none" stroke="#231F20" stroke-miterlimit="10" points="693.5,102.8 693.5,101.8 694.5,101.8 				"/>
				
					<line fill="none" stroke="#231F20" stroke-miterlimit="10" stroke-dasharray="2.0155,2.0155,2.0155,2.0155" x1="696.5" y1="101.8" x2="703.5" y2="101.8"/>
				
					<line fill="none" stroke="#231F20" stroke-miterlimit="10" stroke-dasharray="2.0155,2.0155,2.0155,2.0155,2.0155,2.0155" x1="704.5" y1="101.8" x2="1090.5" y2="101.8"/>
				<polyline fill="none" stroke="#231F20" stroke-miterlimit="10" points="1091.5,101.8 1092.5,101.8 1092.5,102.8 				"/>
				
					<line fill="none" stroke="#231F20" stroke-miterlimit="10" stroke-dasharray="1.9813,1.9813,1.9813,1.9813" x1="1092.5" y1="104.8" x2="1092.5" y2="111.7"/>
				
					<line fill="none" stroke="#231F20" stroke-miterlimit="10" stroke-dasharray="1.9813,1.9813,1.9813,1.9813,1.9813,1.9813" x1="1092.5" y1="112.7" x2="1092.5" y2="706.1"/>
			</g>
		</g>
		<g>
			<g>
				<polyline fill="none" stroke="#231F20" stroke-miterlimit="10" points="1092.5,707.1 1092.5,708.1 1091.5,708.1 				"/>
				
					<line fill="none" stroke="#231F20" stroke-miterlimit="10" stroke-dasharray="2.0155,2.0155,2.0155,2.0155" x1="1089.5" y1="708.1" x2="1082.4" y2="708.1"/>
				
					<line fill="none" stroke="#231F20" stroke-miterlimit="10" stroke-dasharray="2.0155,2.0155,2.0155,2.0155,2.0155,2.0155" x1="1081.4" y1="708.1" x2="695.5" y2="708.1"/>
				<polyline fill="none" stroke="#231F20" stroke-miterlimit="10" points="694.5,708.1 693.5,708.1 693.5,707.1 				"/>
				
					<line fill="none" stroke="#231F20" stroke-miterlimit="10" stroke-dasharray="1.9813,1.9813,1.9813,1.9813" x1="693.5" y1="705.1" x2="693.5" y2="698.2"/>
				
					<line fill="none" stroke="#231F20" stroke-miterlimit="10" stroke-dasharray="1.9813,1.9813,1.9813,1.9813,1.9813,1.9813" x1="693.5" y1="697.2" x2="693.5" y2="103.8"/>
				<polyline fill="none" stroke="#231F20" stroke-miterlimit="10" points="693.5,102.8 693.5,101.8 694.5,101.8 				"/>
				
					<line fill="none" stroke="#231F20" stroke-miterlimit="10" stroke-dasharray="2.0155,2.0155,2.0155,2.0155" x1="696.5" y1="101.8" x2="703.5" y2="101.8"/>
				
					<line fill="none" stroke="#231F20" stroke-miterlimit="10" stroke-dasharray="2.0155,2.0155,2.0155,2.0155,2.0155,2.0155" x1="704.5" y1="101.8" x2="1090.5" y2="101.8"/>
				<polyline fill="none" stroke="#231F20" stroke-miterlimit="10" points="1091.5,101.8 1092.5,101.8 1092.5,102.8 				"/>
				
					<line fill="none" stroke="#231F20" stroke-miterlimit="10" stroke-dasharray="1.9813,1.9813,1.9813,1.9813" x1="1092.5" y1="104.8" x2="1092.5" y2="111.7"/>
				
					<line fill="none" stroke="#231F20" stroke-miterlimit="10" stroke-dasharray="1.9813,1.9813,1.9813,1.9813,1.9813,1.9813" x1="1092.5" y1="112.7" x2="1092.5" y2="706.1"/>
			</g>
		</g>
	</g>
</g>
</svg>
