<?xml version="1.0" encoding="utf-8"?>
<!-- Generator: Adobe Illustrator 18.0.0, SVG Export Plug-In . SVG Version: 6.00 Build 0)  -->
<!DOCTYPE svg PUBLIC "-//W3C//DTD SVG 1.0//EN" "http://www.w3.org/TR/2001/REC-SVG-20010904/DTD/svg10.dtd">
<svg version="1.0" xmlns="http://www.w3.org/2000/svg" xmlns:xlink="http://www.w3.org/1999/xlink" x="0px" y="0px"
	 viewBox="0 0 1119.7 807.9" enable-background="new 0 0 1119.7 807.9" xml:space="preserve">
<g id="Layer_1">
	<rect x="0" y="0" fill="#FFFFFF" width="1119.7" height="807.9"/>
</g>
<g id="Layer_2">
	<g>
		
			<radialGradient id="SVGID_1_" cx="1176.8741" cy="908.9086" r="24.9181" gradientTransform="matrix(0.6018 -1.500000e-003 2.917328e-002 11.6009 -685.3715 -10134.4248)" gradientUnits="userSpaceOnUse">
			<stop  offset="5.376340e-003" style="stop-color:#231F20;stop-opacity:0.4"/>
			<stop  offset="1" style="stop-color:#231F20;stop-opacity:0"/>
		</radialGradient>
		<path fill="url(#SVGID_1_)" d="M65.1,408c0.4,163.7-6.3,296.5-15,296.5c-8.7,0-16-132.7-16.4-296.4c-0.4-163.7,6.3-296.5,15-296.5
			C57.3,111.5,64.7,244.2,65.1,408z"/>
		
			<radialGradient id="SVGID_2_" cx="1848.2493" cy="909.7" r="24.9181" gradientTransform="matrix(0.6018 -1.500000e-003 2.917328e-002 11.6009 -685.392 -10142.5986)" gradientUnits="userSpaceOnUse">
			<stop  offset="5.376340e-003" style="stop-color:#231F20;stop-opacity:0.4"/>
			<stop  offset="1" style="stop-color:#231F20;stop-opacity:0"/>
		</radialGradient>
		<path fill="url(#SVGID_2_)" d="M469.1,408c0.4,163.7-6.3,296.5-14.9,296.5c-8.7,0-16-132.7-16.4-296.4
			c-0.4-163.7,6.3-296.5,15-296.5C461.3,111.5,468.7,244.2,469.1,408z"/>
		
			<radialGradient id="SVGID_3_" cx="-3867.7444" cy="2301.6853" r="24.9188" gradientTransform="matrix(-1.500000e-003 -0.6018 7.8595 -2.005663e-002 -17851.7129 -1572.1835)" gradientUnits="userSpaceOnUse">
			<stop  offset="5.376340e-003" style="stop-color:#231F20;stop-opacity:0.4"/>
			<stop  offset="1" style="stop-color:#231F20;stop-opacity:0"/>
		</radialGradient>
		<path fill="url(#SVGID_3_)" d="M244.1,693.6c110.9-0.3,200.9,6.5,200.9,15.2c0,8.7-89.9,15.9-200.8,16.2
			c-110.9,0.3-200.9-6.5-200.9-15.2C43.2,701.1,133.1,693.8,244.1,693.6z"/>
		<g>
			<rect x="51.4" y="103.9" fill="#E6E7E8" width="399" height="606.3"/>
			<rect x="51.4" y="103.9" fill="#D1D3D4" stroke="#D1D3D4" stroke-miterlimit="10" width="399" height="606.3"/>
		</g>
		<rect x="81.4" y="162.2" fill="#00AEEF" stroke="#9D9D9C" stroke-miterlimit="10" width="317.8" height="477.2"/>
		<rect x="81.4" y="372" fill="none" width="317.2" height="37"/>
		<text transform="matrix(1 0 0 1 97.4844 403.0934)" font-family="'Candara-BoldItalic'" font-size="45">Antes del Corte</text>
	</g>
	<g>
		
			<radialGradient id="SVGID_4_" cx="2255.1023" cy="907.3723" r="24.9181" gradientTransform="matrix(0.6018 -1.501741e-003 2.409113e-002 9.5754 -680.7294 -8284.5771)" gradientUnits="userSpaceOnUse">
			<stop  offset="5.376340e-003" style="stop-color:#231F20;stop-opacity:0.4"/>
			<stop  offset="1" style="stop-color:#231F20;stop-opacity:0"/>
		</radialGradient>
		<path fill="url(#SVGID_4_)" d="M713.9,400.4c0.3,135.1-6.4,244.7-15.1,244.7c-8.7,0-16-109.5-16.3-244.6
			c-0.3-135.1,6.4-244.7,15.1-244.7C706.3,155.7,713.6,265.3,713.9,400.4z"/>
		
			<radialGradient id="SVGID_5_" cx="2785.2354" cy="908.0447" r="24.9181" gradientTransform="matrix(0.6018 -1.501945e-003 2.349276e-002 9.3369 -680.1993 -8073.2935)" gradientUnits="userSpaceOnUse">
			<stop  offset="5.376340e-003" style="stop-color:#231F20;stop-opacity:0.4"/>
			<stop  offset="1" style="stop-color:#231F20;stop-opacity:0"/>
		</radialGradient>
		<path fill="url(#SVGID_5_)" d="M1033,400.8c0.3,131.8-6.4,238.6-15.1,238.6c-8.7,0-16-106.8-16.3-238.6
			c-0.3-131.8,6.4-238.6,15.1-238.6C1025.4,162.2,1032.7,269,1033,400.8z"/>
		
			<radialGradient id="SVGID_6_" cx="-3754.293" cy="2998.5693" r="24.9188" gradientTransform="matrix(-1.502030e-003 -0.6018 6.2186 -1.594036e-002 -17794.4922 -1572.1173)" gradientUnits="userSpaceOnUse">
			<stop  offset="5.376340e-003" style="stop-color:#231F20;stop-opacity:0.4"/>
			<stop  offset="1" style="stop-color:#231F20;stop-opacity:0"/>
		</radialGradient>
		<path fill="url(#SVGID_6_)" d="M858.1,623.7c87.8-0.2,158.9,6.6,159,15.3c0,8.7-71.1,15.9-158.9,16.1
			c-87.8,0.2-158.9-6.6-159-15.3C699.2,631.2,770.4,623.9,858.1,623.7z"/>
		<rect x="699.3" y="162.2" fill="#00AEEF" stroke="#9D9D9C" stroke-miterlimit="10" width="317.8" height="477.2"/>
		<rect x="713.8" y="365.3" fill="none" width="288" height="31.5"/>
		<text transform="matrix(1 0 0 1 716.1233 391.6932)" font-family="'Candara-BoldItalic'" font-size="38.25">Despues del Corte</text>
	</g>
	<g id="Flecha_33">
		<g>
			<polygon fill="#ED1C24" points="497.9,453.7 596.4,436 596.4,463.9 659.8,427.2 596.4,390.5 596.4,418.4 497.9,400.7 			"/>
		</g>
	</g>
	<rect x="233.9" y="26.1" fill="none" width="651.8" height="50"/>
	<text transform="matrix(1 0 0 1 242.8208 67.4863)" fill="#231F20" font-family="'Candara-BoldItalic'" font-size="60">Corte a medida especifica</text>
	<g>
		<g>
			<polygon fill="#ED1C24" points="154.3,686.7 109.9,677.4 109.9,692 81.4,672.7 109.9,653.5 109.9,668.1 154.3,658.8 			"/>
		</g>
		<g>
			<polygon fill="#ED1C24" points="326.3,686.7 370.7,677.4 370.7,692 399.2,672.7 370.7,653.5 370.7,668.1 326.3,658.8 			"/>
		</g>
		<rect x="154.3" y="648.7" fill="none" width="172" height="48"/>
		<text transform="matrix(1 0 0 1 158.7278 691.3253)" font-family="'MyriadPro-Regular'" font-size="60">Ancho </text>
	</g>
	<g>
		<g>
			<polygon fill="#ED1C24" points="772.2,686.7 727.8,677.4 727.8,692 699.3,672.7 727.8,653.5 727.8,668.1 772.2,658.8 			"/>
		</g>
		<g>
			<polygon fill="#ED1C24" points="944.2,686.7 988.5,677.4 988.5,692 1017.1,672.7 988.5,653.5 988.5,668.1 944.2,658.8 			"/>
		</g>
		<rect x="772.2" y="648.7" fill="none" width="172" height="48"/>
		<text transform="matrix(1 0 0 1 776.5989 691.3253)" fill="#FFFFFF" font-family="'MyriadPro-Regular'" font-size="60">Ancho </text>
	</g>
	<g>
		<g>
			<polygon fill="#ED1C24" points="437.1,301.8 427.9,216.9 442.5,216.9 423.2,162.2 404,216.9 418.6,216.9 409.3,301.8 			"/>
		</g>
		<rect x="399.2" y="301.4" fill="none" width="48" height="197.7"/>
		<text transform="matrix(0 -1 1 0 441.8106 468.283)" font-family="'MyriadPro-Regular'" font-size="60">ALTO </text>
		<g>
			<polygon fill="#ED1C24" points="409.3,498.7 418.6,583.7 404,583.7 423.2,638.3 442.5,583.7 427.9,583.7 437.1,498.7 			"/>
		</g>
	</g>
	<g>
		<g>
			<polygon fill="#ED1C24" points="1063.8,301.5 1054.5,216.6 1069.1,216.6 1049.9,162 1030.6,216.6 1045.2,216.6 1035.9,301.5 			
				"/>
		</g>
		<rect x="1025.9" y="301.1" fill="none" width="48" height="197.7"/>
		<text transform="matrix(0 -1 1 0 1068.4655 468.0017)" fill="#FFFFFF" font-family="'MyriadPro-Regular'" font-size="60">ALTO </text>
		<g>
			<polygon fill="#ED1C24" points="1035.9,498.4 1045.2,583.4 1030.6,583.4 1049.9,638 1069.1,583.4 1054.5,583.4 1063.8,498.4 			
				"/>
		</g>
	</g>
</g>
</svg>
