<?xml version="1.0" encoding="utf-8"?>
<!-- Generator: Adobe Illustrator 18.0.0, SVG Export Plug-In . SVG Version: 6.00 Build 0)  -->
<!DOCTYPE svg PUBLIC "-//W3C//DTD SVG 1.0//EN" "http://www.w3.org/TR/2001/REC-SVG-20010904/DTD/svg10.dtd">
<svg version="1.0" xmlns="http://www.w3.org/2000/svg" xmlns:xlink="http://www.w3.org/1999/xlink" x="0px" y="0px"
	 viewBox="0 0 1119.7 807.9" enable-background="new 0 0 1119.7 807.9" xml:space="preserve">
<g id="Layer_1">
</g>
<g id="Layer_2">
	<g>
		
			<radialGradient id="SVGID_1_" cx="386.3875" cy="1083.7123" r="24.9181" gradientTransform="matrix(0.6018 -1.500000e-003 2.917328e-002 11.6009 -225.4522 -12168.3193)" gradientUnits="userSpaceOnUse">
			<stop  offset="5.376340e-003" style="stop-color:#231F20;stop-opacity:0.4"/>
			<stop  offset="1" style="stop-color:#231F20;stop-opacity:0"/>
		</radialGradient>
		<path fill="url(#SVGID_1_)" d="M54.4,403.1c0.4,163.7-6.3,296.5-15,296.5c-8.7,0-16-132.7-16.4-296.4
			c-0.4-163.7,6.3-296.5,15-296.5C46.6,106.7,54,239.4,54.4,403.1z"/>
		
			<radialGradient id="SVGID_2_" cx="1057.7627" cy="1084.5037" r="24.9181" gradientTransform="matrix(0.6018 -1.500000e-003 2.917328e-002 11.6009 -225.4727 -12176.4932)" gradientUnits="userSpaceOnUse">
			<stop  offset="5.376340e-003" style="stop-color:#231F20;stop-opacity:0.4"/>
			<stop  offset="1" style="stop-color:#231F20;stop-opacity:0"/>
		</radialGradient>
		<path fill="url(#SVGID_2_)" d="M458.4,403.1c0.4,163.7-6.3,296.5-14.9,296.5c-8.7,0-16-132.7-16.4-296.4
			c-0.4-163.7,6.3-296.5,15-296.5C450.7,106.7,458,239.4,458.4,403.1z"/>
		
			<radialGradient id="SVGID_3_" cx="-1277.7644" cy="1775.6852" r="24.9188" gradientTransform="matrix(-1.500000e-003 -0.6018 7.8595 -2.005663e-002 -13724.4443 -28.9051)" gradientUnits="userSpaceOnUse">
			<stop  offset="5.376340e-003" style="stop-color:#231F20;stop-opacity:0.4"/>
			<stop  offset="1" style="stop-color:#231F20;stop-opacity:0"/>
		</radialGradient>
		<path fill="url(#SVGID_3_)" d="M233.4,688.7c110.9-0.3,200.9,6.5,200.9,15.2c0,8.7-89.9,15.9-200.8,16.2
			c-110.9,0.3-200.9-6.5-200.9-15.2C32.5,696.3,122.4,689,233.4,688.7z"/>
		<g>
			<rect x="40.7" y="99.1" fill="#D1D3D4" width="399" height="606.3"/>
			<rect x="40.7" y="99.1" fill="#D1D3D4" width="399" height="606.3"/>
		</g>
		<rect x="50.7" y="113.4" fill="#00AEEF" stroke="#9D9D9C" stroke-miterlimit="10" width="377.8" height="573.7"/>
		<rect x="75.9" y="361.9" fill="none" width="320.5" height="37"/>
		<text transform="matrix(1 0 0 1 93.7039 392.9919)" font-family="'Candara-BoldItalic'" font-size="45">Antes del Corte</text>
	</g>
	<g>
		
			<radialGradient id="SVGID_4_" cx="1464.5699" cy="1087.879" r="24.9181" gradientTransform="matrix(0.6018 -1.500000e-003 2.917328e-002 11.6009 -225.5604 -12211.3564)" gradientUnits="userSpaceOnUse">
			<stop  offset="5.376340e-003" style="stop-color:#231F20;stop-opacity:0.4"/>
			<stop  offset="1" style="stop-color:#231F20;stop-opacity:0"/>
		</radialGradient>
		<path fill="url(#SVGID_4_)" d="M703.2,406.8c0.4,163.7-6.3,296.5-15,296.5c-8.7,0-16-132.7-16.4-296.4
			c-0.4-163.7,6.3-296.5,15-296.5C695.5,110.4,702.8,243.1,703.2,406.8z"/>
		
			<radialGradient id="SVGID_5_" cx="2094.4033" cy="1088.6216" r="24.9181" gradientTransform="matrix(0.6018 -1.500000e-003 2.917328e-002 11.6009 -225.5797 -12219.0244)" gradientUnits="userSpaceOnUse">
			<stop  offset="5.376340e-003" style="stop-color:#231F20;stop-opacity:0.4"/>
			<stop  offset="1" style="stop-color:#231F20;stop-opacity:0"/>
		</radialGradient>
		<path fill="url(#SVGID_5_)" d="M1082.3,406.8c0.4,163.7-6.3,296.5-14.9,296.5c-8.7,0-16-132.7-16.4-296.4
			c-0.4-163.7,6.3-296.5,15-296.5C1074.5,110.4,1081.9,243.1,1082.3,406.8z"/>
		
			<radialGradient id="SVGID_6_" cx="-1261.6718" cy="2516.7681" r="24.9188" gradientTransform="matrix(-1.500000e-003 -0.6018 7.8595 -2.005663e-002 -18910.0723 -15.6719)" gradientUnits="userSpaceOnUse">
			<stop  offset="5.376340e-003" style="stop-color:#231F20;stop-opacity:0.4"/>
			<stop  offset="1" style="stop-color:#231F20;stop-opacity:0"/>
		</radialGradient>
		<path fill="url(#SVGID_6_)" d="M872.2,677.4c110.9-0.3,200.9,6.5,200.9,15.2c0,8.7-89.9,15.9-200.8,16.2
			c-110.9,0.3-200.9-6.5-200.9-15.2C671.4,685,761.3,677.7,872.2,677.4z"/>
		<rect x="689.6" y="117.1" fill="#00AEEF" stroke="#9D9D9C" stroke-miterlimit="10" width="377.8" height="573.7"/>
		<rect x="708.7" y="365.6" fill="none" width="338.8" height="37"/>
		<text transform="matrix(1 0 0 1 711.4269 396.6769)" font-family="'Candara-BoldItalic'" font-size="45">Despues del Corte</text>
	</g>
	<g>
		<g>
			<line fill="none" stroke="#231F20" stroke-miterlimit="10" x1="441" y1="99.6" x2="442" y2="99.6"/>
			
				<line fill="none" stroke="#231F20" stroke-miterlimit="10" stroke-dasharray="1.9869,1.9869,1.9869,1.9869" x1="444" y1="99.6" x2="450.9" y2="99.6"/>
			
				<line fill="none" stroke="#231F20" stroke-miterlimit="10" stroke-dasharray="1.9869,1.9869,1.9869,1.9869,1.9869,1.9869" x1="451.9" y1="99.6" x2="701.3" y2="99.6"/>
			<line fill="none" stroke="#231F20" stroke-miterlimit="10" x1="702.3" y1="99.6" x2="703.3" y2="99.6"/>
		</g>
	</g>
	<g>
		<g>
			<line fill="none" stroke="#231F20" stroke-miterlimit="10" x1="439" y1="704.9" x2="440" y2="704.9"/>
			
				<line fill="none" stroke="#231F20" stroke-miterlimit="10" stroke-dasharray="2.0425,2.0425,2.0425,2.0425" x1="442" y1="704.9" x2="449.2" y2="704.9"/>
			
				<line fill="none" stroke="#231F20" stroke-miterlimit="10" stroke-dasharray="2.0425,2.0425,2.0425,2.0425,2.0425,2.0425" x1="450.2" y1="704.9" x2="694.3" y2="704.9"/>
			<line fill="none" stroke="#231F20" stroke-miterlimit="10" x1="695.3" y1="704.9" x2="696.3" y2="704.9"/>
		</g>
	</g>
	<g id="Flecha_33">
		<g>
			<polygon fill="#ED1C24" points="487.7,410 586.2,392.3 586.2,420.1 649.6,383.4 586.2,346.7 586.2,374.6 487.7,356.9 			"/>
		</g>
	</g>
	<rect x="356.3" y="30.9" fill="none" width="407" height="50"/>
	<text transform="matrix(1 0 0 1 382.3914 72.3483)" fill="#231F20" font-family="'Candara-BoldItalic'" font-size="60">Corte al borde</text>
</g>
</svg>
