<?xml version="1.0" encoding="utf-8"?>
<!-- Generator: Adobe Illustrator 18.0.0, SVG Export Plug-In . SVG Version: 6.00 Build 0)  -->
<!DOCTYPE svg PUBLIC "-//W3C//DTD SVG 1.0//EN" "http://www.w3.org/TR/2001/REC-SVG-20010904/DTD/svg10.dtd">
<svg version="1.0" id="Capa_1" xmlns="http://www.w3.org/2000/svg" xmlns:xlink="http://www.w3.org/1999/xlink" x="0px" y="0px"
	 viewBox="0 0 2822 586" enable-background="new 0 0 2822 586" xml:space="preserve">
<rect fill="#FFFFFF" width="2822" height="586"/>
<linearGradient id="SVGID_1_" gradientUnits="userSpaceOnUse" x1="1359.5524" y1="-180.9337" x2="1451.6615" y2="1191.6354">
	<stop  offset="0.2933" style="stop-color:#00642F"/>
	<stop  offset="0.5413" style="stop-color:#55A72A"/>
	<stop  offset="0.8055" style="stop-color:#24A12E"/>
	<stop  offset="1" style="stop-color:#009E30"/>
</linearGradient>
<path fill="url(#SVGID_1_)" d="M0,586c0,0,203.8-193.2,1009.9-193.6c171.6-0.1,491.1-8.4,819.1,30.1
	c351,41.2,628.1,66.3,993.1,163.5H0z"/>
<rect x="78.9" y="132" transform="matrix(0.97 -0.2432 0.2432 0.97 -75.094 61.5104)" fill="none" width="265.4" height="405.8"/>
<text transform="matrix(0.97 -0.2432 0.2432 0.97 124.5955 533.5247)" fill="#E2001A" font-family="'AreYouFreakinSerious'" font-size="500">I</text>
<rect x="1105.9" y="165.1" fill="none" width="187.1" height="338.3"/>
<text transform="matrix(1 0 0 1 1105.8994 389.7944)" font-family="'AreYouFreakinSerious'" font-size="300">a</text>
<rect x="1239.3" y="95.8" fill="none" width="195.6" height="327.7"/>
<text transform="matrix(1 0 0 1 1239.2715 395.4028)" fill="#E2001A" font-family="'AreYouFreakinSerious'" font-size="400">d</text>
<g>
	<g>
		<g>
			<path fill="none" stroke="#000000" stroke-width="4" d="M386.2,442.8c-0.1,0-0.1,0-0.2,0c-1.4,0.2-2.6-0.1-3.8-0.8
				c-1.1-0.7-1.9-1.7-2.2-3.1c-2-10.3-4.1-20.6-6.7-30.8c-2.3-9.1-4.7-17.2-7.1-24.3c-2.4-7.1-4.7-13.4-6.9-18.6
				c-2.2-5.3-4.2-9.7-6.1-13.2c-2.3-4.5-4.7-8.5-7.1-11.9c-2.4-3.4-4.7-6.2-6.9-8.4c-3.5-3.4-6.4-4.9-8.5-4.5
				c-0.7,0.2-1.6,0.7-2.6,1.6c-1,0.9-2,2.4-2.9,4.5c-0.9,2.1-1.8,4.9-2.6,8.2c-0.8,3.4-1.4,7.6-1.9,12.6c-1,12.7-0.5,25.5,0.7,38.1
				c1.6,16.5,4.1,33,6.9,49.5c0.2,1.3,0,2.4-0.7,3.4c-0.7,1-1.7,1.7-3.2,2.1c-1.3,0.3-2.6,0.2-3.7-0.4c-1.1-0.6-1.9-1.5-2.2-2.8
				c-5.2-16.1-11-32-17.6-47.5c-4.9-11.5-10.5-22.9-17.3-33.4c-5.1-7.5-9.7-13-13.9-16.3c-3-2.2-5.3-3-7-2.6
				c-1.1,0.3-2.2,1.2-3.1,2.6c-1,1.5-1.9,3.4-2.7,5.7c-2.2,6.2-3.3,14.5-3.3,24.9c0,13.2,1.3,26.5,3.4,39.4
				c2.5,15.6,6.1,31.2,10,46.6c0.4,1.2,0.2,2.4-0.5,3.5c-0.7,1.1-1.7,1.9-3.2,2.3c-1.3,0.4-2.6,0.2-3.7-0.4c-1.2-0.6-2-1.5-2.5-2.7
				c-12.8-39-25.9-77.8-39.3-116.6c-0.4-1.4-0.3-2.6,0.3-3.7c0.6-1.1,1.7-1.9,3.2-2.5c1.5-0.4,2.9-0.4,4.2,0.2
				c1.3,0.5,2.1,1.5,2.5,2.8c5.2,15.2,10.4,30.4,15.5,45.6c-0.2-2.6-0.4-5.1-0.5-7.5c-0.1-2.4-0.2-4.7-0.1-7
				c0.1-9.3,1-18.7,3.7-27.7c2.9-8.1,7.4-13.2,13.1-14.8c5.5-1.5,11.4,0.1,16.9,4.5c5.3,4.1,10.7,10.3,16.1,18.6
				c2.9,4.7,5.9,10.1,9,16.1c3.1,6,6.2,12.6,9.3,20c-0.6-7.8-1.1-15.1-1.3-21.8c-0.2-6.7-0.1-12.9,0.3-18.6c0.4-5.1,1.1-9.7,2-13.7
				c1-4,2.1-7.5,3.4-10.4c2.9-6.8,7.4-10.8,13.3-11.8c5.8-1,11.9,1.5,18.1,7.3c2.7,2.6,5.4,5.8,8,9.6c2.6,3.8,5.2,8.2,7.8,13.2
				c6.4,12.5,11.1,25.7,15.2,39c5.1,16.4,8.8,33.5,12,50.5c0.3,1.4,0.1,2.6-0.6,3.6C388.8,441.8,387.7,442.4,386.2,442.8z"/>
			<path fill="none" stroke="#000000" stroke-width="4" d="M467.9,357.4c2,8.3,2.6,16.4,2.1,24.2c-0.6,7.8-2.3,15.1-5.2,21.9
				c-4.1,9.3-10.6,17.5-19.1,23.2c-5.9,4-12.8,6.7-20.7,8.3c-1.7,0.3-3.5,0.6-5.4,0.9c-1.8,0.2-3.7,0.4-5.7,0.5
				c1.7,7.3,3.4,14.6,5,21.8c1.6,7.3,3.2,14.7,5,22.2c0.3,1.4,0.1,2.6-0.7,3.7c-0.7,1.1-1.8,1.7-3.3,2c-1.4,0.3-2.7,0.1-3.8-0.6
				c-1.1-0.7-1.8-1.7-2.1-3.1c-3.4-15.1-6.9-30.2-10.4-45.3c-3.4-14.8-6.9-29.6-10.4-44.3c-3.2-13.4-6.5-26.8-9.7-40.2
				c-3.2-13.3-6.5-26.6-9.8-39.8c-0.3-1.4-0.1-2.6,0.7-3.7c0.8-1.1,1.9-1.8,3.5-2.1c1.8-0.4,3.5,0,4.9,1.2c11-3.5,20.9-5.9,32.4-4.4
				c10.5,1.4,20.6,5.8,28.6,12.9c5.9,5,10.9,11,14.9,17.9C462.9,341.4,465.9,349.1,467.9,357.4z M455.2,400.2
				c2.6-6.1,4-12.7,4.4-19.8c0.3-7.1-0.3-14.1-1.9-21c-1.6-6.9-4.2-13.5-7.8-19.8c-3.6-6.3-7.9-11.6-13.1-16c-2.5-2-5.4-4-8.9-5.9
				c-3.4-1.9-7.2-3.2-11.4-4.1c-4.2-0.9-8.8-1.1-13.9-0.7c-5.1,0.4-10.6,1.9-16.5,4.4c3,12.1,6,24.3,8.8,36.5
				c2.9,12.2,5.7,24.5,8.7,36.7c1.5,6,2.9,12.1,4.3,18.1c1.4,6,2.7,12.1,4.1,18.1c6.7-0.2,12.5-1.1,17.3-2.7c4.8-1.7,9-3.8,12.4-6.3
				c3.4-2.5,6.2-5.4,8.4-8.4C452,406.2,453.8,403.2,455.2,400.2z"/>
			<path fill="none" stroke="#000000" stroke-width="4" d="M498.5,422.6c-1.4,0.2-2.6,0-3.7-0.8c-1.1-0.7-1.7-1.8-2-3
				c-0.2-0.8-0.5-1.7-0.7-2.4c-0.1-0.8-0.4-1.5-0.6-2.3c-9.1-38.8-18.6-77.6-28.4-116.3c-0.4-1.4-0.2-2.6,0.6-3.7
				c0.8-1.1,1.9-1.8,3.3-2c1.5-0.4,2.9-0.2,4.2,0.5c1.3,0.7,2,1.8,2.3,3.2c3.2,12.7,6.4,25.4,9.6,38.1c0-1.3,0.1-2.4,0.2-3.4
				c0.2-4.8,0.7-9.6,1.5-14.6c0.8-5,1.9-9.6,3.4-14c1.5-4.4,3.4-8.1,5.8-11.2c2.4-3.1,5.4-5.2,9.1-6.1c1.4-0.3,3.1-0.5,5.1-0.5
				c2,0,4.3,0.7,6.9,2c3.4,1.8,6.9,4.8,10.4,8.8c9.2,11.1,15.3,24.8,20.5,38.2c0.5,1.2,0.5,2.5-0.1,3.6c-0.6,1.2-1.6,2-3.1,2.5
				c-1.4,0.4-2.7,0.4-4-0.1c-1.3-0.5-2.2-1.5-2.8-2.8c-3.3-8.1-6.5-15.2-9.6-21.1c-3.1-5.9-6.3-10.8-9.4-14.5
				c-2.1-2.6-4.1-4.5-6-5.7c-1.9-1.2-3.5-1.6-4.7-1.1c-0.4,0.1-1.3,0.7-2.7,1.9c-1.4,1.2-2.9,3.8-4.6,7.9c-1.3,3.3-2.3,7.3-3.2,12
				c-0.9,4.6-1.5,9.8-1.8,15.5c-0.7,12.9-0.2,25.9,1,38.7c1.3,14.3,3.6,28.5,6.8,42.5c0.4,1.7,0.6,2.6,1,4.3
				c0.4,1.4,0.2,2.6-0.6,3.7c-0.8,1.1-1.8,1.8-3.2,2C498.8,422.4,498.6,422.5,498.5,422.6z"/>
			<path fill="none" stroke="#000000" stroke-width="4" d="M609,406.6c-0.5,0.1-1.1,0.1-1.6,0.1c-0.5,0-1,0-1.6,0.1
				c-5.6,0.1-11-0.9-16.3-3.2c-5.3-2.3-10.1-5.6-14.4-10c-2.5-2.3-4.7-4.9-6.8-7.9c-2.1-3-4-6.3-5.7-9.8c-1.8-3.8-3.3-7.9-4.8-12.3
				c-1.4-4.4-2.6-9-3.6-13.8c-1.6-7.6-2.2-15.1-2.1-22.5c0.2-7.4,1.3-14.4,3.2-21.1c1.7-6.1,4.1-11.6,7.1-16.4
				c3-4.8,6.6-8.7,10.6-11.7c3.9-2.9,8.1-4.8,12.6-5.5c4.4-0.7,8.8-0.4,13.2,1.1c9,3.5,16.1,10.7,20.6,19.2
				c7.1,13,10.2,27,12.9,41.3c0.2,1.4-0.1,2.6-0.9,3.6c-0.8,1-2,1.6-3.5,1.9c-21.1,3.1-42.1,6.4-63.1,9.9
				c2.7,13.6,7.9,27.5,17.8,37.5c3.3,3.4,6.9,5.9,10.8,7.6c3.9,1.7,7.9,2.4,11.9,2.3c5.9-0.3,11.1-2.1,15.3-5.8
				c4.2-3.7,6.6-8.4,7.1-14c0.1-1.3,0.7-2.4,1.8-3.2c1.1-0.8,2.4-1.2,3.8-1.1c1.6,0.1,2.8,0.7,3.6,1.7c0.8,1,1.2,2.2,1.1,3.7
				c-0.3,3.9-1.4,7.6-3.2,11.1c-1.8,3.5-4.3,6.5-7.4,9.1C622.3,403.1,616.1,405.8,609,406.6z M588.6,282.2c-2.9,0.3-5.7,1.5-8.5,3.4
				c-2.6,1.8-5.1,4.5-7.5,8c-2.4,3.4-4.3,7.5-5.9,12.2c-1.6,4.7-2.6,10-3.3,15.8c-0.6,5.8-0.5,12.1,0.3,18.7
				c19.1-3.3,38.2-6.3,57.4-9.3c-1.9-11.7-5.3-23.3-11.2-33.7c-4.5-7.7-9.5-12.5-14.9-14.5C592.9,282.1,590.7,281.9,588.6,282.2z"/>
			<path fill="none" stroke="#000000" stroke-width="4" d="M682.1,399.2c-4,0.3-7.9,0.1-11.8-0.7c-3.9-0.8-7.4-2.2-10.7-4.1
				c-7.6-4.3-12.1-10.5-13.5-18.7c-0.3-1.4,0-2.6,0.8-3.6c0.9-1,2.1-1.6,3.6-1.7c1.5-0.3,2.8,0,3.9,0.8c1.1,0.8,1.8,1.9,2.1,3.3
				c0.3,2.8,1.3,5.2,3,7.2c1.6,2,3.6,3.6,6,4.9c2.3,1.3,4.8,2.1,7.6,2.6c2.7,0.5,5.4,0.6,8,0.4c0.2,0,0.2,0,0.4,0
				c2.8-0.2,5.5-0.9,8.1-2c2.6-1.1,4.9-2.7,7-4.7c2-2,3.5-4.6,4.6-7.7c1-3.1,1.3-6.9,0.8-11.2c-0.4-3.3-1.3-6.3-2.8-9
				c-1.5-2.7-3.4-5.1-5.6-7.4c-2.2-2.3-4.8-4.4-7.8-6.4c-2.9-2-6-4-9.3-6c-4-2.5-8-5.1-11.9-7.9c-3.9-2.8-7.5-5.9-10.7-9.4
				c-3.2-3.5-5.7-7.6-7.5-12.1c-1.8-4.6-2.5-10-2.1-16.3c0.6-7.7,3.3-13.9,8.3-18.5c4.8-4.5,10.7-6.7,17.6-6.7
				c3.5,0.1,7.1,0.8,10.7,2.2c3.6,1.4,7,3.5,10,6.4c3,2.9,5.7,6.5,7.8,10.9c2.2,4.4,3.5,9.5,4,15.4c0,1.4-0.4,2.6-1.3,3.6
				c-0.9,1-2.2,1.5-3.7,1.5c-1.6,0.1-2.9-0.2-4-1c-1.1-0.8-1.7-1.9-1.7-3.4c-0.5-4.4-1.5-8.2-2.9-11.4c-1.4-3.3-3.1-6-5.1-8.1
				c-2-2.2-4.2-3.7-6.6-4.7c-2.4-1-4.8-1.5-7.1-1.5c-4.3,0-7.7,1.4-10.4,4.3c-2.7,2.9-4.4,6.9-4.8,11.8c-0.4,4.8,0.1,9,1.5,12.6
				c1.4,3.6,3.4,6.8,5.9,9.6c2.5,2.8,5.5,5.4,9,7.8c3.4,2.4,7.1,4.7,11,7.1c3.4,2,6.8,4.2,10.1,6.5c3.3,2.3,6.4,4.8,9.1,7.5
				c6.4,6.6,10,14,10.8,21.9c1.1,10.7-1.6,19.3-7.9,25.9c-2.6,2.9-5.8,5.2-9.5,7c-3.7,1.7-7.8,2.8-12.2,3.2c-0.1,0-0.2,0.1-0.3,0.1
				C682.3,399.1,682.2,399.2,682.1,399.2z"/>
			<path fill="none" stroke="#000000" stroke-width="4" d="M717.2,261c2.5-0.2,4.8,0.5,6.8,1.9c2.1,1.4,3.2,3.2,3.4,5.4
				c0.2,2.2-0.5,4.1-2.3,5.8c-1.7,1.7-3.8,2.6-6.3,2.8c-2.6,0.2-4.9-0.4-6.9-1.9c-2-1.4-3.1-3.2-3.3-5.4c-0.2-2.2,0.5-4.1,2.1-5.8
				C712.4,262.1,714.5,261.1,717.2,261z M716,305c-0.3-1.4,0-2.6,0.8-3.6c0.8-1,2-1.6,3.6-1.8c1.6-0.2,2.9,0.1,4.1,0.9
				c1.2,0.8,1.8,1.9,2,3.2c2.4,14.9,4.6,29.9,6.5,44.8c1.7,13.8,2.4,27.9,1.8,41.8c-0.2,2.9-1.8,4.4-4.8,4.6c-0.2,0-0.4,0-0.6,0
				c-1.4-0.2-2.6-0.7-3.6-1.6c-1-0.9-1.5-2.1-1.5-3.5c0.5-13.6-0.3-27.3-1.9-40.8C720.5,334.3,718.4,319.6,716,305z"/>
			<path fill="none" stroke="#000000" stroke-width="4" d="M790.3,392c-0.7,0-1.4,0.1-2.2,0.1c-0.8,0-1.5,0-2.2-0.1
				c-14.7-1.1-26.9-10-34-22.7c-3.3-5.6-5.9-12.1-7.8-19.5c-1.9-7.4-2.8-15.4-2.9-23.7c-0.1-8.2,0.4-16.4,1.9-24.3
				c1.5-7.9,3.7-15.1,6.8-21.5c3.3-6.8,7.3-12.2,12.1-16.2c5.6-4.9,12.1-7.5,19.4-7.5c6.9,0,13.2,2,18.7,6.1
				c5.5,4.1,10.2,9.6,14.1,16.5c3.8,6.9,6.9,14.6,9.1,23.2c2.2,8.6,3.5,17.3,3.9,26.1c0.4,8.1-0.1,15.8-1.3,23
				c-1.2,7.2-3.2,13.6-5.8,19.1C814.6,382.7,804,391.6,790.3,392z M781.4,266.3c-2.8,0.1-5.3,0.8-7.6,2.1c-2.3,1.3-4.4,2.8-6.2,4.7
				c-1.8,1.8-3.4,3.8-4.6,5.9c-1.3,2.1-2.3,3.9-3,5.5c-2.8,5.6-4.9,12-6.3,19.2c-1.4,7.2-2.1,14.7-1.9,22.4
				c0.2,7.6,1.2,14.8,2.8,21.4c1.6,6.6,3.9,12.5,6.7,17.5c5.1,9.6,14.1,16.8,25.2,17.4c0.7,0.1,1.8,0.1,3.2,0.1
				c9.1-0.4,16.1-5.6,20.9-15.7c2.2-4.9,3.9-10.5,4.9-17c1-6.5,1.3-13.5,1-20.8c-0.3-8.1-1.3-16-3.3-23.7c-2-7.6-4.6-14.5-8-20.6
				c-1-1.6-2.2-3.5-3.7-5.7c-1.5-2.1-3.2-4.2-5.2-6c-2-1.9-4.2-3.4-6.6-4.7c-2.4-1.3-5.1-1.9-7.9-1.9
				C781.6,266.3,781.6,266.3,781.4,266.3z"/>
			<path fill="none" stroke="#000000" stroke-width="4" d="M850.7,390.4c-1.4,0-2.6-0.4-3.6-1.3c-1-0.9-1.6-2-1.8-3.3
				c-3.5-42-7.4-83.9-11.6-125.8c-0.1-1.4,0.3-2.6,1.3-3.5c1-0.9,2.3-1.5,3.9-1.6c1.5,0,2.8,0.4,4,1.3c1.2,0.9,1.8,2,1.9,3.3
				c1.9,19.3,3.7,38.6,5.5,57.9c1.2-8.2,2.4-15.5,3.8-22.1c1.4-6.5,3-12.3,4.8-17.2c2.4-6.4,5.2-11.6,8.4-15.6c4-4.8,8.7-7.3,14-7.3
				c5.5,0,10.5,2.4,14.9,7.1c3.2,3.5,6.4,8.7,9.4,15.5c2.4,5.4,4.6,11.8,6.6,19c2,7.3,3.9,15.5,5.7,24.9c1.5,7.8,2.7,15.4,3.7,22.9
				c1,7.5,1.7,14.2,2.2,20.1c0.5,5.9,1.1,12.5,1.6,19.7c0.2,1.4-0.2,2.6-1.2,3.6c-1,1-2.2,1.4-3.8,1.4c-1.5,0.1-2.8-0.3-3.8-1.2
				c-1-0.9-1.6-2.1-1.8-3.5c-0.6-7.2-1.1-13.8-1.7-19.6c-0.6-5.8-1.3-12.4-2.3-19.8c-1-7.4-2.2-14.9-3.8-22.5
				c-3-14.2-6.1-28.3-11.7-41.7c-2.3-5.2-4.6-9.2-7-12c-2.4-2.8-4.6-4.3-6.7-4.2c-2.1,0-4.2,1.5-6.3,4.4c-2.1,2.9-4.2,7-6.1,12.2
				c-4.7,13.7-7.1,28.1-9,42.2c-1,7.5-1.7,15.2-2.3,22.6c-0.6,7.4-1,14.1-1.3,19.9c-0.3,5.8-0.6,12.3-0.8,19.6
				c-0.1,1.4-0.6,2.6-1.5,3.4C853.3,389.9,852.1,390.4,850.7,390.4z"/>
			<path fill="none" stroke="#000000" stroke-width="4" d="M980.1,391.5c-0.6,0-1.1-0.1-1.6-0.2c-0.5-0.1-1-0.1-1.6-0.2
				c-5.6-0.7-11-2.6-16-5.6c-5-3-9.4-7.1-13.1-12.1c-2.2-2.6-4.1-5.6-5.7-8.8c-1.7-3.3-3.2-6.8-4.3-10.5c-1.2-4-2.2-8.3-3-12.8
				c-0.8-4.5-1.3-9.3-1.6-14.2c-0.5-7.8,0-15.3,1.2-22.6c1.3-7.3,3.4-14.1,6.3-20.4c2.7-5.7,5.8-10.8,9.6-15.1
				c3.7-4.3,7.9-7.6,12.4-10c4.4-2.3,8.9-3.5,13.5-3.6c4.6,0,9,1,13.2,3.1c8.6,4.8,14.7,13,18.1,22.1c5.3,13.9,6.3,28.2,7,42.8
				c0,1.4-0.5,2.6-1.4,3.4c-1,0.9-2.2,1.3-3.8,1.4c-21.8-0.2-43.5-0.1-65.3,0.2c0.7,14,4,28.5,12.5,39.8c2.9,3.8,6.1,6.9,9.8,9.2
				c3.7,2.3,7.6,3.6,11.7,4.1c6,0.7,11.5-0.4,16.3-3.5c4.8-3,7.9-7.3,9.2-12.8c0.3-1.3,1.1-2.2,2.3-2.9c1.2-0.7,2.6-0.8,4-0.5
				c1.6,0.3,2.7,1.1,3.4,2.2c0.7,1.1,0.9,2.4,0.6,3.8c-0.9,3.8-2.5,7.3-4.9,10.5c-2.3,3.2-5.3,5.8-8.8,7.8
				C994.1,390.1,987.4,391.8,980.1,391.5z M977.7,265.4c-3-0.1-6,0.6-9.1,2.1c-2.9,1.4-5.9,3.7-8.7,6.7c-2.9,3-5.5,6.8-7.7,11.2
				c-2.3,4.4-4.1,9.4-5.6,15.1c-1.5,5.7-2.3,11.8-2.5,18.6c19.8-0.4,39.6-0.5,59.4-0.5c-0.3-11.9-1.9-23.9-6.3-35
				c-3.4-8.3-7.7-13.8-12.9-16.6C982.1,266,979.9,265.5,977.7,265.4z"/>
			<path fill="none" stroke="#000000" stroke-width="4" d="M1055.2,395.3c-4.1-0.3-8.1-1.1-11.9-2.5c-3.8-1.4-7.2-3.3-10.3-5.7
				c-7.1-5.4-10.8-12.3-10.9-20.6c-0.1-1.4,0.3-2.6,1.4-3.4c1-0.9,2.3-1.2,3.9-1.2c1.6,0,2.9,0.4,3.8,1.4c1,1,1.5,2.2,1.6,3.6
				c-0.1,2.8,0.6,5.4,2,7.6c1.4,2.2,3.1,4.1,5.3,5.7c2.2,1.6,4.6,2.9,7.3,3.7c2.7,0.9,5.4,1.4,8.1,1.6c0.2,0,0.3,0,0.4,0
				c2.8,0.2,5.7-0.1,8.5-0.8c2.8-0.7,5.4-1.9,7.7-3.6c2.4-1.7,4.3-4,5.8-7c1.5-2.9,2.3-6.6,2.5-11c0.1-3.4-0.4-6.5-1.5-9.3
				c-1.1-2.9-2.7-5.6-4.6-8.2c-1.9-2.6-4.3-5.1-6.9-7.5c-2.7-2.4-5.5-4.8-8.5-7.4c-3.7-3.1-7.3-6.3-10.9-9.6
				c-3.6-3.3-6.7-7-9.4-10.9c-2.7-4-4.7-8.4-5.9-13.1c-1.2-4.8-1.1-10.3,0.3-16.4c1.7-7.5,5.4-13.3,11.1-17.1
				c5.5-3.7,11.8-5,18.8-3.9c3.6,0.6,7.1,1.9,10.6,3.8c3.5,1.9,6.5,4.5,9.2,7.8c2.7,3.3,4.8,7.3,6.4,11.9c1.6,4.7,2.2,10,1.8,15.9
				c-0.2,1.4-0.8,2.5-1.9,3.4c-1.1,0.8-2.4,1.1-4,0.9c-1.6-0.1-2.9-0.7-3.9-1.7c-1-1-1.4-2.2-1.2-3.6c0.1-4.4-0.3-8.3-1.2-11.8
				c-0.9-3.4-2.3-6.4-4-8.8c-1.7-2.5-3.7-4.3-6-5.7c-2.3-1.3-4.6-2.2-7-2.6c-4.3-0.7-8,0.2-11.2,2.7c-3.2,2.5-5.4,6.2-6.6,11
				c-1.1,4.7-1.2,9-0.3,12.7c0.9,3.7,2.4,7.2,4.6,10.4c2.1,3.2,4.8,6.2,7.9,9c3.1,2.9,6.5,5.8,10.1,8.7c3.1,2.5,6.2,5.2,9.3,7.9
				c3,2.7,5.7,5.7,8.1,8.9c5.5,7.5,8.1,15.3,7.8,23.4c-0.2,9.5-4.2,18.6-11.8,24.4c-3.1,2.5-6.7,4.3-10.7,5.4
				c-4,1.1-8.3,1.6-12.9,1.3c-0.1,0-0.3,0-0.3,0.1C1055.5,395.3,1055.4,395.3,1055.2,395.3z"/>
		</g>
	</g>
	<g>
		<g>
			<path d="M386.2,442.8c-0.1,0-0.1,0-0.2,0c-1.4,0.2-2.6-0.1-3.8-0.8c-1.1-0.7-1.9-1.7-2.2-3.1c-2-10.3-4.1-20.6-6.7-30.8
				c-2.3-9.1-4.7-17.2-7.1-24.3c-2.4-7.1-4.7-13.4-6.9-18.6c-2.2-5.3-4.2-9.7-6.1-13.2c-2.3-4.5-4.7-8.5-7.1-11.9
				c-2.4-3.4-4.7-6.2-6.9-8.4c-3.5-3.4-6.4-4.9-8.5-4.5c-0.7,0.2-1.6,0.7-2.6,1.6c-1,0.9-2,2.4-2.9,4.5c-0.9,2.1-1.8,4.9-2.6,8.2
				c-0.8,3.4-1.4,7.6-1.9,12.6c-1,12.7-0.5,25.5,0.7,38.1c1.6,16.5,4.1,33,6.9,49.5c0.2,1.3,0,2.4-0.7,3.4c-0.7,1-1.7,1.7-3.2,2.1
				c-1.3,0.3-2.6,0.2-3.7-0.4c-1.1-0.6-1.9-1.5-2.2-2.8c-5.2-16.1-11-32-17.6-47.5c-4.9-11.5-10.5-22.9-17.3-33.4
				c-5.1-7.5-9.7-13-13.9-16.3c-3-2.2-5.3-3-7-2.6c-1.1,0.3-2.2,1.2-3.1,2.6c-1,1.5-1.9,3.4-2.7,5.7c-2.2,6.2-3.3,14.5-3.3,24.9
				c0,13.2,1.3,26.5,3.4,39.4c2.5,15.6,6.1,31.2,10,46.6c0.4,1.2,0.2,2.4-0.5,3.5c-0.7,1.1-1.7,1.9-3.2,2.3
				c-1.3,0.4-2.6,0.2-3.7-0.4c-1.2-0.6-2-1.5-2.5-2.7c-12.8-39-25.9-77.8-39.3-116.6c-0.4-1.4-0.3-2.6,0.3-3.7
				c0.6-1.1,1.7-1.9,3.2-2.5c1.5-0.4,2.9-0.4,4.2,0.2c1.3,0.5,2.1,1.5,2.5,2.8c5.2,15.2,10.4,30.4,15.5,45.6
				c-0.2-2.6-0.4-5.1-0.5-7.5c-0.1-2.4-0.2-4.7-0.1-7c0.1-9.3,1-18.7,3.7-27.7c2.9-8.1,7.4-13.2,13.1-14.8
				c5.5-1.5,11.4,0.1,16.9,4.5c5.3,4.1,10.7,10.3,16.1,18.6c2.9,4.7,5.9,10.1,9,16.1c3.1,6,6.2,12.6,9.3,20
				c-0.6-7.8-1.1-15.1-1.3-21.8c-0.2-6.7-0.1-12.9,0.3-18.6c0.4-5.1,1.1-9.7,2-13.7c1-4,2.1-7.5,3.4-10.4
				c2.9-6.8,7.4-10.8,13.3-11.8c5.8-1,11.9,1.5,18.1,7.3c2.7,2.6,5.4,5.8,8,9.6c2.6,3.8,5.2,8.2,7.8,13.2
				c6.4,12.5,11.1,25.7,15.2,39c5.1,16.4,8.8,33.5,12,50.5c0.3,1.4,0.1,2.6-0.6,3.6C388.8,441.8,387.7,442.4,386.2,442.8z"/>
			<path d="M467.9,357.4c2,8.3,2.6,16.4,2.1,24.2c-0.6,7.8-2.3,15.1-5.2,21.9c-4.1,9.3-10.6,17.5-19.1,23.2
				c-5.9,4-12.8,6.7-20.7,8.3c-1.7,0.3-3.5,0.6-5.4,0.9c-1.8,0.2-3.7,0.4-5.7,0.5c1.7,7.3,3.4,14.6,5,21.8c1.6,7.3,3.2,14.7,5,22.2
				c0.3,1.4,0.1,2.6-0.7,3.7c-0.7,1.1-1.8,1.7-3.3,2c-1.4,0.3-2.7,0.1-3.8-0.6c-1.1-0.7-1.8-1.7-2.1-3.1
				c-3.4-15.1-6.9-30.2-10.4-45.3c-3.4-14.8-6.9-29.6-10.4-44.3c-3.2-13.4-6.5-26.8-9.7-40.2c-3.2-13.3-6.5-26.6-9.8-39.8
				c-0.3-1.4-0.1-2.6,0.7-3.7c0.8-1.1,1.9-1.8,3.5-2.1c1.8-0.4,3.5,0,4.9,1.2c11-3.5,20.9-5.9,32.4-4.4c10.5,1.4,20.6,5.8,28.6,12.9
				c5.9,5,10.9,11,14.9,17.9C462.9,341.4,465.9,349.1,467.9,357.4z M455.2,400.2c2.6-6.1,4-12.7,4.4-19.8c0.3-7.1-0.3-14.1-1.9-21
				c-1.6-6.9-4.2-13.5-7.8-19.8c-3.6-6.3-7.9-11.6-13.1-16c-2.5-2-5.4-4-8.9-5.9c-3.4-1.9-7.2-3.2-11.4-4.1
				c-4.2-0.9-8.8-1.1-13.9-0.7c-5.1,0.4-10.6,1.9-16.5,4.4c3,12.1,6,24.3,8.8,36.5c2.9,12.2,5.7,24.5,8.7,36.7
				c1.5,6,2.9,12.1,4.3,18.1c1.4,6,2.7,12.1,4.1,18.1c6.7-0.2,12.5-1.1,17.3-2.7c4.8-1.7,9-3.8,12.4-6.3c3.4-2.5,6.2-5.4,8.4-8.4
				C452,406.2,453.8,403.2,455.2,400.2z"/>
			<path d="M498.5,422.6c-1.4,0.2-2.6,0-3.7-0.8c-1.1-0.7-1.7-1.8-2-3c-0.2-0.8-0.5-1.7-0.7-2.4c-0.1-0.8-0.4-1.5-0.6-2.3
				c-9.1-38.8-18.6-77.6-28.4-116.3c-0.4-1.4-0.2-2.6,0.6-3.7c0.8-1.1,1.9-1.8,3.3-2c1.5-0.4,2.9-0.2,4.2,0.5c1.3,0.7,2,1.8,2.3,3.2
				c3.2,12.7,6.4,25.4,9.6,38.1c0-1.3,0.1-2.4,0.2-3.4c0.2-4.8,0.7-9.6,1.5-14.6c0.8-5,1.9-9.6,3.4-14c1.5-4.4,3.4-8.1,5.8-11.2
				c2.4-3.1,5.4-5.2,9.1-6.1c1.4-0.3,3.1-0.5,5.1-0.5c2,0,4.3,0.7,6.9,2c3.4,1.8,6.9,4.8,10.4,8.8c9.2,11.1,15.3,24.8,20.5,38.2
				c0.5,1.2,0.5,2.5-0.1,3.6c-0.6,1.2-1.6,2-3.1,2.5c-1.4,0.4-2.7,0.4-4-0.1c-1.3-0.5-2.2-1.5-2.8-2.8c-3.3-8.1-6.5-15.2-9.6-21.1
				c-3.1-5.9-6.3-10.8-9.4-14.5c-2.1-2.6-4.1-4.5-6-5.7c-1.9-1.2-3.5-1.6-4.7-1.1c-0.4,0.1-1.3,0.7-2.7,1.9
				c-1.4,1.2-2.9,3.8-4.6,7.9c-1.3,3.3-2.3,7.3-3.2,12c-0.9,4.6-1.5,9.8-1.8,15.5c-0.7,12.9-0.2,25.9,1,38.7
				c1.3,14.3,3.6,28.5,6.8,42.5c0.4,1.7,0.6,2.6,1,4.3c0.4,1.4,0.2,2.6-0.6,3.7c-0.8,1.1-1.8,1.8-3.2,2
				C498.8,422.4,498.6,422.5,498.5,422.6z"/>
			<path d="M609,406.6c-0.5,0.1-1.1,0.1-1.6,0.1c-0.5,0-1,0-1.6,0.1c-5.6,0.1-11-0.9-16.3-3.2c-5.3-2.3-10.1-5.6-14.4-10
				c-2.5-2.3-4.7-4.9-6.8-7.9c-2.1-3-4-6.3-5.7-9.8c-1.8-3.8-3.3-7.9-4.8-12.3c-1.4-4.4-2.6-9-3.6-13.8c-1.6-7.6-2.2-15.1-2.1-22.5
				c0.2-7.4,1.3-14.4,3.2-21.1c1.7-6.1,4.1-11.6,7.1-16.4c3-4.8,6.6-8.7,10.6-11.7c3.9-2.9,8.1-4.8,12.6-5.5
				c4.4-0.7,8.8-0.4,13.2,1.1c9,3.5,16.1,10.7,20.6,19.2c7.1,13,10.2,27,12.9,41.3c0.2,1.4-0.1,2.6-0.9,3.6c-0.8,1-2,1.6-3.5,1.9
				c-21.1,3.1-42.1,6.4-63.1,9.9c2.7,13.6,7.9,27.5,17.8,37.5c3.3,3.4,6.9,5.9,10.8,7.6c3.9,1.7,7.9,2.4,11.9,2.3
				c5.9-0.3,11.1-2.1,15.3-5.8c4.2-3.7,6.6-8.4,7.1-14c0.1-1.3,0.7-2.4,1.8-3.2c1.1-0.8,2.4-1.2,3.8-1.1c1.6,0.1,2.8,0.7,3.6,1.7
				c0.8,1,1.2,2.2,1.1,3.7c-0.3,3.9-1.4,7.6-3.2,11.1c-1.8,3.5-4.3,6.5-7.4,9.1C622.3,403.1,616.1,405.8,609,406.6z M588.6,282.2
				c-2.9,0.3-5.7,1.5-8.5,3.4c-2.6,1.8-5.1,4.5-7.5,8c-2.4,3.4-4.3,7.5-5.9,12.2c-1.6,4.7-2.6,10-3.3,15.8
				c-0.6,5.8-0.5,12.1,0.3,18.7c19.1-3.3,38.2-6.3,57.4-9.3c-1.9-11.7-5.3-23.3-11.2-33.7c-4.5-7.7-9.5-12.5-14.9-14.5
				C592.9,282.1,590.7,281.9,588.6,282.2z"/>
			<path d="M682.1,399.2c-4,0.3-7.9,0.1-11.8-0.7c-3.9-0.8-7.4-2.2-10.7-4.1c-7.6-4.3-12.1-10.5-13.5-18.7c-0.3-1.4,0-2.6,0.8-3.6
				c0.9-1,2.1-1.6,3.6-1.7c1.5-0.3,2.8,0,3.9,0.8c1.1,0.8,1.8,1.9,2.1,3.3c0.3,2.8,1.3,5.2,3,7.2c1.6,2,3.6,3.6,6,4.9
				c2.3,1.3,4.8,2.1,7.6,2.6c2.7,0.5,5.4,0.6,8,0.4c0.2,0,0.2,0,0.4,0c2.8-0.2,5.5-0.9,8.1-2c2.6-1.1,4.9-2.7,7-4.7
				c2-2,3.5-4.6,4.6-7.7c1-3.1,1.3-6.9,0.8-11.2c-0.4-3.3-1.3-6.3-2.8-9c-1.5-2.7-3.4-5.1-5.6-7.4c-2.2-2.3-4.8-4.4-7.8-6.4
				c-2.9-2-6-4-9.3-6c-4-2.5-8-5.1-11.9-7.9c-3.9-2.8-7.5-5.9-10.7-9.4c-3.2-3.5-5.7-7.6-7.5-12.1c-1.8-4.6-2.5-10-2.1-16.3
				c0.6-7.7,3.3-13.9,8.3-18.5c4.8-4.5,10.7-6.7,17.6-6.7c3.5,0.1,7.1,0.8,10.7,2.2c3.6,1.4,7,3.5,10,6.4c3,2.9,5.7,6.5,7.8,10.9
				c2.2,4.4,3.5,9.5,4,15.4c0,1.4-0.4,2.6-1.3,3.6c-0.9,1-2.2,1.5-3.7,1.5c-1.6,0.1-2.9-0.2-4-1c-1.1-0.8-1.7-1.9-1.7-3.4
				c-0.5-4.4-1.5-8.2-2.9-11.4c-1.4-3.3-3.1-6-5.1-8.1c-2-2.2-4.2-3.7-6.6-4.7c-2.4-1-4.8-1.5-7.1-1.5c-4.3,0-7.7,1.4-10.4,4.3
				c-2.7,2.9-4.4,6.9-4.8,11.8c-0.4,4.8,0.1,9,1.5,12.6c1.4,3.6,3.4,6.8,5.9,9.6c2.5,2.8,5.5,5.4,9,7.8c3.4,2.4,7.1,4.7,11,7.1
				c3.4,2,6.8,4.2,10.1,6.5c3.3,2.3,6.4,4.8,9.1,7.5c6.4,6.6,10,14,10.8,21.9c1.1,10.7-1.6,19.3-7.9,25.9c-2.6,2.9-5.8,5.2-9.5,7
				c-3.7,1.7-7.8,2.8-12.2,3.2c-0.1,0-0.2,0.1-0.3,0.1C682.3,399.1,682.2,399.2,682.1,399.2z"/>
			<path d="M717.2,261c2.5-0.2,4.8,0.5,6.8,1.9c2.1,1.4,3.2,3.2,3.4,5.4c0.2,2.2-0.5,4.1-2.3,5.8c-1.7,1.7-3.8,2.6-6.3,2.8
				c-2.6,0.2-4.9-0.4-6.9-1.9c-2-1.4-3.1-3.2-3.3-5.4c-0.2-2.2,0.5-4.1,2.1-5.8C712.4,262.1,714.5,261.1,717.2,261z M716,305
				c-0.3-1.4,0-2.6,0.8-3.6c0.8-1,2-1.6,3.6-1.8c1.6-0.2,2.9,0.1,4.1,0.9c1.2,0.8,1.8,1.9,2,3.2c2.4,14.9,4.6,29.9,6.5,44.8
				c1.7,13.8,2.4,27.9,1.8,41.8c-0.2,2.9-1.8,4.4-4.8,4.6c-0.2,0-0.4,0-0.6,0c-1.4-0.2-2.6-0.7-3.6-1.6c-1-0.9-1.5-2.1-1.5-3.5
				c0.5-13.6-0.3-27.3-1.9-40.8C720.5,334.3,718.4,319.6,716,305z"/>
			<path d="M790.3,392c-0.7,0-1.4,0.1-2.2,0.1c-0.8,0-1.5,0-2.2-0.1c-14.7-1.1-26.9-10-34-22.7c-3.3-5.6-5.9-12.1-7.8-19.5
				c-1.9-7.4-2.8-15.4-2.9-23.7c-0.1-8.2,0.4-16.4,1.9-24.3c1.5-7.9,3.7-15.1,6.8-21.5c3.3-6.8,7.3-12.2,12.1-16.2
				c5.6-4.9,12.1-7.5,19.4-7.5c6.9,0,13.2,2,18.7,6.1c5.5,4.1,10.2,9.6,14.1,16.5c3.8,6.9,6.9,14.6,9.1,23.2
				c2.2,8.6,3.5,17.3,3.9,26.1c0.4,8.1-0.1,15.8-1.3,23c-1.2,7.2-3.2,13.6-5.8,19.1C814.6,382.7,804,391.6,790.3,392z M781.4,266.3
				c-2.8,0.1-5.3,0.8-7.6,2.1c-2.3,1.3-4.4,2.8-6.2,4.7c-1.8,1.8-3.4,3.8-4.6,5.9c-1.3,2.1-2.3,3.9-3,5.5c-2.8,5.6-4.9,12-6.3,19.2
				c-1.4,7.2-2.1,14.7-1.9,22.4c0.2,7.6,1.2,14.8,2.8,21.4c1.6,6.6,3.9,12.5,6.7,17.5c5.1,9.6,14.1,16.8,25.2,17.4
				c0.7,0.1,1.8,0.1,3.2,0.1c9.1-0.4,16.1-5.6,20.9-15.7c2.2-4.9,3.9-10.5,4.9-17c1-6.5,1.3-13.5,1-20.8c-0.3-8.1-1.3-16-3.3-23.7
				c-2-7.6-4.6-14.5-8-20.6c-1-1.6-2.2-3.5-3.7-5.7c-1.5-2.1-3.2-4.2-5.2-6c-2-1.9-4.2-3.4-6.6-4.7c-2.4-1.3-5.1-1.9-7.9-1.9
				C781.6,266.3,781.6,266.3,781.4,266.3z"/>
			<path d="M850.7,390.4c-1.4,0-2.6-0.4-3.6-1.3c-1-0.9-1.6-2-1.8-3.3c-3.5-42-7.4-83.9-11.6-125.8c-0.1-1.4,0.3-2.6,1.3-3.5
				c1-0.9,2.3-1.5,3.9-1.6c1.5,0,2.8,0.4,4,1.3c1.2,0.9,1.8,2,1.9,3.3c1.9,19.3,3.7,38.6,5.5,57.9c1.2-8.2,2.4-15.5,3.8-22.1
				c1.4-6.5,3-12.3,4.8-17.2c2.4-6.4,5.2-11.6,8.4-15.6c4-4.8,8.7-7.3,14-7.3c5.5,0,10.5,2.4,14.9,7.1c3.2,3.5,6.4,8.7,9.4,15.5
				c2.4,5.4,4.6,11.8,6.6,19c2,7.3,3.9,15.5,5.7,24.9c1.5,7.8,2.7,15.4,3.7,22.9c1,7.5,1.7,14.2,2.2,20.1c0.5,5.9,1.1,12.5,1.6,19.7
				c0.2,1.4-0.2,2.6-1.2,3.6c-1,1-2.2,1.4-3.8,1.4c-1.5,0.1-2.8-0.3-3.8-1.2c-1-0.9-1.6-2.1-1.8-3.5c-0.6-7.2-1.1-13.8-1.7-19.6
				c-0.6-5.8-1.3-12.4-2.3-19.8c-1-7.4-2.2-14.9-3.8-22.5c-3-14.2-6.1-28.3-11.7-41.7c-2.3-5.2-4.6-9.2-7-12
				c-2.4-2.8-4.6-4.3-6.7-4.2c-2.1,0-4.2,1.5-6.3,4.4c-2.1,2.9-4.2,7-6.1,12.2c-4.7,13.7-7.1,28.1-9,42.2c-1,7.5-1.7,15.2-2.3,22.6
				c-0.6,7.4-1,14.1-1.3,19.9c-0.3,5.8-0.6,12.3-0.8,19.6c-0.1,1.4-0.6,2.6-1.5,3.4C853.3,389.9,852.1,390.4,850.7,390.4z"/>
			<path d="M980.1,391.5c-0.6,0-1.1-0.1-1.6-0.2c-0.5-0.1-1-0.1-1.6-0.2c-5.6-0.7-11-2.6-16-5.6c-5-3-9.4-7.1-13.1-12.1
				c-2.2-2.6-4.1-5.6-5.7-8.8c-1.7-3.3-3.2-6.8-4.3-10.5c-1.2-4-2.2-8.3-3-12.8c-0.8-4.5-1.3-9.3-1.6-14.2c-0.5-7.8,0-15.3,1.2-22.6
				c1.3-7.3,3.4-14.1,6.3-20.4c2.7-5.7,5.8-10.8,9.6-15.1c3.7-4.3,7.9-7.6,12.4-10c4.4-2.3,8.9-3.5,13.5-3.6c4.6,0,9,1,13.2,3.1
				c8.6,4.8,14.7,13,18.1,22.1c5.3,13.9,6.3,28.2,7,42.8c0,1.4-0.5,2.6-1.4,3.4c-1,0.9-2.2,1.3-3.8,1.4c-21.8-0.2-43.5-0.1-65.3,0.2
				c0.7,14,4,28.5,12.5,39.8c2.9,3.8,6.1,6.9,9.8,9.2c3.7,2.3,7.6,3.6,11.7,4.1c6,0.7,11.5-0.4,16.3-3.5c4.8-3,7.9-7.3,9.2-12.8
				c0.3-1.3,1.1-2.2,2.3-2.9c1.2-0.7,2.6-0.8,4-0.5c1.6,0.3,2.7,1.1,3.4,2.2c0.7,1.1,0.9,2.4,0.6,3.8c-0.9,3.8-2.5,7.3-4.9,10.5
				c-2.3,3.2-5.3,5.8-8.8,7.8C994.1,390.1,987.4,391.8,980.1,391.5z M977.7,265.4c-3-0.1-6,0.6-9.1,2.1c-2.9,1.4-5.9,3.7-8.7,6.7
				c-2.9,3-5.5,6.8-7.7,11.2c-2.3,4.4-4.1,9.4-5.6,15.1c-1.5,5.7-2.3,11.8-2.5,18.6c19.8-0.4,39.6-0.5,59.4-0.5
				c-0.3-11.9-1.9-23.9-6.3-35c-3.4-8.3-7.7-13.8-12.9-16.6C982.1,266,979.9,265.5,977.7,265.4z"/>
			<path d="M1055.2,395.3c-4.1-0.3-8.1-1.1-11.9-2.5c-3.8-1.4-7.2-3.3-10.3-5.7c-7.1-5.4-10.8-12.3-10.9-20.6
				c-0.1-1.4,0.3-2.6,1.4-3.4c1-0.9,2.3-1.2,3.9-1.2c1.6,0,2.9,0.4,3.8,1.4c1,1,1.5,2.2,1.6,3.6c-0.1,2.8,0.6,5.4,2,7.6
				c1.4,2.2,3.1,4.1,5.3,5.7c2.2,1.6,4.6,2.9,7.3,3.7c2.7,0.9,5.4,1.4,8.1,1.6c0.2,0,0.3,0,0.4,0c2.8,0.2,5.7-0.1,8.5-0.8
				c2.8-0.7,5.4-1.9,7.7-3.6c2.4-1.7,4.3-4,5.8-7c1.5-2.9,2.3-6.6,2.5-11c0.1-3.4-0.4-6.5-1.5-9.3c-1.1-2.9-2.7-5.6-4.6-8.2
				c-1.9-2.6-4.3-5.1-6.9-7.5c-2.7-2.4-5.5-4.8-8.5-7.4c-3.7-3.1-7.3-6.3-10.9-9.6c-3.6-3.3-6.7-7-9.4-10.9c-2.7-4-4.7-8.4-5.9-13.1
				c-1.2-4.8-1.1-10.3,0.3-16.4c1.7-7.5,5.4-13.3,11.1-17.1c5.5-3.7,11.8-5,18.8-3.9c3.6,0.6,7.1,1.9,10.6,3.8
				c3.5,1.9,6.5,4.5,9.2,7.8c2.7,3.3,4.8,7.3,6.4,11.9c1.6,4.7,2.2,10,1.8,15.9c-0.2,1.4-0.8,2.5-1.9,3.4c-1.1,0.8-2.4,1.1-4,0.9
				c-1.6-0.1-2.9-0.7-3.9-1.7c-1-1-1.4-2.2-1.2-3.6c0.1-4.4-0.3-8.3-1.2-11.8c-0.9-3.4-2.3-6.4-4-8.8c-1.7-2.5-3.7-4.3-6-5.7
				c-2.3-1.3-4.6-2.2-7-2.6c-4.3-0.7-8,0.2-11.2,2.7c-3.2,2.5-5.4,6.2-6.6,11c-1.1,4.7-1.2,9-0.3,12.7c0.9,3.7,2.4,7.2,4.6,10.4
				c2.1,3.2,4.8,6.2,7.9,9c3.1,2.9,6.5,5.8,10.1,8.7c3.1,2.5,6.2,5.2,9.3,7.9c3,2.7,5.7,5.7,8.1,8.9c5.5,7.5,8.1,15.3,7.8,23.4
				c-0.2,9.5-4.2,18.6-11.8,24.4c-3.1,2.5-6.7,4.3-10.7,5.4c-4,1.1-8.3,1.6-12.9,1.3c-0.1,0-0.3,0-0.3,0.1
				C1055.5,395.3,1055.4,395.3,1055.2,395.3z"/>
		</g>
	</g>
	<g>
		<g>
			<path d="M386.2,442.8c-0.1,0-0.1,0-0.2,0c-1.4,0.2-2.6-0.1-3.8-0.8c-1.1-0.7-1.9-1.7-2.2-3.1c-2-10.3-4.1-20.6-6.7-30.8
				c-2.3-9.1-4.7-17.2-7.1-24.3c-2.4-7.1-4.7-13.4-6.9-18.6c-2.2-5.3-4.2-9.7-6.1-13.2c-2.3-4.5-4.7-8.5-7.1-11.9
				c-2.4-3.4-4.7-6.2-6.9-8.4c-3.5-3.4-6.4-4.9-8.5-4.5c-0.7,0.2-1.6,0.7-2.6,1.6c-1,0.9-2,2.4-2.9,4.5c-0.9,2.1-1.8,4.9-2.6,8.2
				c-0.8,3.4-1.4,7.6-1.9,12.6c-1,12.7-0.5,25.5,0.7,38.1c1.6,16.5,4.1,33,6.9,49.5c0.2,1.3,0,2.4-0.7,3.4c-0.7,1-1.7,1.7-3.2,2.1
				c-1.3,0.3-2.6,0.2-3.7-0.4c-1.1-0.6-1.9-1.5-2.2-2.8c-5.2-16.1-11-32-17.6-47.5c-4.9-11.5-10.5-22.9-17.3-33.4
				c-5.1-7.5-9.7-13-13.9-16.3c-3-2.2-5.3-3-7-2.6c-1.1,0.3-2.2,1.2-3.1,2.6c-1,1.5-1.9,3.4-2.7,5.7c-2.2,6.2-3.3,14.5-3.3,24.9
				c0,13.2,1.3,26.5,3.4,39.4c2.5,15.6,6.1,31.2,10,46.6c0.4,1.2,0.2,2.4-0.5,3.5c-0.7,1.1-1.7,1.9-3.2,2.3
				c-1.3,0.4-2.6,0.2-3.7-0.4c-1.2-0.6-2-1.5-2.5-2.7c-12.8-39-25.9-77.8-39.3-116.6c-0.4-1.4-0.3-2.6,0.3-3.7
				c0.6-1.1,1.7-1.9,3.2-2.5c1.5-0.4,2.9-0.4,4.2,0.2c1.3,0.5,2.1,1.5,2.5,2.8c5.2,15.2,10.4,30.4,15.5,45.6
				c-0.2-2.6-0.4-5.1-0.5-7.5c-0.1-2.4-0.2-4.7-0.1-7c0.1-9.3,1-18.7,3.7-27.7c2.9-8.1,7.4-13.2,13.1-14.8
				c5.5-1.5,11.4,0.1,16.9,4.5c5.3,4.1,10.7,10.3,16.1,18.6c2.9,4.7,5.9,10.1,9,16.1c3.1,6,6.2,12.6,9.3,20
				c-0.6-7.8-1.1-15.1-1.3-21.8c-0.2-6.7-0.1-12.9,0.3-18.6c0.4-5.1,1.1-9.7,2-13.7c1-4,2.1-7.5,3.4-10.4
				c2.9-6.8,7.4-10.8,13.3-11.8c5.8-1,11.9,1.5,18.1,7.3c2.7,2.6,5.4,5.8,8,9.6c2.6,3.8,5.2,8.2,7.8,13.2
				c6.4,12.5,11.1,25.7,15.2,39c5.1,16.4,8.8,33.5,12,50.5c0.3,1.4,0.1,2.6-0.6,3.6C388.8,441.8,387.7,442.4,386.2,442.8z"/>
			<path d="M467.9,357.4c2,8.3,2.6,16.4,2.1,24.2c-0.6,7.8-2.3,15.1-5.2,21.9c-4.1,9.3-10.6,17.5-19.1,23.2
				c-5.9,4-12.8,6.7-20.7,8.3c-1.7,0.3-3.5,0.6-5.4,0.9c-1.8,0.2-3.7,0.4-5.7,0.5c1.7,7.3,3.4,14.6,5,21.8c1.6,7.3,3.2,14.7,5,22.2
				c0.3,1.4,0.1,2.6-0.7,3.7c-0.7,1.1-1.8,1.7-3.3,2c-1.4,0.3-2.7,0.1-3.8-0.6c-1.1-0.7-1.8-1.7-2.1-3.1
				c-3.4-15.1-6.9-30.2-10.4-45.3c-3.4-14.8-6.9-29.6-10.4-44.3c-3.2-13.4-6.5-26.8-9.7-40.2c-3.2-13.3-6.5-26.6-9.8-39.8
				c-0.3-1.4-0.1-2.6,0.7-3.7c0.8-1.1,1.9-1.8,3.5-2.1c1.8-0.4,3.5,0,4.9,1.2c11-3.5,20.9-5.9,32.4-4.4c10.5,1.4,20.6,5.8,28.6,12.9
				c5.9,5,10.9,11,14.9,17.9C462.9,341.4,465.9,349.1,467.9,357.4z M455.2,400.2c2.6-6.1,4-12.7,4.4-19.8c0.3-7.1-0.3-14.1-1.9-21
				c-1.6-6.9-4.2-13.5-7.8-19.8c-3.6-6.3-7.9-11.6-13.1-16c-2.5-2-5.4-4-8.9-5.9c-3.4-1.9-7.2-3.2-11.4-4.1
				c-4.2-0.9-8.8-1.1-13.9-0.7c-5.1,0.4-10.6,1.9-16.5,4.4c3,12.1,6,24.3,8.8,36.5c2.9,12.2,5.7,24.5,8.7,36.7
				c1.5,6,2.9,12.1,4.3,18.1c1.4,6,2.7,12.1,4.1,18.1c6.7-0.2,12.5-1.1,17.3-2.7c4.8-1.7,9-3.8,12.4-6.3c3.4-2.5,6.2-5.4,8.4-8.4
				C452,406.2,453.8,403.2,455.2,400.2z"/>
			<path d="M498.5,422.6c-1.4,0.2-2.6,0-3.7-0.8c-1.1-0.7-1.7-1.8-2-3c-0.2-0.8-0.5-1.7-0.7-2.4c-0.1-0.8-0.4-1.5-0.6-2.3
				c-9.1-38.8-18.6-77.6-28.4-116.3c-0.4-1.4-0.2-2.6,0.6-3.7c0.8-1.1,1.9-1.8,3.3-2c1.5-0.4,2.9-0.2,4.2,0.5c1.3,0.7,2,1.8,2.3,3.2
				c3.2,12.7,6.4,25.4,9.6,38.1c0-1.3,0.1-2.4,0.2-3.4c0.2-4.8,0.7-9.6,1.5-14.6c0.8-5,1.9-9.6,3.4-14c1.5-4.4,3.4-8.1,5.8-11.2
				c2.4-3.1,5.4-5.2,9.1-6.1c1.4-0.3,3.1-0.5,5.1-0.5c2,0,4.3,0.7,6.9,2c3.4,1.8,6.9,4.8,10.4,8.8c9.2,11.1,15.3,24.8,20.5,38.2
				c0.5,1.2,0.5,2.5-0.1,3.6c-0.6,1.2-1.6,2-3.1,2.5c-1.4,0.4-2.7,0.4-4-0.1c-1.3-0.5-2.2-1.5-2.8-2.8c-3.3-8.1-6.5-15.2-9.6-21.1
				c-3.1-5.9-6.3-10.8-9.4-14.5c-2.1-2.6-4.1-4.5-6-5.7c-1.9-1.2-3.5-1.6-4.7-1.1c-0.4,0.1-1.3,0.7-2.7,1.9
				c-1.4,1.2-2.9,3.8-4.6,7.9c-1.3,3.3-2.3,7.3-3.2,12c-0.9,4.6-1.5,9.8-1.8,15.5c-0.7,12.9-0.2,25.9,1,38.7
				c1.3,14.3,3.6,28.5,6.8,42.5c0.4,1.7,0.6,2.6,1,4.3c0.4,1.4,0.2,2.6-0.6,3.7c-0.8,1.1-1.8,1.8-3.2,2
				C498.8,422.4,498.6,422.5,498.5,422.6z"/>
			<path d="M609,406.6c-0.5,0.1-1.1,0.1-1.6,0.1c-0.5,0-1,0-1.6,0.1c-5.6,0.1-11-0.9-16.3-3.2c-5.3-2.3-10.1-5.6-14.4-10
				c-2.5-2.3-4.7-4.9-6.8-7.9c-2.1-3-4-6.3-5.7-9.8c-1.8-3.8-3.3-7.9-4.8-12.3c-1.4-4.4-2.6-9-3.6-13.8c-1.6-7.6-2.2-15.1-2.1-22.5
				c0.2-7.4,1.3-14.4,3.2-21.1c1.7-6.1,4.1-11.6,7.1-16.4c3-4.8,6.6-8.7,10.6-11.7c3.9-2.9,8.1-4.8,12.6-5.5
				c4.4-0.7,8.8-0.4,13.2,1.1c9,3.5,16.1,10.7,20.6,19.2c7.1,13,10.2,27,12.9,41.3c0.2,1.4-0.1,2.6-0.9,3.6c-0.8,1-2,1.6-3.5,1.9
				c-21.1,3.1-42.1,6.4-63.1,9.9c2.7,13.6,7.9,27.5,17.8,37.5c3.3,3.4,6.9,5.9,10.8,7.6c3.9,1.7,7.9,2.4,11.9,2.3
				c5.9-0.3,11.1-2.1,15.3-5.8c4.2-3.7,6.6-8.4,7.1-14c0.1-1.3,0.7-2.4,1.8-3.2c1.1-0.8,2.4-1.2,3.8-1.1c1.6,0.1,2.8,0.7,3.6,1.7
				c0.8,1,1.2,2.2,1.1,3.7c-0.3,3.9-1.4,7.6-3.2,11.1c-1.8,3.5-4.3,6.5-7.4,9.1C622.3,403.1,616.1,405.8,609,406.6z M588.6,282.2
				c-2.9,0.3-5.7,1.5-8.5,3.4c-2.6,1.8-5.1,4.5-7.5,8c-2.4,3.4-4.3,7.5-5.9,12.2c-1.6,4.7-2.6,10-3.3,15.8
				c-0.6,5.8-0.5,12.1,0.3,18.7c19.1-3.3,38.2-6.3,57.4-9.3c-1.9-11.7-5.3-23.3-11.2-33.7c-4.5-7.7-9.5-12.5-14.9-14.5
				C592.9,282.1,590.7,281.9,588.6,282.2z"/>
			<path d="M682.1,399.2c-4,0.3-7.9,0.1-11.8-0.7c-3.9-0.8-7.4-2.2-10.7-4.1c-7.6-4.3-12.1-10.5-13.5-18.7c-0.3-1.4,0-2.6,0.8-3.6
				c0.9-1,2.1-1.6,3.6-1.7c1.5-0.3,2.8,0,3.9,0.8c1.1,0.8,1.8,1.9,2.1,3.3c0.3,2.8,1.3,5.2,3,7.2c1.6,2,3.6,3.6,6,4.9
				c2.3,1.3,4.8,2.1,7.6,2.6c2.7,0.5,5.4,0.6,8,0.4c0.2,0,0.2,0,0.4,0c2.8-0.2,5.5-0.9,8.1-2c2.6-1.1,4.9-2.7,7-4.7
				c2-2,3.5-4.6,4.6-7.7c1-3.1,1.3-6.9,0.8-11.2c-0.4-3.3-1.3-6.3-2.8-9c-1.5-2.7-3.4-5.1-5.6-7.4c-2.2-2.3-4.8-4.4-7.8-6.4
				c-2.9-2-6-4-9.3-6c-4-2.5-8-5.1-11.9-7.9c-3.9-2.8-7.5-5.9-10.7-9.4c-3.2-3.5-5.7-7.6-7.5-12.1c-1.8-4.6-2.5-10-2.1-16.3
				c0.6-7.7,3.3-13.9,8.3-18.5c4.8-4.5,10.7-6.7,17.6-6.7c3.5,0.1,7.1,0.8,10.7,2.2c3.6,1.4,7,3.5,10,6.4c3,2.9,5.7,6.5,7.8,10.9
				c2.2,4.4,3.5,9.5,4,15.4c0,1.4-0.4,2.6-1.3,3.6c-0.9,1-2.2,1.5-3.7,1.5c-1.6,0.1-2.9-0.2-4-1c-1.1-0.8-1.7-1.9-1.7-3.4
				c-0.5-4.4-1.5-8.2-2.9-11.4c-1.4-3.3-3.1-6-5.1-8.1c-2-2.2-4.2-3.7-6.6-4.7c-2.4-1-4.8-1.5-7.1-1.5c-4.3,0-7.7,1.4-10.4,4.3
				c-2.7,2.9-4.4,6.9-4.8,11.8c-0.4,4.8,0.1,9,1.5,12.6c1.4,3.6,3.4,6.8,5.9,9.6c2.5,2.8,5.5,5.4,9,7.8c3.4,2.4,7.1,4.7,11,7.1
				c3.4,2,6.8,4.2,10.1,6.5c3.3,2.3,6.4,4.8,9.1,7.5c6.4,6.6,10,14,10.8,21.9c1.1,10.7-1.6,19.3-7.9,25.9c-2.6,2.9-5.8,5.2-9.5,7
				c-3.7,1.7-7.8,2.8-12.2,3.2c-0.1,0-0.2,0.1-0.3,0.1C682.3,399.1,682.2,399.2,682.1,399.2z"/>
			<path d="M717.2,261c2.5-0.2,4.8,0.5,6.8,1.9c2.1,1.4,3.2,3.2,3.4,5.4c0.2,2.2-0.5,4.1-2.3,5.8c-1.7,1.7-3.8,2.6-6.3,2.8
				c-2.6,0.2-4.9-0.4-6.9-1.9c-2-1.4-3.1-3.2-3.3-5.4c-0.2-2.2,0.5-4.1,2.1-5.8C712.4,262.1,714.5,261.1,717.2,261z M716,305
				c-0.3-1.4,0-2.6,0.8-3.6c0.8-1,2-1.6,3.6-1.8c1.6-0.2,2.9,0.1,4.1,0.9c1.2,0.8,1.8,1.9,2,3.2c2.4,14.9,4.6,29.9,6.5,44.8
				c1.7,13.8,2.4,27.9,1.8,41.8c-0.2,2.9-1.8,4.4-4.8,4.6c-0.2,0-0.4,0-0.6,0c-1.4-0.2-2.6-0.7-3.6-1.6c-1-0.9-1.5-2.1-1.5-3.5
				c0.5-13.6-0.3-27.3-1.9-40.8C720.5,334.3,718.4,319.6,716,305z"/>
			<path d="M790.3,392c-0.7,0-1.4,0.1-2.2,0.1c-0.8,0-1.5,0-2.2-0.1c-14.7-1.1-26.9-10-34-22.7c-3.3-5.6-5.9-12.1-7.8-19.5
				c-1.9-7.4-2.8-15.4-2.9-23.7c-0.1-8.2,0.4-16.4,1.9-24.3c1.5-7.9,3.7-15.1,6.8-21.5c3.3-6.8,7.3-12.2,12.1-16.2
				c5.6-4.9,12.1-7.5,19.4-7.5c6.9,0,13.2,2,18.7,6.1c5.5,4.1,10.2,9.6,14.1,16.5c3.8,6.9,6.9,14.6,9.1,23.2
				c2.2,8.6,3.5,17.3,3.9,26.1c0.4,8.1-0.1,15.8-1.3,23c-1.2,7.2-3.2,13.6-5.8,19.1C814.6,382.7,804,391.6,790.3,392z M781.4,266.3
				c-2.8,0.1-5.3,0.8-7.6,2.1c-2.3,1.3-4.4,2.8-6.2,4.7c-1.8,1.8-3.4,3.8-4.6,5.9c-1.3,2.1-2.3,3.9-3,5.5c-2.8,5.6-4.9,12-6.3,19.2
				c-1.4,7.2-2.1,14.7-1.9,22.4c0.2,7.6,1.2,14.8,2.8,21.4c1.6,6.6,3.9,12.5,6.7,17.5c5.1,9.6,14.1,16.8,25.2,17.4
				c0.7,0.1,1.8,0.1,3.2,0.1c9.1-0.4,16.1-5.6,20.9-15.7c2.2-4.9,3.9-10.5,4.9-17c1-6.5,1.3-13.5,1-20.8c-0.3-8.1-1.3-16-3.3-23.7
				c-2-7.6-4.6-14.5-8-20.6c-1-1.6-2.2-3.5-3.7-5.7c-1.5-2.1-3.2-4.2-5.2-6c-2-1.9-4.2-3.4-6.6-4.7c-2.4-1.3-5.1-1.9-7.9-1.9
				C781.6,266.3,781.6,266.3,781.4,266.3z"/>
			<path d="M850.7,390.4c-1.4,0-2.6-0.4-3.6-1.3c-1-0.9-1.6-2-1.8-3.3c-3.5-42-7.4-83.9-11.6-125.8c-0.1-1.4,0.3-2.6,1.3-3.5
				c1-0.9,2.3-1.5,3.9-1.6c1.5,0,2.8,0.4,4,1.3c1.2,0.9,1.8,2,1.9,3.3c1.9,19.3,3.7,38.6,5.5,57.9c1.2-8.2,2.4-15.5,3.8-22.1
				c1.4-6.5,3-12.3,4.8-17.2c2.4-6.4,5.2-11.6,8.4-15.6c4-4.8,8.7-7.3,14-7.3c5.5,0,10.5,2.4,14.9,7.1c3.2,3.5,6.4,8.7,9.4,15.5
				c2.4,5.4,4.6,11.8,6.6,19c2,7.3,3.9,15.5,5.7,24.9c1.5,7.8,2.7,15.4,3.7,22.9c1,7.5,1.7,14.2,2.2,20.1c0.5,5.9,1.1,12.5,1.6,19.7
				c0.2,1.4-0.2,2.6-1.2,3.6c-1,1-2.2,1.4-3.8,1.4c-1.5,0.1-2.8-0.3-3.8-1.2c-1-0.9-1.6-2.1-1.8-3.5c-0.6-7.2-1.1-13.8-1.7-19.6
				c-0.6-5.8-1.3-12.4-2.3-19.8c-1-7.4-2.2-14.9-3.8-22.5c-3-14.2-6.1-28.3-11.7-41.7c-2.3-5.2-4.6-9.2-7-12
				c-2.4-2.8-4.6-4.3-6.7-4.2c-2.1,0-4.2,1.5-6.3,4.4c-2.1,2.9-4.2,7-6.1,12.2c-4.7,13.7-7.1,28.1-9,42.2c-1,7.5-1.7,15.2-2.3,22.6
				c-0.6,7.4-1,14.1-1.3,19.9c-0.3,5.8-0.6,12.3-0.8,19.6c-0.1,1.4-0.6,2.6-1.5,3.4C853.3,389.9,852.1,390.4,850.7,390.4z"/>
			<path d="M980.1,391.5c-0.6,0-1.1-0.1-1.6-0.2c-0.5-0.1-1-0.1-1.6-0.2c-5.6-0.7-11-2.6-16-5.6c-5-3-9.4-7.1-13.1-12.1
				c-2.2-2.6-4.1-5.6-5.7-8.8c-1.7-3.3-3.2-6.8-4.3-10.5c-1.2-4-2.2-8.3-3-12.8c-0.8-4.5-1.3-9.3-1.6-14.2c-0.5-7.8,0-15.3,1.2-22.6
				c1.3-7.3,3.4-14.1,6.3-20.4c2.7-5.7,5.8-10.8,9.6-15.1c3.7-4.3,7.9-7.6,12.4-10c4.4-2.3,8.9-3.5,13.5-3.6c4.6,0,9,1,13.2,3.1
				c8.6,4.8,14.7,13,18.1,22.1c5.3,13.9,6.3,28.2,7,42.8c0,1.4-0.5,2.6-1.4,3.4c-1,0.9-2.2,1.3-3.8,1.4c-21.8-0.2-43.5-0.1-65.3,0.2
				c0.7,14,4,28.5,12.5,39.8c2.9,3.8,6.1,6.9,9.8,9.2c3.7,2.3,7.6,3.6,11.7,4.1c6,0.7,11.5-0.4,16.3-3.5c4.8-3,7.9-7.3,9.2-12.8
				c0.3-1.3,1.1-2.2,2.3-2.9c1.2-0.7,2.6-0.8,4-0.5c1.6,0.3,2.7,1.1,3.4,2.2c0.7,1.1,0.9,2.4,0.6,3.8c-0.9,3.8-2.5,7.3-4.9,10.5
				c-2.3,3.2-5.3,5.8-8.8,7.8C994.1,390.1,987.4,391.8,980.1,391.5z M977.7,265.4c-3-0.1-6,0.6-9.1,2.1c-2.9,1.4-5.9,3.7-8.7,6.7
				c-2.9,3-5.5,6.8-7.7,11.2c-2.3,4.4-4.1,9.4-5.6,15.1c-1.5,5.7-2.3,11.8-2.5,18.6c19.8-0.4,39.6-0.5,59.4-0.5
				c-0.3-11.9-1.9-23.9-6.3-35c-3.4-8.3-7.7-13.8-12.9-16.6C982.1,266,979.9,265.5,977.7,265.4z"/>
			<path d="M1055.2,395.3c-4.1-0.3-8.1-1.1-11.9-2.5c-3.8-1.4-7.2-3.3-10.3-5.7c-7.1-5.4-10.8-12.3-10.9-20.6
				c-0.1-1.4,0.3-2.6,1.4-3.4c1-0.9,2.3-1.2,3.9-1.2c1.6,0,2.9,0.4,3.8,1.4c1,1,1.5,2.2,1.6,3.6c-0.1,2.8,0.6,5.4,2,7.6
				c1.4,2.2,3.1,4.1,5.3,5.7c2.2,1.6,4.6,2.9,7.3,3.7c2.7,0.9,5.4,1.4,8.1,1.6c0.2,0,0.3,0,0.4,0c2.8,0.2,5.7-0.1,8.5-0.8
				c2.8-0.7,5.4-1.9,7.7-3.6c2.4-1.7,4.3-4,5.8-7c1.5-2.9,2.3-6.6,2.5-11c0.1-3.4-0.4-6.5-1.5-9.3c-1.1-2.9-2.7-5.6-4.6-8.2
				c-1.9-2.6-4.3-5.1-6.9-7.5c-2.7-2.4-5.5-4.8-8.5-7.4c-3.7-3.1-7.3-6.3-10.9-9.6c-3.6-3.3-6.7-7-9.4-10.9c-2.7-4-4.7-8.4-5.9-13.1
				c-1.2-4.8-1.1-10.3,0.3-16.4c1.7-7.5,5.4-13.3,11.1-17.1c5.5-3.7,11.8-5,18.8-3.9c3.6,0.6,7.1,1.9,10.6,3.8
				c3.5,1.9,6.5,4.5,9.2,7.8c2.7,3.3,4.8,7.3,6.4,11.9c1.6,4.7,2.2,10,1.8,15.9c-0.2,1.4-0.8,2.5-1.9,3.4c-1.1,0.8-2.4,1.1-4,0.9
				c-1.6-0.1-2.9-0.7-3.9-1.7c-1-1-1.4-2.2-1.2-3.6c0.1-4.4-0.3-8.3-1.2-11.8c-0.9-3.4-2.3-6.4-4-8.8c-1.7-2.5-3.7-4.3-6-5.7
				c-2.3-1.3-4.6-2.2-7-2.6c-4.3-0.7-8,0.2-11.2,2.7c-3.2,2.5-5.4,6.2-6.6,11c-1.1,4.7-1.2,9-0.3,12.7c0.9,3.7,2.4,7.2,4.6,10.4
				c2.1,3.2,4.8,6.2,7.9,9c3.1,2.9,6.5,5.8,10.1,8.7c3.1,2.5,6.2,5.2,9.3,7.9c3,2.7,5.7,5.7,8.1,8.9c5.5,7.5,8.1,15.3,7.8,23.4
				c-0.2,9.5-4.2,18.6-11.8,24.4c-3.1,2.5-6.7,4.3-10.7,5.4c-4,1.1-8.3,1.6-12.9,1.3c-0.1,0-0.3,0-0.3,0.1
				C1055.5,395.3,1055.4,395.3,1055.2,395.3z"/>
		</g>
	</g>
</g>
<g>
	<g>
		<g>
			<path d="M1449.3,397.3c-0.7,0-1.4-0.1-2.1-0.1c-0.7,0-1.5-0.1-2.1-0.3c-14.6-2.3-26-12.1-32.4-25.1c-3.1-5.9-5.4-12.6-7.1-20.3
				c-1.6-7.6-2.3-15.9-2.2-24.5c0.1-8.5,0.9-16.9,2.6-25.1c1.7-8.2,4.2-15.5,7.4-22c3.4-6.9,7.6-12.3,12.4-16.1
				c5.6-4.8,11.9-6.9,18.9-6.4c6.6,0.5,12.5,3.2,17.6,8c5.1,4.8,9.4,10.9,12.8,18.3c3.5,7.4,6.1,15.7,8.1,24.7
				c1.9,9,3,18.1,3.2,27.2c0.2,8.4-0.4,16.2-1.7,23.5c-1.3,7.3-3.3,13.6-5.9,19C1473.4,389.8,1462.4,397.9,1449.3,397.3z
				 M1444.3,267.4c-2.7-0.1-5.1,0.4-7.4,1.6c-2.3,1.1-4.3,2.6-6.1,4.4c-1.8,1.8-3.4,3.7-4.7,5.8c-1.3,2.1-2.3,3.9-3.1,5.5
				c-3,5.6-5.2,12.1-6.8,19.5c-1.6,7.4-2.5,15.1-2.5,23.1c0,7.8,0.7,15.2,2.2,22.1c1.4,6.9,3.4,13,6,18.3c4.6,9.8,13,17.8,24,19.4
				c0.7,0.2,1.7,0.3,3.1,0.3c8.8,0.3,15.7-4.3,20.6-14.3c2.3-4.8,4-10.4,5.1-17c1.1-6.6,1.5-13.7,1.4-21.2
				c-0.1-8.3-0.9-16.6-2.6-24.6c-1.7-8-4-15.3-7-21.9c-0.9-1.8-2-3.8-3.4-6.2c-1.3-2.3-2.9-4.6-4.7-6.7c-1.8-2.1-3.9-3.9-6.2-5.4
				c-2.3-1.5-4.8-2.4-7.4-2.6C1444.5,267.4,1444.4,267.4,1444.3,267.4z"/>
			<path d="M1631.9,404.2c-0.1,0-0.1,0-0.2,0c-1.3-0.2-2.5-0.7-3.4-1.7c-0.9-1-1.4-2.2-1.3-3.6c0.6-10.8,1.2-21.6,1.3-32.5
				c0.1-9.7-0.1-18.4-0.6-26.1c-0.5-7.7-1-14.5-1.8-20.3c-0.7-5.8-1.6-10.7-2.5-14.8c-1-5.1-2.3-9.6-3.7-13.7
				c-1.4-4-2.9-7.4-4.5-10.1c-2.5-4.3-4.9-6.5-7.1-6.5c-0.7,0-1.7,0.3-2.9,1c-1.2,0.7-2.6,1.9-4,3.9c-1.5,1.9-3,4.5-4.7,7.7
				c-1.7,3.2-3.4,7.3-5.1,12.2c-4.2,12.5-6.9,25.4-9,38.4c-2.7,17-4.2,34.2-5.4,51.4c-0.1,1.3-0.6,2.4-1.5,3.3
				c-0.9,0.9-2,1.3-3.5,1.3c-1.3,0-2.5-0.4-3.5-1.3c-1-0.9-1.4-2-1.5-3.3c-1.4-17.4-3-34.8-5.6-52c-2-12.8-4.5-25.7-8.5-37.9
				c-2.9-8.8-6.1-15.6-9.4-20.1c-2.3-3-4.3-4.6-6-4.7c-1.1-0.1-2.3,0.5-3.6,1.6c-1.3,1.1-2.6,2.7-4,4.8c-3.6,5.4-6.7,13.2-9.3,23.4
				c-3.2,13-5.2,26.4-6.4,39.7c-1.4,16.2-1.7,32.6-1.6,48.9c0,1.3-0.4,2.4-1.3,3.3c-0.9,0.9-2.1,1.2-3.6,1.1
				c-1.4-0.1-2.5-0.7-3.5-1.7c-1-1-1.6-2.2-1.8-3.5c-2.8-42.4-5.7-84.7-8.6-127.1c-0.1-1.5,0.4-2.6,1.2-3.5c0.9-0.9,2.1-1.3,3.6-1.3
				c1.5,0.1,2.8,0.6,3.9,1.6c1.1,0.9,1.6,2.2,1.7,3.6c1.1,16.6,2.2,33.1,3.3,49.7c0.5-2.6,0.9-5.1,1.4-7.5c0.5-2.4,1-4.6,1.6-6.9
				c3.1-11.2,6.5-19.8,10.4-25.8c4.8-7,10.3-10.6,16.1-10.5c5.7,0.1,10.8,3.5,15.1,9.3c4,5.6,7.8,13.1,10.9,22.8
				c1.7,5.5,3.2,11.6,4.7,18.3c1.5,6.7,2.9,14.1,4.1,22.3c1.3-8,2.7-15.4,4.2-22.2c1.5-6.8,3.1-13,5-18.6c1.7-5.1,3.5-9.5,5.5-13.3
				c2-3.8,4-7,6.1-9.7c4.6-6.1,10.1-9.1,16.2-8.7c5.9,0.4,11.2,4.3,15.7,11.6c2,3.2,3.7,7.1,5.3,11.5c1.6,4.4,2.9,9.5,4,15.1
				c2.9,14.1,3.9,28.5,4.4,42.7c0.6,17.7-0.3,35.7-1.4,53.6c0,1.5-0.5,2.6-1.5,3.5C1634.6,403.8,1633.4,404.2,1631.9,404.2z"/>
			<path d="M1659.7,266.2c2.5,0.1,4.6,1,6.4,2.7c1.8,1.7,2.7,3.7,2.6,5.9c-0.1,2.3-1.1,4.2-3.1,5.7c-1.9,1.5-4.1,2.2-6.6,2.1
				c-2.6-0.1-4.8-1-6.5-2.6c-1.7-1.7-2.6-3.6-2.5-5.9c0.1-2.3,1-4.2,2.9-5.7C1654.8,266.8,1657.1,266.1,1659.7,266.2z M1652.2,311.1
				c-0.1-1.5,0.3-2.7,1.3-3.6c1-0.9,2.2-1.4,3.8-1.5c1.6-0.1,2.9,0.4,3.9,1.4c1,1,1.5,2.1,1.5,3.5c0.2,15.6,0.4,31.3,0,46.6
				c-0.4,14.3-1.5,28.8-3.8,43.1c-0.5,2.9-2.3,4.3-5.2,4.2c-0.2,0-0.4,0-0.6,0c-1.3-0.3-2.4-1-3.2-2c-0.8-1-1.2-2.3-1-3.7
				c2.2-13.9,3.3-28,3.5-42.1C1652.5,341.7,1652.4,326.4,1652.2,311.1z"/>
			<path d="M1716.2,409.2c-1.5-0.1-2.5-0.3-3.2-0.5c-5-0.8-10.2-2.8-15.3-6.1c-4.9-3.2-9.3-7.6-13.1-13.1c-4.1-6.1-7.2-13.1-9.3-21
				c-2.1-7.9-3-16.6-2.8-26.1c0.2-9.4,1.5-18.9,4-27.9c2.5-8.9,6-16.8,10.6-23.8c4.4-6.7,9.4-11.9,15.1-15.6
				c5.6-3.7,11.4-5.7,17.2-5.9c8.5-0.4,15.9,3,21.7,10.2c6.8,8.4,9.8,19.5,11.1,30.2c0.2,1.4-0.2,2.6-1.1,3.6
				c-0.9,1-2.1,1.6-3.7,1.7c-1.4,0.1-2.7-0.2-3.9-1.1c-1.1-0.8-1.8-1.9-1.9-3.3c-1.6-11.1-4.6-19.6-9-25.3
				c-3.7-4.2-7.9-6.3-12.6-6.2c-3.9,0.1-8,1.6-12.2,4.6c-4.2,3-8,7.1-11.5,12.4c-4.1,6.2-7.3,13.3-9.6,21.3
				c-2.3,8-3.8,16.7-3.8,25.4c0,14.3,1.6,28.5,9.9,41.1c6,8.7,13.3,13.6,21.9,15c5.6,0.9,10.4,0.2,14.6-2.2c4.1-2.4,7-6.3,8.6-11.5
				c0.4-1.3,1.2-2.3,2.5-2.9c1.3-0.6,2.6-0.7,3.9-0.3c1.4,0.4,2.5,1.2,3,2.4c0.6,1.2,0.6,2.5,0.2,3.9c-2.4,7.6-6.9,13.3-13.6,17.1
				C1728.7,408.5,1722.8,409.7,1716.2,409.2z"/>
			<path d="M1775.4,275.3c2.5,0.4,4.6,1.5,6.4,3.4c1.7,1.9,2.5,4,2.2,6.2c-0.3,2.3-1.5,4-3.5,5.3c-2.1,1.3-4.4,1.8-6.8,1.4
				c-2.6-0.4-4.7-1.5-6.4-3.3c-1.7-1.8-2.4-3.9-2.1-6.1c0.2-2.3,1.3-4.1,3.4-5.4C1770.5,275.4,1772.8,274.9,1775.4,275.3z
				 M1764.7,319.4c0-1.5,0.5-2.6,1.6-3.4c1-0.8,2.3-1.2,3.9-1.1c1.6,0.1,2.9,0.7,3.8,1.8c1,1.1,1.4,2.3,1.2,3.6
				c-0.9,15.6-1.9,31.2-3.4,46.6c-1.4,14.2-3.6,28.5-6.9,42.6c-0.7,2.9-2.5,4.1-5.4,3.6c-0.2,0-0.4-0.1-0.6-0.1
				c-1.3-0.5-2.3-1.2-3-2.3c-0.7-1.1-1-2.4-0.7-3.8c3.2-13.7,5.3-27.7,6.4-41.7C1762.8,349.9,1763.8,334.7,1764.7,319.4z"/>
			<path d="M1793.7,274.3c0-1.5,0.6-2.6,1.7-3.4c1.1-0.8,2.5-1.1,4.1-0.9c1.7,0.2,3,0.8,4,1.9c1,1.1,1.4,2.4,1.2,3.7
				c-0.4,5.2-1,11.6-1.7,19.2c-0.7,7.6-1.6,15.8-2.6,24.6c-1,8.8-2.1,17.9-3.3,27.1c-1.2,9.2-2.5,18.1-3.8,26.5
				c-1.3,8.4-2.6,16.1-3.8,23.1c-1.2,7-2.4,12.6-3.6,16.9c-0.8,2.8-2.6,4-5.5,3.4c-0.2,0-0.3-0.1-0.6-0.1c-1.3-0.5-2.3-1.3-3-2.5
				c-0.7-1.1-0.9-2.4-0.6-3.9c1.1-4.1,2.2-9.7,3.3-16.5c1.2-6.9,2.3-14.5,3.6-22.9c1.2-8.4,2.4-17.1,3.5-26.3
				c1.1-9.2,2.2-18.1,3.1-26.8c1-8.7,1.8-16.8,2.5-24.3C1792.8,285.7,1793.3,279.4,1793.7,274.3z"/>
			<path d="M1823.4,283.9c2.5,0.5,4.7,1.8,6.3,3.8c1.7,2,2.3,4.1,1.9,6.3c-0.4,2.2-1.7,3.9-3.8,5.1c-2.2,1.2-4.5,1.5-7,1
				c-2.6-0.6-4.8-1.8-6.4-3.8c-1.6-2-2.2-4-1.9-6.3c0.3-2.2,1.5-4,3.6-5.2C1818.3,283.6,1820.7,283.3,1823.4,283.9z M1810.6,327.3
				c0.1-1.5,0.6-2.6,1.7-3.3c1.1-0.7,2.4-1,4-0.8c1.6,0.2,2.9,0.9,3.8,2c0.9,1.2,1.3,2.4,1.1,3.7c-1.6,15.5-3.3,31.1-5.5,46.4
				c-2.1,14.1-4.9,28.3-8.9,42.2c-0.9,2.8-2.7,3.9-5.5,3.3c-0.2,0-0.3-0.1-0.6-0.1c-1.2-0.5-2.2-1.4-2.9-2.6
				c-0.7-1.2-0.9-2.5-0.5-3.9c3.8-13.5,6.5-27.4,8.2-41.3C1807.4,357.7,1809.1,342.5,1810.6,327.3z"/>
			<path d="M1856.7,434.6c-0.6-0.2-1.3-0.3-2-0.5c-0.7-0.2-1.4-0.4-2-0.7c-13.6-5.5-21.8-18.2-24.8-32.2c-1.6-6.5-2.2-13.7-2-21.6
				c0.2-7.9,1.4-16,3.6-24.4c2.1-8.2,4.8-16.1,8.5-23.5c3.6-7.4,7.9-13.9,12.7-19.3c5.2-5.7,10.8-9.9,16.7-12.4
				c7-3.2,14.2-3.7,21.5-1.6c6.8,2,12.3,5.9,16.4,11.5c4.1,5.7,6.8,12.4,8.3,20.2c1.5,7.8,1.9,16.3,1.2,25.3
				c-0.6,9.1-2.2,18-4.6,26.7c-2.2,8.1-5.1,15.5-8.4,22.3c-3.4,6.8-7.1,12.5-11.3,17.2C1882.1,431.7,1869.7,438.1,1856.7,434.6z
				 M1885.7,308c-2.8-0.7-5.5-0.8-8.1-0.2c-2.7,0.6-5.2,1.5-7.5,2.8c-2.3,1.3-4.4,2.7-6.3,4.4c-1.9,1.7-3.4,3.2-4.6,4.5
				c-4.4,4.7-8.3,10.4-11.7,17.1c-3.4,6.7-6.1,14-8.1,21.7c-1.9,7.5-2.9,15-3.2,22c-0.3,7.1,0.2,13.5,1.4,19.2
				c2,10.5,7.9,20.4,18.3,24.4c0.6,0.3,1.6,0.6,2.9,1c8.4,2.2,16.3-1,23.9-9.6c3.5-4.2,6.8-9.3,9.7-15.4c2.9-6.1,5.4-12.9,7.4-20.2
				c2.2-8,3.8-16.1,4.3-24.2c0.5-8.1,0.2-15.6-1.1-22.5c-0.4-1.9-1-4.1-1.8-6.7c-0.7-2.5-1.8-5-3.1-7.4c-1.3-2.4-3-4.6-5-6.5
				c-2-2-4.4-3.4-7.1-4.2C1886,308.1,1885.9,308,1885.7,308z"/>
		</g>
	</g>
	<g>
		<g>
			<path fill="none" stroke="#000000" stroke-width="4" d="M1449.3,397.3c-0.7,0-1.4-0.1-2.1-0.1c-0.7,0-1.5-0.1-2.1-0.3
				c-14.6-2.3-26-12.1-32.4-25.1c-3.1-5.9-5.4-12.6-7.1-20.3c-1.6-7.6-2.3-15.9-2.2-24.5c0.1-8.5,0.9-16.9,2.6-25.1
				c1.7-8.2,4.2-15.5,7.4-22c3.4-6.9,7.6-12.3,12.4-16.1c5.6-4.8,11.9-6.9,18.9-6.4c6.6,0.5,12.5,3.2,17.6,8
				c5.1,4.8,9.4,10.9,12.8,18.3c3.5,7.4,6.1,15.7,8.1,24.7c1.9,9,3,18.1,3.2,27.2c0.2,8.4-0.4,16.2-1.7,23.5
				c-1.3,7.3-3.3,13.6-5.9,19C1473.4,389.8,1462.4,397.9,1449.3,397.3z M1444.3,267.4c-2.7-0.1-5.1,0.4-7.4,1.6
				c-2.3,1.1-4.3,2.6-6.1,4.4c-1.8,1.8-3.4,3.7-4.7,5.8c-1.3,2.1-2.3,3.9-3.1,5.5c-3,5.6-5.2,12.1-6.8,19.5
				c-1.6,7.4-2.5,15.1-2.5,23.1c0,7.8,0.7,15.2,2.2,22.1c1.4,6.9,3.4,13,6,18.3c4.6,9.8,13,17.8,24,19.4c0.7,0.2,1.7,0.3,3.1,0.3
				c8.8,0.3,15.7-4.3,20.6-14.3c2.3-4.8,4-10.4,5.1-17c1.1-6.6,1.5-13.7,1.4-21.2c-0.1-8.3-0.9-16.6-2.6-24.6c-1.7-8-4-15.3-7-21.9
				c-0.9-1.8-2-3.8-3.4-6.2c-1.3-2.3-2.9-4.6-4.7-6.7c-1.8-2.1-3.9-3.9-6.2-5.4c-2.3-1.5-4.8-2.4-7.4-2.6
				C1444.5,267.4,1444.4,267.4,1444.3,267.4z"/>
			<path fill="none" stroke="#000000" stroke-width="4" d="M1631.9,404.2c-0.1,0-0.1,0-0.2,0c-1.3-0.2-2.5-0.7-3.4-1.7
				c-0.9-1-1.4-2.2-1.3-3.6c0.6-10.8,1.2-21.6,1.3-32.5c0.1-9.7-0.1-18.4-0.6-26.1c-0.5-7.7-1-14.5-1.8-20.3
				c-0.7-5.8-1.6-10.7-2.5-14.8c-1-5.1-2.3-9.6-3.7-13.7c-1.4-4-2.9-7.4-4.5-10.1c-2.5-4.3-4.9-6.5-7.1-6.5c-0.7,0-1.7,0.3-2.9,1
				c-1.2,0.7-2.6,1.9-4,3.9c-1.5,1.9-3,4.5-4.7,7.7c-1.7,3.2-3.4,7.3-5.1,12.2c-4.2,12.5-6.9,25.4-9,38.4c-2.7,17-4.2,34.2-5.4,51.4
				c-0.1,1.3-0.6,2.4-1.5,3.3c-0.9,0.9-2,1.3-3.5,1.3c-1.3,0-2.5-0.4-3.5-1.3c-1-0.9-1.4-2-1.5-3.3c-1.4-17.4-3-34.8-5.6-52
				c-2-12.8-4.5-25.7-8.5-37.9c-2.9-8.8-6.1-15.6-9.4-20.1c-2.3-3-4.3-4.6-6-4.7c-1.1-0.1-2.3,0.5-3.6,1.6c-1.3,1.1-2.6,2.7-4,4.8
				c-3.6,5.4-6.7,13.2-9.3,23.4c-3.2,13-5.2,26.4-6.4,39.7c-1.4,16.2-1.7,32.6-1.6,48.9c0,1.3-0.4,2.4-1.3,3.3
				c-0.9,0.9-2.1,1.2-3.6,1.1c-1.4-0.1-2.5-0.7-3.5-1.7c-1-1-1.6-2.2-1.8-3.5c-2.8-42.4-5.7-84.7-8.6-127.1
				c-0.1-1.5,0.4-2.6,1.2-3.5c0.9-0.9,2.1-1.3,3.6-1.3c1.5,0.1,2.8,0.6,3.9,1.6c1.1,0.9,1.6,2.2,1.7,3.6c1.1,16.6,2.2,33.1,3.3,49.7
				c0.5-2.6,0.9-5.1,1.4-7.5c0.5-2.4,1-4.6,1.6-6.9c3.1-11.2,6.5-19.8,10.4-25.8c4.8-7,10.3-10.6,16.1-10.5
				c5.7,0.1,10.8,3.5,15.1,9.3c4,5.6,7.8,13.1,10.9,22.8c1.7,5.5,3.2,11.6,4.7,18.3c1.5,6.7,2.9,14.1,4.1,22.3
				c1.3-8,2.7-15.4,4.2-22.2c1.5-6.8,3.1-13,5-18.6c1.7-5.1,3.5-9.5,5.5-13.3c2-3.8,4-7,6.1-9.7c4.6-6.1,10.1-9.1,16.2-8.7
				c5.9,0.4,11.2,4.3,15.7,11.6c2,3.2,3.7,7.1,5.3,11.5c1.6,4.4,2.9,9.5,4,15.1c2.9,14.1,3.9,28.5,4.4,42.7
				c0.6,17.7-0.3,35.7-1.4,53.6c0,1.5-0.5,2.6-1.5,3.5C1634.6,403.8,1633.4,404.2,1631.9,404.2z"/>
			<path fill="none" stroke="#000000" stroke-width="4" d="M1659.7,266.2c2.5,0.1,4.6,1,6.4,2.7c1.8,1.7,2.7,3.7,2.6,5.9
				c-0.1,2.3-1.1,4.2-3.1,5.7c-1.9,1.5-4.1,2.2-6.6,2.1c-2.6-0.1-4.8-1-6.5-2.6c-1.7-1.7-2.6-3.6-2.5-5.9c0.1-2.3,1-4.2,2.9-5.7
				C1654.8,266.8,1657.1,266.1,1659.7,266.2z M1652.2,311.1c-0.1-1.5,0.3-2.7,1.3-3.6c1-0.9,2.2-1.4,3.8-1.5
				c1.6-0.1,2.9,0.4,3.9,1.4c1,1,1.5,2.1,1.5,3.5c0.2,15.6,0.4,31.3,0,46.6c-0.4,14.3-1.5,28.8-3.8,43.1c-0.5,2.9-2.3,4.3-5.2,4.2
				c-0.2,0-0.4,0-0.6,0c-1.3-0.3-2.4-1-3.2-2c-0.8-1-1.2-2.3-1-3.7c2.2-13.9,3.3-28,3.5-42.1
				C1652.5,341.7,1652.4,326.4,1652.2,311.1z"/>
			<path fill="none" stroke="#000000" stroke-width="4" d="M1716.2,409.2c-1.5-0.1-2.5-0.3-3.2-0.5c-5-0.8-10.2-2.8-15.3-6.1
				c-4.9-3.2-9.3-7.6-13.1-13.1c-4.1-6.1-7.2-13.1-9.3-21c-2.1-7.9-3-16.6-2.8-26.1c0.2-9.4,1.5-18.9,4-27.9
				c2.5-8.9,6-16.8,10.6-23.8c4.4-6.7,9.4-11.9,15.1-15.6c5.6-3.7,11.4-5.7,17.2-5.9c8.5-0.4,15.9,3,21.7,10.2
				c6.8,8.4,9.8,19.5,11.1,30.2c0.2,1.4-0.2,2.6-1.1,3.6c-0.9,1-2.1,1.6-3.7,1.7c-1.4,0.1-2.7-0.2-3.9-1.1c-1.1-0.8-1.8-1.9-1.9-3.3
				c-1.6-11.1-4.6-19.6-9-25.3c-3.7-4.2-7.9-6.3-12.6-6.2c-3.9,0.1-8,1.6-12.2,4.6c-4.2,3-8,7.1-11.5,12.4
				c-4.1,6.2-7.3,13.3-9.6,21.3c-2.3,8-3.8,16.7-3.8,25.4c0,14.3,1.6,28.5,9.9,41.1c6,8.7,13.3,13.6,21.9,15
				c5.6,0.9,10.4,0.2,14.6-2.2c4.1-2.4,7-6.3,8.6-11.5c0.4-1.3,1.2-2.3,2.5-2.9c1.3-0.6,2.6-0.7,3.9-0.3c1.4,0.4,2.5,1.2,3,2.4
				c0.6,1.2,0.6,2.5,0.2,3.9c-2.4,7.6-6.9,13.3-13.6,17.1C1728.7,408.5,1722.8,409.7,1716.2,409.2z"/>
			<path fill="none" stroke="#000000" stroke-width="4" d="M1775.4,275.3c2.5,0.4,4.6,1.5,6.4,3.4c1.7,1.9,2.5,4,2.2,6.2
				c-0.3,2.3-1.5,4-3.5,5.3c-2.1,1.3-4.4,1.8-6.8,1.4c-2.6-0.4-4.7-1.5-6.4-3.3c-1.7-1.8-2.4-3.9-2.1-6.1c0.2-2.3,1.3-4.1,3.4-5.4
				C1770.5,275.4,1772.8,274.9,1775.4,275.3z M1764.7,319.4c0-1.5,0.5-2.6,1.6-3.4c1-0.8,2.3-1.2,3.9-1.1c1.6,0.1,2.9,0.7,3.8,1.8
				c1,1.1,1.4,2.3,1.2,3.6c-0.9,15.6-1.9,31.2-3.4,46.6c-1.4,14.2-3.6,28.5-6.9,42.6c-0.7,2.9-2.5,4.1-5.4,3.6
				c-0.2,0-0.4-0.1-0.6-0.1c-1.3-0.5-2.3-1.2-3-2.3c-0.7-1.1-1-2.4-0.7-3.8c3.2-13.7,5.3-27.7,6.4-41.7
				C1762.8,349.9,1763.8,334.7,1764.7,319.4z"/>
			<path fill="none" stroke="#000000" stroke-width="4" d="M1793.7,274.3c0-1.5,0.6-2.6,1.7-3.4c1.1-0.8,2.5-1.1,4.1-0.9
				c1.7,0.2,3,0.8,4,1.9c1,1.1,1.4,2.4,1.2,3.7c-0.4,5.2-1,11.6-1.7,19.2c-0.7,7.6-1.6,15.8-2.6,24.6c-1,8.8-2.1,17.9-3.3,27.1
				c-1.2,9.2-2.5,18.1-3.8,26.5c-1.3,8.4-2.6,16.1-3.8,23.1c-1.2,7-2.4,12.6-3.6,16.9c-0.8,2.8-2.6,4-5.5,3.4
				c-0.2,0-0.3-0.1-0.6-0.1c-1.3-0.5-2.3-1.3-3-2.5c-0.7-1.1-0.9-2.4-0.6-3.9c1.1-4.1,2.2-9.7,3.3-16.5c1.2-6.9,2.3-14.5,3.6-22.9
				c1.2-8.4,2.4-17.1,3.5-26.3c1.1-9.2,2.2-18.1,3.1-26.8c1-8.7,1.8-16.8,2.5-24.3C1792.8,285.7,1793.3,279.4,1793.7,274.3z"/>
			<path fill="none" stroke="#000000" stroke-width="4" d="M1823.4,283.9c2.5,0.5,4.7,1.8,6.3,3.8c1.7,2,2.3,4.1,1.9,6.3
				c-0.4,2.2-1.7,3.9-3.8,5.1c-2.2,1.2-4.5,1.5-7,1c-2.6-0.6-4.8-1.8-6.4-3.8c-1.6-2-2.2-4-1.9-6.3c0.3-2.2,1.5-4,3.6-5.2
				C1818.3,283.6,1820.7,283.3,1823.4,283.9z M1810.6,327.3c0.1-1.5,0.6-2.6,1.7-3.3c1.1-0.7,2.4-1,4-0.8c1.6,0.2,2.9,0.9,3.8,2
				c0.9,1.2,1.3,2.4,1.1,3.7c-1.6,15.5-3.3,31.1-5.5,46.4c-2.1,14.1-4.9,28.3-8.9,42.2c-0.9,2.8-2.7,3.9-5.5,3.3
				c-0.2,0-0.3-0.1-0.6-0.1c-1.2-0.5-2.2-1.4-2.9-2.6c-0.7-1.2-0.9-2.5-0.5-3.9c3.8-13.5,6.5-27.4,8.2-41.3
				C1807.4,357.7,1809.1,342.5,1810.6,327.3z"/>
			<path fill="none" stroke="#000000" stroke-width="4" d="M1856.7,434.6c-0.6-0.2-1.3-0.3-2-0.5c-0.7-0.2-1.4-0.4-2-0.7
				c-13.6-5.5-21.8-18.2-24.8-32.2c-1.6-6.5-2.2-13.7-2-21.6c0.2-7.9,1.4-16,3.6-24.4c2.1-8.2,4.8-16.1,8.5-23.5
				c3.6-7.4,7.9-13.9,12.7-19.3c5.2-5.7,10.8-9.9,16.7-12.4c7-3.2,14.2-3.7,21.5-1.6c6.8,2,12.3,5.9,16.4,11.5
				c4.1,5.7,6.8,12.4,8.3,20.2c1.5,7.8,1.9,16.3,1.2,25.3c-0.6,9.1-2.2,18-4.6,26.7c-2.2,8.1-5.1,15.5-8.4,22.3
				c-3.4,6.8-7.1,12.5-11.3,17.2C1882.1,431.7,1869.7,438.1,1856.7,434.6z M1885.7,308c-2.8-0.7-5.5-0.8-8.1-0.2
				c-2.7,0.6-5.2,1.5-7.5,2.8c-2.3,1.3-4.4,2.7-6.3,4.4c-1.9,1.7-3.4,3.2-4.6,4.5c-4.4,4.7-8.3,10.4-11.7,17.1
				c-3.4,6.7-6.1,14-8.1,21.7c-1.9,7.5-2.9,15-3.2,22c-0.3,7.1,0.2,13.5,1.4,19.2c2,10.5,7.9,20.4,18.3,24.4c0.6,0.3,1.6,0.6,2.9,1
				c8.4,2.2,16.3-1,23.9-9.6c3.5-4.2,6.8-9.3,9.7-15.4c2.9-6.1,5.4-12.9,7.4-20.2c2.2-8,3.8-16.1,4.3-24.2
				c0.5-8.1,0.2-15.6-1.1-22.5c-0.4-1.9-1-4.1-1.8-6.7c-0.7-2.5-1.8-5-3.1-7.4c-1.3-2.4-3-4.6-5-6.5c-2-2-4.4-3.4-7.1-4.2
				C1886,308.1,1885.9,308,1885.7,308z"/>
		</g>
	</g>
	<g>
		<g>
			<path d="M1449.3,397.3c-0.7,0-1.4-0.1-2.1-0.1c-0.7,0-1.5-0.1-2.1-0.3c-14.6-2.3-26-12.1-32.4-25.1c-3.1-5.9-5.4-12.6-7.1-20.3
				c-1.6-7.6-2.3-15.9-2.2-24.5c0.1-8.5,0.9-16.9,2.6-25.1c1.7-8.2,4.2-15.5,7.4-22c3.4-6.9,7.6-12.3,12.4-16.1
				c5.6-4.8,11.9-6.9,18.9-6.4c6.6,0.5,12.5,3.2,17.6,8c5.1,4.8,9.4,10.9,12.8,18.3c3.5,7.4,6.1,15.7,8.1,24.7
				c1.9,9,3,18.1,3.2,27.2c0.2,8.4-0.4,16.2-1.7,23.5c-1.3,7.3-3.3,13.6-5.9,19C1473.4,389.8,1462.4,397.9,1449.3,397.3z
				 M1444.3,267.4c-2.7-0.1-5.1,0.4-7.4,1.6c-2.3,1.1-4.3,2.6-6.1,4.4c-1.8,1.8-3.4,3.7-4.7,5.8c-1.3,2.1-2.3,3.9-3.1,5.5
				c-3,5.6-5.2,12.1-6.8,19.5c-1.6,7.4-2.5,15.1-2.5,23.1c0,7.8,0.7,15.2,2.2,22.1c1.4,6.9,3.4,13,6,18.3c4.6,9.8,13,17.8,24,19.4
				c0.7,0.2,1.7,0.3,3.1,0.3c8.8,0.3,15.7-4.3,20.6-14.3c2.3-4.8,4-10.4,5.1-17c1.1-6.6,1.5-13.7,1.4-21.2
				c-0.1-8.3-0.9-16.6-2.6-24.6c-1.7-8-4-15.3-7-21.9c-0.9-1.8-2-3.8-3.4-6.2c-1.3-2.3-2.9-4.6-4.7-6.7c-1.8-2.1-3.9-3.9-6.2-5.4
				c-2.3-1.5-4.8-2.4-7.4-2.6C1444.5,267.4,1444.4,267.4,1444.3,267.4z"/>
			<path d="M1631.9,404.2c-0.1,0-0.1,0-0.2,0c-1.3-0.2-2.5-0.7-3.4-1.7c-0.9-1-1.4-2.2-1.3-3.6c0.6-10.8,1.2-21.6,1.3-32.5
				c0.1-9.7-0.1-18.4-0.6-26.1c-0.5-7.7-1-14.5-1.8-20.3c-0.7-5.8-1.6-10.7-2.5-14.8c-1-5.1-2.3-9.6-3.7-13.7
				c-1.4-4-2.9-7.4-4.5-10.1c-2.5-4.3-4.9-6.5-7.1-6.5c-0.7,0-1.7,0.3-2.9,1c-1.2,0.7-2.6,1.9-4,3.9c-1.5,1.9-3,4.5-4.7,7.7
				c-1.7,3.2-3.4,7.3-5.1,12.2c-4.2,12.5-6.9,25.4-9,38.4c-2.7,17-4.2,34.2-5.4,51.4c-0.1,1.3-0.6,2.4-1.5,3.3
				c-0.9,0.9-2,1.3-3.5,1.3c-1.3,0-2.5-0.4-3.5-1.3c-1-0.9-1.4-2-1.5-3.3c-1.4-17.4-3-34.8-5.6-52c-2-12.8-4.5-25.7-8.5-37.9
				c-2.9-8.8-6.1-15.6-9.4-20.1c-2.3-3-4.3-4.6-6-4.7c-1.1-0.1-2.3,0.5-3.6,1.6c-1.3,1.1-2.6,2.7-4,4.8c-3.6,5.4-6.7,13.2-9.3,23.4
				c-3.2,13-5.2,26.4-6.4,39.7c-1.4,16.2-1.7,32.6-1.6,48.9c0,1.3-0.4,2.4-1.3,3.3c-0.9,0.9-2.1,1.2-3.6,1.1
				c-1.4-0.1-2.5-0.7-3.5-1.7c-1-1-1.6-2.2-1.8-3.5c-2.8-42.4-5.7-84.7-8.6-127.1c-0.1-1.5,0.4-2.6,1.2-3.5c0.9-0.9,2.1-1.3,3.6-1.3
				c1.5,0.1,2.8,0.6,3.9,1.6c1.1,0.9,1.6,2.2,1.7,3.6c1.1,16.6,2.2,33.1,3.3,49.7c0.5-2.6,0.9-5.1,1.4-7.5c0.5-2.4,1-4.6,1.6-6.9
				c3.1-11.2,6.5-19.8,10.4-25.8c4.8-7,10.3-10.6,16.1-10.5c5.7,0.1,10.8,3.5,15.1,9.3c4,5.6,7.8,13.1,10.9,22.8
				c1.7,5.5,3.2,11.6,4.7,18.3c1.5,6.7,2.9,14.1,4.1,22.3c1.3-8,2.7-15.4,4.2-22.2c1.5-6.8,3.1-13,5-18.6c1.7-5.1,3.5-9.5,5.5-13.3
				c2-3.8,4-7,6.1-9.7c4.6-6.1,10.1-9.1,16.2-8.7c5.9,0.4,11.2,4.3,15.7,11.6c2,3.2,3.7,7.1,5.3,11.5c1.6,4.4,2.9,9.5,4,15.1
				c2.9,14.1,3.9,28.5,4.4,42.7c0.6,17.7-0.3,35.7-1.4,53.6c0,1.5-0.5,2.6-1.5,3.5C1634.6,403.8,1633.4,404.2,1631.9,404.2z"/>
			<path d="M1659.7,266.2c2.5,0.1,4.6,1,6.4,2.7c1.8,1.7,2.7,3.7,2.6,5.9c-0.1,2.3-1.1,4.2-3.1,5.7c-1.9,1.5-4.1,2.2-6.6,2.1
				c-2.6-0.1-4.8-1-6.5-2.6c-1.7-1.7-2.6-3.6-2.5-5.9c0.1-2.3,1-4.2,2.9-5.7C1654.8,266.8,1657.1,266.1,1659.7,266.2z M1652.2,311.1
				c-0.1-1.5,0.3-2.7,1.3-3.6c1-0.9,2.2-1.4,3.8-1.5c1.6-0.1,2.9,0.4,3.9,1.4c1,1,1.5,2.1,1.5,3.5c0.2,15.6,0.4,31.3,0,46.6
				c-0.4,14.3-1.5,28.8-3.8,43.1c-0.5,2.9-2.3,4.3-5.2,4.2c-0.2,0-0.4,0-0.6,0c-1.3-0.3-2.4-1-3.2-2c-0.8-1-1.2-2.3-1-3.7
				c2.2-13.9,3.3-28,3.5-42.1C1652.5,341.7,1652.4,326.4,1652.2,311.1z"/>
			<path d="M1716.2,409.2c-1.5-0.1-2.5-0.3-3.2-0.5c-5-0.8-10.2-2.8-15.3-6.1c-4.9-3.2-9.3-7.6-13.1-13.1c-4.1-6.1-7.2-13.1-9.3-21
				c-2.1-7.9-3-16.6-2.8-26.1c0.2-9.4,1.5-18.9,4-27.9c2.5-8.9,6-16.8,10.6-23.8c4.4-6.7,9.4-11.9,15.1-15.6
				c5.6-3.7,11.4-5.7,17.2-5.9c8.5-0.4,15.9,3,21.7,10.2c6.8,8.4,9.8,19.5,11.1,30.2c0.2,1.4-0.2,2.6-1.1,3.6
				c-0.9,1-2.1,1.6-3.7,1.7c-1.4,0.1-2.7-0.2-3.9-1.1c-1.1-0.8-1.8-1.9-1.9-3.3c-1.6-11.1-4.6-19.6-9-25.3
				c-3.7-4.2-7.9-6.3-12.6-6.2c-3.9,0.1-8,1.6-12.2,4.6c-4.2,3-8,7.1-11.5,12.4c-4.1,6.2-7.3,13.3-9.6,21.3
				c-2.3,8-3.8,16.7-3.8,25.4c0,14.3,1.6,28.5,9.9,41.1c6,8.7,13.3,13.6,21.9,15c5.6,0.9,10.4,0.2,14.6-2.2c4.1-2.4,7-6.3,8.6-11.5
				c0.4-1.3,1.2-2.3,2.5-2.9c1.3-0.6,2.6-0.7,3.9-0.3c1.4,0.4,2.5,1.2,3,2.4c0.6,1.2,0.6,2.5,0.2,3.9c-2.4,7.6-6.9,13.3-13.6,17.1
				C1728.7,408.5,1722.8,409.7,1716.2,409.2z"/>
			<path d="M1775.4,275.3c2.5,0.4,4.6,1.5,6.4,3.4c1.7,1.9,2.5,4,2.2,6.2c-0.3,2.3-1.5,4-3.5,5.3c-2.1,1.3-4.4,1.8-6.8,1.4
				c-2.6-0.4-4.7-1.5-6.4-3.3c-1.7-1.8-2.4-3.9-2.1-6.1c0.2-2.3,1.3-4.1,3.4-5.4C1770.5,275.4,1772.8,274.9,1775.4,275.3z
				 M1764.7,319.4c0-1.5,0.5-2.6,1.6-3.4c1-0.8,2.3-1.2,3.9-1.1c1.6,0.1,2.9,0.7,3.8,1.8c1,1.1,1.4,2.3,1.2,3.6
				c-0.9,15.6-1.9,31.2-3.4,46.6c-1.4,14.2-3.6,28.5-6.9,42.6c-0.7,2.9-2.5,4.1-5.4,3.6c-0.2,0-0.4-0.1-0.6-0.1
				c-1.3-0.5-2.3-1.2-3-2.3c-0.7-1.1-1-2.4-0.7-3.8c3.2-13.7,5.3-27.7,6.4-41.7C1762.8,349.9,1763.8,334.7,1764.7,319.4z"/>
			<path d="M1793.7,274.3c0-1.5,0.6-2.6,1.7-3.4c1.1-0.8,2.5-1.1,4.1-0.9c1.7,0.2,3,0.8,4,1.9c1,1.1,1.4,2.4,1.2,3.7
				c-0.4,5.2-1,11.6-1.7,19.2c-0.7,7.6-1.6,15.8-2.6,24.6c-1,8.8-2.1,17.9-3.3,27.1c-1.2,9.2-2.5,18.1-3.8,26.5
				c-1.3,8.4-2.6,16.1-3.8,23.1c-1.2,7-2.4,12.6-3.6,16.9c-0.8,2.8-2.6,4-5.5,3.4c-0.2,0-0.3-0.1-0.6-0.1c-1.3-0.5-2.3-1.3-3-2.5
				c-0.7-1.1-0.9-2.4-0.6-3.9c1.1-4.1,2.2-9.7,3.3-16.5c1.2-6.9,2.3-14.5,3.6-22.9c1.2-8.4,2.4-17.1,3.5-26.3
				c1.1-9.2,2.2-18.1,3.1-26.8c1-8.7,1.8-16.8,2.5-24.3C1792.8,285.7,1793.3,279.4,1793.7,274.3z"/>
			<path d="M1823.4,283.9c2.5,0.5,4.7,1.8,6.3,3.8c1.7,2,2.3,4.1,1.9,6.3c-0.4,2.2-1.7,3.9-3.8,5.1c-2.2,1.2-4.5,1.5-7,1
				c-2.6-0.6-4.8-1.8-6.4-3.8c-1.6-2-2.2-4-1.9-6.3c0.3-2.2,1.5-4,3.6-5.2C1818.3,283.6,1820.7,283.3,1823.4,283.9z M1810.6,327.3
				c0.1-1.5,0.6-2.6,1.7-3.3c1.1-0.7,2.4-1,4-0.8c1.6,0.2,2.9,0.9,3.8,2c0.9,1.2,1.3,2.4,1.1,3.7c-1.6,15.5-3.3,31.1-5.5,46.4
				c-2.1,14.1-4.9,28.3-8.9,42.2c-0.9,2.8-2.7,3.9-5.5,3.3c-0.2,0-0.3-0.1-0.6-0.1c-1.2-0.5-2.2-1.4-2.9-2.6
				c-0.7-1.2-0.9-2.5-0.5-3.9c3.8-13.5,6.5-27.4,8.2-41.3C1807.4,357.7,1809.1,342.5,1810.6,327.3z"/>
			<path d="M1856.7,434.6c-0.6-0.2-1.3-0.3-2-0.5c-0.7-0.2-1.4-0.4-2-0.7c-13.6-5.5-21.8-18.2-24.8-32.2c-1.6-6.5-2.2-13.7-2-21.6
				c0.2-7.9,1.4-16,3.6-24.4c2.1-8.2,4.8-16.1,8.5-23.5c3.6-7.4,7.9-13.9,12.7-19.3c5.2-5.7,10.8-9.9,16.7-12.4
				c7-3.2,14.2-3.7,21.5-1.6c6.8,2,12.3,5.9,16.4,11.5c4.1,5.7,6.8,12.4,8.3,20.2c1.5,7.8,1.9,16.3,1.2,25.3
				c-0.6,9.1-2.2,18-4.6,26.7c-2.2,8.1-5.1,15.5-8.4,22.3c-3.4,6.8-7.1,12.5-11.3,17.2C1882.1,431.7,1869.7,438.1,1856.7,434.6z
				 M1885.7,308c-2.8-0.7-5.5-0.8-8.1-0.2c-2.7,0.6-5.2,1.5-7.5,2.8c-2.3,1.3-4.4,2.7-6.3,4.4c-1.9,1.7-3.4,3.2-4.6,4.5
				c-4.4,4.7-8.3,10.4-11.7,17.1c-3.4,6.7-6.1,14-8.1,21.7c-1.9,7.5-2.9,15-3.2,22c-0.3,7.1,0.2,13.5,1.4,19.2
				c2,10.5,7.9,20.4,18.3,24.4c0.6,0.3,1.6,0.6,2.9,1c8.4,2.2,16.3-1,23.9-9.6c3.5-4.2,6.8-9.3,9.7-15.4c2.9-6.1,5.4-12.9,7.4-20.2
				c2.2-8,3.8-16.1,4.3-24.2c0.5-8.1,0.2-15.6-1.1-22.5c-0.4-1.9-1-4.1-1.8-6.7c-0.7-2.5-1.8-5-3.1-7.4c-1.3-2.4-3-4.6-5-6.5
				c-2-2-4.4-3.4-7.1-4.2C1886,308.1,1885.9,308,1885.7,308z"/>
		</g>
	</g>
</g>
<g>
	<g>
		<path fill="#E2001A" d="M1927.2,395.7c5.4,0.4,9.9,2.6,13.5,6.7c3.6,4.1,5.3,8.9,4.9,14.2c-0.4,5.3-2.6,9.8-6.8,13.4
			c-4.1,3.6-8.9,5.2-14.2,4.9c-5.3-0.4-9.7-2.6-13.2-6.7c-3.5-4.1-5.1-8.8-4.8-14.1c0.3-5.3,2.5-9.8,6.5-13.4
			C1917.1,397,1921.8,395.3,1927.2,395.7z"/>
		<path fill="#E2001A" d="M2054.1,449.5c-2.9-0.3-5-0.6-6.3-1c-11.3-2.1-21.1-7-30.2-12.9c-10-6.5-18.7-16.4-25.6-26.7
			c-8.4-13.3-13.7-27.7-17.4-42.5c-4.2-16.7-5.3-35-4.3-52.3c1.1-18.7,3.9-37.4,9.4-55.6c5.1-16.6,12.2-33.2,22.1-47
			c8.3-11.7,17.9-22.5,30.3-30.6c10.2-6.6,21.9-10.8,34.1-11.1c16.9-0.7,32.1,8,42.2,21.1c13.1,17.1,18.4,39.5,20.7,60.6
			c0.3,2.7-0.5,5.1-2.3,7.2c-1.8,2.1-4.3,3.2-7.4,3.4c-2.8,0.2-5.4-0.5-7.6-2.2c-2.2-1.7-3.5-3.9-3.7-6.6
			c-2-17.6-6.3-36.2-16.8-50.8c-6-7.5-14.8-12.8-24.4-12.9c-7.6,0-15.9,3-24.2,8.8c-9.5,6.6-16.2,15.1-23.2,24.3
			c-9,13.1-15.5,27.5-20,42.1c-5,16.1-7.8,33.6-8.7,50.7c-1.5,28,1.9,57.7,17.8,82.6c9.9,15.4,25,27.4,43,30.9
			c9.7,1.9,20.4,1.1,29.1-3.9c8.6-4.9,14.6-13.2,17.5-22.7c0.8-2.6,2.5-4.5,5.1-5.7c2.6-1.2,5.2-1.3,7.8-0.5c2.9,0.9,4.9,2.5,6,4.9
			c1.1,2.4,1.2,5,0.3,7.9c-4.6,14.4-14.3,26.7-27.7,34C2079,448.6,2066.4,450.7,2054.1,449.5z"/>
		<path fill="#E2001A" d="M2212.4,467.9c-1.3-0.2-2.7-0.4-4.2-0.6c-1.5-0.2-2.8-0.5-4.1-1c-28.3-7.7-46.5-30.6-54.7-57.9
			c-4.3-13.9-6.2-28.3-6.6-42.3c-0.5-16.2,1.3-32.9,4.4-49c3.1-16.4,7.8-33.1,14-48.5c5.7-14.2,12.9-28.8,22.2-41
			c8.4-11,17.9-21.1,30.2-28.4c12-7.6,26.4-10.8,40.4-8.2c12.8,2.3,24.5,9.1,32.9,19.1c9.5,11.4,15.2,24.6,19.3,38.3
			c4.8,15.8,6.7,33.4,6.9,50.1c0.1,18.1-1.1,36.4-4.2,54c-2.7,15.5-7,31.1-12.5,46c-4.7,12.8-11.1,25.3-19.1,36.5
			C2262.3,456.6,2239.5,471.8,2212.4,467.9z M2249.6,210.6c-5.4-0.7-10.5-0.3-15.5,1.5c-5,1.7-9.6,4.2-13.9,7.2
			c-4.3,3.1-8.1,6.5-11.4,10.2c-3.3,3.7-6,7.1-8.1,10c-8.5,11.1-15.3,23.7-20.4,36.5c-5.6,14.5-10.3,29.7-13.1,44.7
			c-2.6,14.2-3.9,29.4-3.6,44.3c0.3,12.7,1.8,25.5,5.3,37.8c5.7,20.4,18.9,38.6,40.3,44.1c1.3,0.5,3.3,0.8,5.9,1.2
			c19.2,2.7,35.5-9.4,46-24.4c7-10.1,12.3-21.2,16.5-32.7c5-13.6,8.5-27.6,11-41.6c2.9-16.1,4.5-32.8,4.2-48.9
			c-0.3-14.7-2.1-29.8-6-44.4c-1.2-3.7-2.7-7.9-4.5-12.8c-1.8-4.9-4.2-9.5-7.2-14c-2.9-4.5-6.4-8.4-10.5-11.8
			c-4.1-3.4-8.8-5.6-14.1-6.7C2250.1,210.7,2250,210.7,2249.6,210.6z"/>
		<path fill="#E2001A" d="M2510.2,522c-0.2,0-0.2-0.1-0.4-0.1c-2.8-0.9-4.9-2.4-6.4-4.7c-1.4-2.2-1.7-4.7-0.8-7.5
			c2.6-11.2,5.3-22.3,7.9-33.5c2.7-11.6,5.1-23.2,7.5-34.8c2.8-13.6,5.2-27.3,7.4-41c4.4-27.8,8.5-55.8,9.1-84
			c0.1-12.4,0.5-25.1-2-37.2c-1.7-7.9-3.7-13.6-5.6-16.7c-1.1-1.6-2.1-2.6-3.1-3.1c-0.9-0.5-1.7-0.8-2.2-0.9
			c-3.1-0.6-6.7,0.9-11,4.7c-7.3,6-12.9,14.2-17.5,22.2c-6.1,10.6-12,22-17,33.5c-6.5,14.8-11.9,30.1-17.1,45.3
			c-4.9,14.3-9.6,28.6-13.7,43.2c-3.6,12.7-7.1,25.5-10.4,38.3c-2.3,9.1-4.6,18.2-6.8,27.4c-1.6,7-2.5,10.7-2.5,10.9
			c-0.8,2.6-2.2,4.6-4.3,6.1c-2.1,1.5-4.5,2-7.4,1.4c-2.6-0.5-4.7-1.8-6.2-3.8c-1.5-2.1-2.2-4.4-1.9-7.1c1.2-13.1,2.4-26.2,3.3-39.3
			c1-13.3,1.8-26.7,2.5-40c0.8-15.1,1.2-30.3,1.3-45.5c0.1-16.2,0.1-32.5-0.8-48.7c-0.7-12.6-2.1-25.3-4.3-37.6
			c-1.7-9.4-4-19-8-27.8c-2.6-4.8-4.9-7.4-6.9-7.7c-0.3,0-0.6,0-1.1,0c-0.4,0.1-1.2,0.4-2.1,1c-1.6,1.1-3.9,3.6-6.7,7.6
			c-2.8,4-6.1,10.5-9.6,19.6c-4.7,12.2-8.1,24.9-11.3,37.4c-5.1,19.9-8.7,40.5-12.3,60.8c-2.3,13.4-4.4,27-6.3,40.5
			c-1.6,11.6-3.1,23.1-4.5,34.7c-1.3,11.3-2.5,22.6-3.7,33.9c-0.2,2.9-1.4,5.2-3.4,6.9c-2.1,1.7-4.6,2.4-7.5,2.2
			c-2.9-0.2-5.3-1.4-7-3.4c-1.7-2-2.4-4.5-2.2-7.5c1.2-11.4,2.3-22.9,3.6-34.3c1.3-11.8,2.8-23.6,4.4-35.4
			c1.8-13.7,3.9-27.5,6.2-41.1c2.6-15.4,5.4-30.7,8.6-46c2.7-12.4,5.7-24.8,9.3-37c3.6-12.1,7.9-24.2,13.9-35.4
			c4.8-8.9,10-15.5,15.7-19.7c3.6-2.6,7.2-4.2,10.8-4.6c3.6-0.5,6.5-0.5,8.7-0.1c11.3,2.1,16.5,10.2,22.7,19.1
			c5,10.4,7.8,21.7,9.5,33.1c2.2,13,3.5,26.2,4.2,39.4c1,16.9,1.2,33.8,1,50.7c-0.1,3.2-0.2,6.5-0.4,9.7c-0.2,3.2-0.3,6.5-0.4,9.7
			c1.1-3,2.1-6,3-9c0.8-3,1.8-6,3-9c9.7-28.2,19.9-56.7,35.3-82.4c6.1-9.9,13-19.8,22-27.4c8-7.1,18.6-11.3,29.4-9.1
			c2.8,0.6,5.9,1.8,9.3,3.8c3.4,1.9,6.7,5.1,9.8,9.6c10.2,15.7,11,35.8,11.3,53.6c0.6,32.5-4.8,65.7-10.2,98.1
			c-2.3,14-4.8,27.9-7.8,41.7c-2.5,11.7-5,23.5-7.8,35.1c-2.7,11.3-5.4,22.6-8.1,33.8c-0.8,2.5-2.4,4.5-4.6,5.9
			C2515.2,522.2,2512.8,522.6,2510.2,522z"/>
	</g>
</g>
<g>
	<g>
		<path d="M1644.8,63.5c-1.3,8.5-9.4,14.3-17.9,13c-8.5-1.3-14.3-9.4-13-17.9c1.3-8.5,9.4-14.3,17.9-13
			C1640.4,46.9,1646.2,54.9,1644.8,63.5z"/>
		<path d="M1732.3,127.5c-18.9-3-36.7,9.9-39.7,28.8c-3,18.9,9.9,36.7,28.8,39.7c18.9,3,36.7-9.9,39.7-28.8
			C1764.2,148.2,1751.3,130.5,1732.3,127.5z M1723.7,183.6c-12.2-1.9-20.6-13.4-18.6-25.6c1.9-12.2,13.4-20.6,25.6-18.6
			c12.2,1.9,20.6,13.4,18.6,25.6C1747.4,177.2,1735.9,185.6,1723.7,183.6z"/>
		<path d="M1608.2,195c-18.9-3-36.7,9.9-39.7,28.8c-3,18.9,9.9,36.7,28.8,39.7c18.9,3,36.7-9.9,39.7-28.8
			C1640,215.7,1627.1,198,1608.2,195z M1599.5,251.1c-12.2-1.9-20.6-13.4-18.6-25.6c1.9-12.2,13.4-20.6,25.6-18.6
			c12.2,1.9,20.6,13.4,18.6,25.6C1623.2,244.7,1611.8,253.1,1599.5,251.1z"/>
		<path d="M1606.3,236.5l-5.5-12.5l35.4-18.1c0,0-6.6-23.8-42.4-20.7l-35.8,18l2-12.6l67.6-36.3l2.7-16.8l-3.3-2.8l28.2-15.5
			l-8.2-6.8c0,0-18.2,0.9-6.1-9.7c0,0,5.7-5.7,7.4,1.2l3.2,0.2l76.1,52.5c0,0,3,0.2,1.2,5.5c0,0-1.8,4.9-6.8,1l-43.2-30.9l-0.5,60.2
			c0,0,1.3,3-4.9,6.9L1606.3,236.5z"/>
		<polygon points="1683.7,111.6 1673,94.1 1669.1,104.2 1675.7,112.6 		"/>
		<g>
			<path d="M1616.5,99.1c0,0,6.5-15.2-1.5-18.8c0,0-11.1-1.8-11.1-1.8c-3.5-0.5-9.4,6-11.3,8c-9.5,9.8-12,22.1-14.1,35.1
				c-1.6,10.2-1.9,17.5,9.1,21.7c5.4,2.2,10.8,4.3,16.2,6.5c3.1,1.3,6.7,2.2,9.6,3.8c6.4,3.6,8.1,13.7,10.5,20.1
				c2,5.4,4,10.8,6,16.3c0,0,18.2,14.5,18.9-10.9c-5.2-12.3-10.4-24.5-15.3-36.9c-2.2-5.6-11.7-6.7-17-8.4
				c-5.3-1.7-10.6-3.4-15.9-5.1L1616.5,99.1z"/>
			<path fill="none" stroke="#FFFFFF" stroke-width="0.15" d="M1618.8,159.7c2.3,4.4,3.6,9.9,5.1,14c2,5.4,4,10.8,6,16.3
				c0,0,18.2,14.5,18.9-10.9c-5.2-12.3-10.4-24.5-15.3-36.9c-1-2.5-2.3-3.6-5.2-4.8"/>
		</g>
		<g>
			<path d="M1599.2,91.5c0,0,2.8-6.8,8.2-5.6c0,0,4.7-1,4.7,5.6c0,0-2.6,16.4-2.6,16.5c-0.3,2.1,4.9,4.2,6.2,4.5
				c6.2,1.4,11.4-5.1,17.4-4.4c4.7,0.5,3.6,4.2,1.3,6.9c-2.8,3.3-10.5,7.7-14.8,8c0,0-15.4,1-19-3
				C1600.6,120,1594.2,114.3,1599.2,91.5z"/>
			<path fill="none" stroke="#FFFFFF" stroke-width="0.25" d="M1604.1,122.2c-0.9-0.1-3.5-2.1-3.5-2.1s-6.4-5.8-1.4-28.6
				c0,0,2.8-6.8,8.2-5.6c0,0,4.7-1,4.7,5.6c0,0-2.6,16.4-2.6,16.5c0,0,0.3,1.4,1.1,2"/>
		</g>
	</g>
	<g>
		<path fill="#FFFFFF" stroke="#000000" d="M1513.6,208c0,0-8.1-8.1,0-11.4c0,0,8.1-12.4,15.6,5.7c0,0,9.5-7,14.7,5.7
			c0,0,0,11.4-12.4,11.1c0,0,0,4.6,4.2,7.2l8.1,5.5c0,0-12.7-1.6-17-6.8c0,0-1.3,7.5-4.5,8.5c0,0-15.3,6.2-10.4-10.8
			c0,0-8.8,0.7-9.8-6.2C1501.3,209.7,1510.1,208.4,1513.6,208z"/>
		<path fill="none" stroke="#000000" d="M1519.8,220.1c0,0,2-7.3,9.5-6.6"/>
	</g>
	<g>
		<path fill="#FFFFFF" stroke="#000000" d="M1462.3,197.4c0,0-5.9-5.9,0-8.2c0,0,5.9-8.9,11.3,4.1c0,0,6.8-5,10.6,4.1
			c0,0,0,8.2-8.9,8c0,0,0,3.3,3.1,5.2l5.9,4c0,0-9.2-1.2-12.2-4.9c0,0-0.9,5.4-3.3,6.1c0,0-11,4.5-7.5-7.7c0,0-6.3,0.5-7-4.5
			C1453.3,198.6,1459.7,197.6,1462.3,197.4z"/>
		<path fill="none" stroke="#000000" d="M1466.7,206.1c0,0,1.4-5.2,6.8-4.7"/>
	</g>
</g>
</svg>
